<svg width="81" height="84" viewBox="0 0 81 84" fill="none" xmlns="http://www.w3.org/2000/svg">
<rect x="0.241211" y="0.675293" width="80.446" height="82.64" rx="14.6265" fill="#F6F6F6"/>
<path d="M46.1207 49.9148L49.7467 29.0288C49.8448 28.464 49.2845 28.0111 48.7529 28.2253L25.8238 37.4636C25.2486 37.6954 25.2048 38.4929 25.7512 38.7863L32.2076 42.253C32.3939 42.3531 32.5278 42.5289 32.5747 42.735L33.8647 48.4022C33.9851 48.9309 34.6187 49.1494 35.0393 48.8072L38.5427 45.957C38.8103 45.7393 39.1937 45.7382 39.4625 45.9543L44.9419 50.3597C45.376 50.7087 46.0254 50.4636 46.1207 49.9148Z" stroke="#5956E9" stroke-width="1.46265"/>
<path d="M43.6242 32.8722L31.1894 40.9119C31.052 41.0008 30.9903 41.1702 31.0385 41.3267L33.3061 48.6849C33.3533 48.8382 33.4951 48.9429 33.6555 48.9429H33.947C34.1425 48.9429 34.3033 48.7892 34.3123 48.5939L34.5931 42.4715C34.5974 42.3763 34.6388 42.2866 34.7083 42.2215L44.0728 33.4461C44.398 33.1413 43.9985 32.6302 43.6242 32.8722Z" fill="#5956E9"/>
</svg>
