<svg width="129" height="20" viewBox="0 0 129 20" fill="none" xmlns="http://www.w3.org/2000/svg">
<path d="M9.06071 19.5696C6.36455 19.5696 4.34243 18.904 2.99435 17.573C1.64627 16.242 0.972234 14.254 0.972234 11.6091V1.24249H5.68198V11.6347C5.68198 12.9486 5.95501 13.9469 6.50107 14.6294C7.04713 15.2949 7.90034 15.6277 9.06071 15.6277C10.2211 15.6277 11.0743 15.2949 11.6204 14.6294C12.1664 13.9469 12.4394 12.9486 12.4394 11.6347V1.24249H17.098V11.6091C17.098 14.254 16.4325 16.242 15.1015 17.573C13.7705 18.904 11.7569 19.5696 9.06071 19.5696ZM20.0154 19.288V9.81731C20.0154 9.23712 19.9983 8.6484 19.9642 8.05115C19.9301 7.4539 19.8789 6.86518 19.8106 6.285H24.2132L24.4692 8.53748H24.1876C24.563 7.75253 25.1176 7.13821 25.8514 6.69454C26.5852 6.2338 27.4469 6.00343 28.4366 6.00343C29.3922 6.00343 30.2028 6.2338 30.8683 6.69454C31.5509 7.13821 32.0457 7.84638 32.3529 8.81904H31.9177C32.3444 7.9317 32.9587 7.2406 33.7607 6.74573C34.5798 6.25087 35.4927 6.00343 36.4995 6.00343C37.9841 6.00343 39.0933 6.45564 39.8271 7.36005C40.5608 8.24739 40.9277 9.63813 40.9277 11.5323V19.288H36.3459V11.6858C36.3459 10.8838 36.2265 10.3207 35.9876 9.99648C35.7487 9.65519 35.3647 9.48455 34.8357 9.48455C34.1702 9.48455 33.6498 9.72345 33.2744 10.2013C32.916 10.6791 32.7368 11.336 32.7368 12.1722V19.288H28.1807V11.6858C28.1807 10.8838 28.0527 10.3207 27.7967 9.99648C27.5578 9.65519 27.1824 9.48455 26.6705 9.48455C26.005 9.48455 25.4845 9.72345 25.1091 10.2013C24.7507 10.6791 24.5716 11.336 24.5716 12.1722V19.288H20.0154ZM52.1857 19.5696C51.196 19.5696 50.2916 19.3307 49.4725 18.8529C48.6705 18.3751 48.1415 17.7437 47.8855 16.9587H48.1671V19.288H43.6621V0.449002H48.2183V8.48629H47.9111C48.2012 7.73546 48.7388 7.13821 49.5237 6.69454C50.3257 6.2338 51.2131 6.00343 52.1857 6.00343C53.312 6.00343 54.3017 6.27646 55.1549 6.82252C56.0252 7.36858 56.6993 8.15354 57.1771 9.17739C57.6719 10.2013 57.9193 11.4128 57.9193 12.8121C57.9193 14.2284 57.6719 15.44 57.1771 16.4468C56.6993 17.4536 56.0252 18.23 55.1549 18.7761C54.3017 19.3051 53.312 19.5696 52.1857 19.5696ZM50.7523 16.1908C51.5032 16.1908 52.1175 15.9263 52.5953 15.3973C53.0902 14.8683 53.3376 14.0066 53.3376 12.8121C53.3376 11.6176 53.0902 10.7473 52.5953 10.2013C52.1175 9.65519 51.5032 9.38217 50.7523 9.38217C49.9844 9.38217 49.3616 9.65519 48.8838 10.2013C48.406 10.7302 48.1671 11.592 48.1671 12.7865C48.1671 13.981 48.406 14.8513 48.8838 15.3973C49.3616 15.9263 49.9844 16.1908 50.7523 16.1908ZM60.1348 19.288V9.8429C60.1348 9.24565 60.1178 8.6484 60.0836 8.05115C60.0495 7.4539 59.9983 6.86518 59.9301 6.285H64.3327L64.819 10.278H64.1279C64.2985 9.30538 64.5716 8.50335 64.947 7.87198C65.3224 7.2406 65.7917 6.77133 66.3548 6.46417C66.9179 6.15701 67.5834 6.00343 68.3513 6.00343C68.7097 6.00343 68.9741 6.0205 69.1448 6.05463C69.3325 6.07169 69.5287 6.12288 69.7335 6.20821V10.2013C69.3069 10.0135 68.9656 9.89409 68.7097 9.8429C68.4537 9.79171 68.1209 9.76611 67.7114 9.76611C67.0118 9.76611 66.4401 9.8941 65.9964 10.1501C65.5528 10.389 65.2285 10.7644 65.0238 11.2763C64.8361 11.7882 64.7422 12.4452 64.7422 13.2472V19.288H60.1348ZM77.7432 19.5696C75.3883 19.5696 73.5539 18.9638 72.24 17.7522C70.9431 16.5406 70.2946 14.8769 70.2946 12.7609C70.2946 11.4469 70.5677 10.278 71.1137 9.25418C71.6598 8.23033 72.4277 7.43684 73.4174 6.87371C74.4071 6.29353 75.5675 6.00343 76.8985 6.00343C78.2125 6.00343 79.3046 6.29353 80.1749 6.87371C81.0622 7.43684 81.7277 8.22179 82.1714 9.22859C82.6151 10.2183 82.8369 11.3702 82.8369 12.6841V13.6568H74.1085V11.5067H79.4838L79.0486 11.865C79.0486 10.8924 78.8609 10.1757 78.4855 9.71492C78.1272 9.23712 77.6152 8.99822 76.9497 8.99822C76.1818 8.99822 75.5931 9.28831 75.1836 9.8685C74.7911 10.4316 74.5948 11.2848 74.5948 12.4281V12.8889C74.5948 14.0322 74.8764 14.8683 75.4395 15.3973C76.0026 15.9263 76.8132 16.1908 77.8712 16.1908C78.5538 16.1908 79.1937 16.114 79.7909 15.9605C80.4052 15.8069 80.9854 15.5594 81.5315 15.2182L82.7089 18.1873C82.0605 18.631 81.3096 18.9723 80.4564 19.2112C79.6032 19.4501 78.6988 19.5696 77.7432 19.5696Z" fill="#FF6565"/>
<path d="M85.2624 19.288V1.24249H89.9977V15.3717H97.7278V19.288H85.2624ZM100.06 19.288V1.24249H104.796V15.3717H112.526V19.288H100.06ZM119.722 19.5696C118.595 19.5696 117.606 19.3051 116.752 18.7761C115.899 18.23 115.225 17.445 114.73 16.4212C114.252 15.3973 114.014 14.1858 114.014 12.7865C114.014 11.3702 114.252 10.1586 114.73 9.1518C115.225 8.12794 115.899 7.35151 116.752 6.82252C117.606 6.27646 118.595 6.00343 119.722 6.00343C120.728 6.00343 121.633 6.24233 122.435 6.72013C123.254 7.19793 123.791 7.82078 124.047 8.58868H123.791L124.073 6.285H128.45C128.399 6.86518 128.348 7.4539 128.296 8.05115C128.262 8.6484 128.245 9.23712 128.245 9.81731V19.288H123.74L123.689 17.0867H123.996C123.74 17.8375 123.203 18.4433 122.384 18.904C121.582 19.3477 120.694 19.5696 119.722 19.5696ZM121.181 16.1908C121.948 16.1908 122.571 15.9263 123.049 15.3973C123.527 14.8513 123.766 13.981 123.766 12.7865C123.766 11.592 123.527 10.7302 123.049 10.2013C122.571 9.65519 121.948 9.38217 121.181 9.38217C120.413 9.38217 119.79 9.65519 119.312 10.2013C118.834 10.7302 118.595 11.592 118.595 12.7865C118.595 13.981 118.826 14.8513 119.286 15.3973C119.764 15.9263 120.396 16.1908 121.181 16.1908Z" fill="#7C3EFF"/>
</svg>
