<svg width="27" height="32" viewBox="0 0 27 32" fill="none" xmlns="http://www.w3.org/2000/svg">
<path d="M13.739 23.0125C15.7018 23.0125 17.6205 22.4334 19.2525 21.3486C20.8845 20.2637 22.1565 18.7218 22.9076 16.9177C23.6587 15.1137 23.8552 13.1286 23.4723 11.2134C23.0894 9.29827 22.1442 7.53908 20.7563 6.15833C19.3685 4.77758 17.6002 3.83728 15.6751 3.45633C13.7501 3.07538 11.7547 3.2709 9.94131 4.01815C8.12795 4.76541 6.57804 6.03085 5.48758 7.65444C4.39712 9.27803 3.81509 11.1869 3.81509 13.1395C3.81812 15.7571 4.86465 18.2665 6.7251 20.1174C8.58555 21.9683 11.108 23.0094 13.739 23.0125ZM13.739 4.78553C15.3999 4.78553 17.0234 5.27549 18.4043 6.19344C19.7852 7.11139 20.8615 8.4161 21.497 9.9426C22.1326 11.4691 22.2989 13.1488 21.9749 14.7693C21.6509 16.3898 20.8511 17.8784 19.6768 19.0467C18.5024 20.215 17.0062 21.0107 15.3773 21.333C13.7484 21.6554 12.06 21.4899 10.5256 20.8576C8.99119 20.2253 7.67973 19.1546 6.75704 17.7808C5.83434 16.407 5.34185 14.7918 5.34185 13.1395C5.34448 10.9247 6.23003 8.80136 7.80424 7.23525C9.37845 5.66914 11.5128 4.78815 13.739 4.78553Z" fill="url(#paint0_linear_18_5005)"/>
<path d="M8.9628 13.8003L9.42759 14.1591C9.55105 14.2545 9.64293 14.3889 9.69007 14.5432C9.7372 14.6975 9.73718 14.8636 9.68999 15.0179L9.51217 15.5986C9.37039 16.0616 9.37025 16.5605 9.51178 17.0236C9.6533 17.4867 9.92922 17.8902 10.2999 18.1764C10.6707 18.4625 11.1171 18.6165 11.5753 18.6163C12.0335 18.616 12.4798 18.4616 12.8503 18.1751L13.3144 17.8163C13.4379 17.7209 13.5867 17.6695 13.7394 17.6695C13.8921 17.6695 14.0409 17.7209 14.1644 17.8163L14.6285 18.1759C14.9971 18.4672 15.4443 18.6245 15.9036 18.6245C16.363 18.6245 16.8101 18.4672 17.1787 18.1759C17.5531 17.8934 17.8319 17.4902 17.9739 17.0262C18.1158 16.5621 18.1132 16.0618 17.9667 15.5994L17.7888 15.0194C17.7415 14.8651 17.7414 14.6987 17.7885 14.5443C17.8356 14.3899 17.9276 14.2553 18.0512 14.1598L18.516 13.8011C18.8865 13.5151 19.1622 13.1117 19.3037 12.6489C19.4452 12.1861 19.4453 11.6876 19.3038 11.2247C19.1623 10.7619 18.8866 10.3586 18.5161 10.0725C18.1457 9.78641 17.6996 9.63229 17.2416 9.63223H16.667C16.5141 9.63184 16.3653 9.57996 16.2419 9.48403C16.1185 9.3881 16.0269 9.25307 15.9803 9.09834L15.8032 8.5176C15.6619 8.05429 15.3862 7.65043 15.0156 7.36399C14.6449 7.07755 14.1984 6.92325 13.7401 6.92325C13.2818 6.92325 12.8353 7.07755 12.4647 7.36399C12.0941 7.65043 11.8183 8.05429 11.6771 8.5176L11.4986 9.09834C11.4514 9.25262 11.3595 9.38707 11.236 9.48243C11.1125 9.57778 10.9638 9.62914 10.8111 9.62915H10.2365C9.77854 9.62922 9.33239 9.78334 8.96195 10.0694C8.59151 10.3555 8.3158 10.7588 8.17432 11.2217C8.03283 11.6845 8.03285 12.183 8.17436 12.6458C8.31587 13.1087 8.59162 13.512 8.96208 13.798L8.9628 13.8003ZM9.54976 11.6986C9.59398 11.5424 9.68514 11.406 9.8093 11.3101C9.93345 11.2142 10.0838 11.1642 10.2372 11.1678H10.8119C11.2697 11.1679 11.7157 11.0138 12.0859 10.7275C12.4561 10.4412 12.7313 10.0376 12.872 9.57461L13.0491 8.99464C13.0966 8.84095 13.1886 8.70714 13.3119 8.61227C13.4352 8.5174 13.5836 8.46633 13.7358 8.46633C13.888 8.46633 14.0364 8.5174 14.1597 8.61227C14.283 8.70714 14.375 8.84095 14.4225 8.99464L14.5996 9.57461C14.7404 10.0381 15.0161 10.4421 15.3868 10.7284C15.7576 11.0147 16.2043 11.1686 16.6626 11.1678H17.2373C17.39 11.1678 17.5387 11.2191 17.6622 11.3144C17.7857 11.4098 17.8777 11.5442 17.9249 11.6985C17.9721 11.8528 17.9721 12.019 17.9249 12.1733C17.8778 12.3276 17.7858 12.4621 17.6623 12.5574L17.1968 12.9162C16.8256 13.2018 16.5494 13.6052 16.4078 14.0684C16.2662 14.5315 16.2666 15.0305 16.4089 15.4934L16.5867 16.0734C16.6332 16.2271 16.633 16.3925 16.586 16.546C16.539 16.6996 16.4477 16.8335 16.325 16.9288C16.2023 17.024 16.0545 17.0758 15.9026 17.0767C15.7506 17.0775 15.6023 17.0275 15.4786 16.9337L15.0145 16.575C14.6442 16.2879 14.1978 16.1332 13.7394 16.1332C13.2811 16.1332 12.8346 16.2879 12.4643 16.575L12.0002 16.9337C11.8768 17.029 11.7281 17.0803 11.5756 17.0803C11.423 17.0803 11.2744 17.029 11.1509 16.9338C11.0275 16.8386 10.9355 16.7043 10.8882 16.5501C10.841 16.396 10.8408 16.2299 10.8878 16.0757L11.0656 15.4942C11.2079 15.0314 11.2082 14.5325 11.0666 14.0695C10.925 13.6065 10.6488 13.2032 10.2777 12.9177L9.81215 12.559C9.68517 12.4664 9.5904 12.332 9.54245 12.1765C9.4945 12.021 9.49606 11.8531 9.54687 11.6986H9.54976Z" fill="url(#paint1_linear_18_5005)"/>
<path d="M5.61809 30.6C6.00786 30.8962 6.48569 31.0569 6.97733 31.0571C7.1802 31.0569 7.38213 31.0299 7.57778 30.9769L13.5139 29.3727C13.6531 29.3345 13.7999 29.3324 13.9402 29.3668L19.8988 30.9762C20.233 31.0667 20.5838 31.0798 20.9239 31.0144C21.2641 30.949 21.5844 30.8069 21.8598 30.5991C22.1353 30.3913 22.3586 30.1234 22.5122 29.8164C22.6659 29.5093 22.7457 29.1714 22.7457 28.8288V21.8903C24.5345 20.128 25.7541 17.8804 26.25 15.4323C26.7459 12.9843 26.4958 10.4457 25.5314 8.13828C24.567 5.83081 22.9316 3.85818 20.8324 2.4702C18.7331 1.08221 16.2645 0.341309 13.739 0.341309C11.2136 0.341309 8.74496 1.08221 6.64574 2.4702C4.54651 3.85818 2.91114 5.83081 1.94671 8.13828C0.982284 10.4457 0.732186 12.9843 1.22809 15.4323C1.72399 17.8804 2.94359 20.128 4.73244 21.8903V28.8288C4.73098 29.1717 4.81024 29.5103 4.96395 29.8177C5.11766 30.1251 5.34161 30.3929 5.61809 30.6ZM7.18449 29.5456C7.07288 29.5762 6.95564 29.5808 6.84192 29.5591C6.72821 29.5374 6.62112 29.49 6.52902 29.4206C6.43693 29.3512 6.36233 29.2616 6.31107 29.159C6.25981 29.0563 6.23327 28.9433 6.23354 28.8288V23.1428C8.20409 24.5696 10.55 25.4024 12.9885 25.541V27.977L7.18449 29.5456ZM21.2446 28.8288C21.2447 28.9432 21.2181 29.0562 21.1668 29.1587C21.1155 29.2613 21.0409 29.3507 20.9488 29.4201C20.8567 29.4894 20.7496 29.5367 20.636 29.5584C20.5223 29.58 20.4052 29.5754 20.2936 29.5448L14.4896 27.9777V25.541C16.9281 25.4024 19.274 24.5696 21.2446 23.1428V28.8288ZM2.48078 12.9647C2.48078 10.7634 3.14107 8.61153 4.37814 6.7812C5.61522 4.95087 7.37352 3.5243 9.4307 2.68189C11.4879 1.83948 13.7515 1.61907 15.9354 2.04853C18.1193 2.47798 20.1254 3.53802 21.6998 5.09459C23.2743 6.65116 24.3466 8.63435 24.781 10.7934C25.2154 12.9524 24.9924 15.1903 24.1403 17.224C23.2882 19.2578 21.8452 20.9961 19.9938 22.2191C18.1424 23.4421 15.9657 24.0948 13.739 24.0948C10.7542 24.0915 7.89259 22.9178 5.78198 20.8312C3.67138 18.7446 2.48416 15.9156 2.48078 12.9647Z" fill="url(#paint2_linear_18_5005)"/>
<defs>
<linearGradient id="paint0_linear_18_5005" x1="13.7391" y1="0.341309" x2="13.7391" y2="31.0571" gradientUnits="userSpaceOnUse">
<stop stop-color="#8CC8AC"/>
<stop offset="1" stop-color="#2D887C"/>
</linearGradient>
<linearGradient id="paint1_linear_18_5005" x1="13.7391" y1="0.341309" x2="13.7391" y2="31.0571" gradientUnits="userSpaceOnUse">
<stop stop-color="#8CC8AC"/>
<stop offset="1" stop-color="#2D887C"/>
</linearGradient>
<linearGradient id="paint2_linear_18_5005" x1="13.7391" y1="0.341309" x2="13.7391" y2="31.0571" gradientUnits="userSpaceOnUse">
<stop stop-color="#8CC8AC"/>
<stop offset="1" stop-color="#2D887C"/>
</linearGradient>
</defs>
</svg>
