<svg width="45" height="32" viewBox="0 0 45 32" fill="none" xmlns="http://www.w3.org/2000/svg">
<path d="M12.8917 28.7473C13.4505 28.846 13.8288 29.3902 13.7325 29.9631C13.6361 30.5379 13.1054 30.924 12.5466 30.8252C8.99934 30.193 5.87784 28.2803 3.65313 25.5663C1.46349 22.8938 0.1427 19.4507 0.1427 15.6971C0.1427 11.4567 1.8191 7.61879 4.52898 4.8385C7.24065 2.05826 10.9843 0.341309 15.1198 0.341309C19.2556 0.341309 22.9989 2.0601 25.7106 4.8385C28.4222 7.61874 30.0968 11.457 30.0968 15.6971C30.0968 16.3024 30.0601 16.9076 29.9917 17.5075L32.4932 15.6648C32.9539 15.3253 33.595 15.4313 33.9261 15.9037C34.2572 16.376 34.1538 17.0333 33.6931 17.3728L28.8778 20.9199C28.841 20.9468 28.8024 20.9702 28.7604 20.9935C28.2594 21.2665 27.6393 21.0744 27.373 20.5607L24.5738 15.2015C24.3075 14.6896 24.4967 14.0521 24.9959 13.779C25.4969 13.506 26.117 13.7 26.3851 14.2119L27.9563 17.2202C28.0106 16.7281 28.0387 16.2198 28.0387 15.6972C28.0387 12.0405 26.5917 8.72878 24.255 6.33287C21.9182 3.93701 18.6898 2.45348 15.1216 2.45348C11.5551 2.45348 8.32505 3.93701 5.98823 6.33287C3.65146 8.72874 2.20452 12.0406 2.20452 15.6972C2.20452 18.9444 3.33786 21.9134 5.22274 24.2137C7.13911 26.5521 9.82956 28.2009 12.892 28.745L12.8917 28.7473ZM31.3427 2.6511C30.7839 2.55232 30.4056 2.00815 30.5019 1.43522C30.5982 0.860491 31.129 0.474369 31.6878 0.573129C35.235 1.20533 38.3565 3.1181 40.5812 5.83209C42.7709 8.50455 44.0917 11.9476 44.0917 15.7013C44.0917 19.9417 42.4153 23.7796 39.7054 26.5599C36.9937 29.3401 33.2501 31.0571 29.1146 31.0571C24.9788 31.0571 21.2355 29.3383 18.5238 26.5599C15.8121 23.7796 14.1375 19.9413 14.1375 15.7013C14.1375 15.096 14.1743 14.4907 14.2426 13.8909L11.7412 15.7336C11.2805 16.073 10.6394 15.9671 10.3083 15.4947C9.9772 15.0224 10.0806 14.365 10.5413 14.0256L15.3566 10.4785C15.3934 10.4515 15.4319 10.4282 15.474 10.4048C15.975 10.1318 16.5951 10.324 16.8613 10.8377L19.6606 16.1969C19.9269 16.7087 19.7377 17.3463 19.2384 17.6193C18.7374 17.8923 18.1173 17.6983 17.8493 17.1865L16.278 14.1781C16.2237 14.6702 16.1957 15.1785 16.1957 15.7012C16.1957 19.3578 17.6426 22.6696 19.9794 25.0655C22.3162 27.4613 25.5445 28.9449 29.1128 28.9449C32.6792 28.9449 35.9093 27.4613 38.2461 25.0655C40.5829 22.6696 42.0298 19.3578 42.0298 15.7012C42.0298 12.454 40.8965 9.48494 39.0116 7.18467C37.0953 4.84628 34.4048 3.19751 31.3424 2.65331L31.3427 2.6511Z" fill="url(#paint0_linear_18_5006)"/>
<defs>
<linearGradient id="paint0_linear_18_5006" x1="22.1172" y1="0.341309" x2="22.1172" y2="31.0571" gradientUnits="userSpaceOnUse">
<stop stop-color="#8CC8AC"/>
<stop offset="1" stop-color="#2D887C"/>
</linearGradient>
</defs>
</svg>
