<svg width="24" height="32" viewBox="0 0 24 32" fill="none" xmlns="http://www.w3.org/2000/svg">
<path d="M20.8606 31.0571H3.53218C2.82092 31.0516 2.14055 30.7597 1.63912 30.2448C1.1377 29.73 0.855784 29.0339 0.854736 28.3079V3.09043C0.855808 2.36165 1.13995 1.66304 1.64487 1.14772C2.14979 0.632392 2.83431 0.342402 3.54838 0.341309H16.5386C16.7601 0.342021 16.9793 0.387297 17.1837 0.474548C17.388 0.561799 17.5735 0.689312 17.7295 0.849793L23.0763 6.41418C23.3733 6.7298 23.5388 7.15065 23.5381 7.58824V28.3079C23.537 29.0339 23.2551 29.73 22.7537 30.2448C22.2522 30.7597 21.5719 31.0516 20.8606 31.0571ZM3.53218 1.56498C3.14288 1.56933 2.77098 1.73023 2.4972 2.01273C2.22343 2.29524 2.06989 2.67655 2.06991 3.07389V28.2914C2.06991 28.6916 2.22568 29.0754 2.50295 29.3584C2.78021 29.6413 3.15627 29.8003 3.54838 29.8003H20.8606C21.2471 29.796 21.6166 29.6374 21.8899 29.3585C22.1633 29.0795 22.3187 28.7024 22.3229 28.3079V7.58824C22.3216 7.4678 22.2753 7.35242 22.1933 7.26579L16.8627 1.7014C16.7764 1.61422 16.66 1.56522 16.5386 1.56498H3.53218Z" fill="url(#paint0_linear_18_5004)"/>
<path d="M16.4495 8.38591C16.2615 8.38591 16.0812 8.32083 15.9483 8.205C15.8154 8.08916 15.7407 7.93205 15.7407 7.76823V1.69031C15.7407 1.52649 15.8154 1.36939 15.9483 1.25355C16.0812 1.13771 16.2615 1.07264 16.4495 1.07264C16.6375 1.07264 16.8178 1.13771 16.9508 1.25355C17.0837 1.36939 17.1584 1.52649 17.1584 1.69031V7.76823C17.1584 7.93205 17.0837 8.08916 16.9508 8.205C16.8178 8.32083 16.6375 8.38591 16.4495 8.38591Z" fill="url(#paint1_linear_18_5004)"/>
<path d="M22.2213 8.38591H16.3486C16.1874 8.38591 16.0327 8.30886 15.9187 8.17171C15.8047 8.03456 15.7407 7.84854 15.7407 7.65458C15.7407 7.46062 15.8047 7.27461 15.9187 7.13745C16.0327 7.0003 16.1874 6.92325 16.3486 6.92325H22.2213C22.3825 6.92325 22.5371 7.0003 22.6512 7.13745C22.7652 7.27461 22.8292 7.46062 22.8292 7.65458C22.8292 7.84854 22.7652 8.03456 22.6512 8.17171C22.5371 8.30886 22.3825 8.38591 22.2213 8.38591Z" fill="url(#paint2_linear_18_5004)"/>
<path d="M18.6562 13.5052H5.73665C5.56988 13.5052 5.40995 13.4281 5.29203 13.291C5.17411 13.1538 5.10786 12.9678 5.10786 12.7739C5.10786 12.5799 5.17411 12.3939 5.29203 12.2567C5.40995 12.1196 5.56988 12.0425 5.73665 12.0425H18.6562C18.8229 12.0425 18.9829 12.1196 19.1008 12.2567C19.2187 12.3939 19.2849 12.5799 19.2849 12.7739C19.2849 12.9678 19.2187 13.1538 19.1008 13.291C18.9829 13.4281 18.8229 13.5052 18.6562 13.5052Z" fill="url(#paint3_linear_18_5004)"/>
<path d="M18.6562 17.8932H5.73665C5.56988 17.8932 5.40995 17.8161 5.29203 17.679C5.17411 17.5418 5.10786 17.3558 5.10786 17.1618C5.10786 16.9679 5.17411 16.7819 5.29203 16.6447C5.40995 16.5076 5.56988 16.4305 5.73665 16.4305H18.6562C18.8229 16.4305 18.9829 16.5076 19.1008 16.6447C19.2187 16.7819 19.2849 16.9679 19.2849 17.1618C19.2849 17.3558 19.2187 17.5418 19.1008 17.679C18.9829 17.8161 18.8229 17.8932 18.6562 17.8932Z" fill="url(#paint4_linear_18_5004)"/>
<path d="M18.6562 21.5498H5.73665C5.56988 21.5498 5.40995 21.4727 5.29203 21.3356C5.17411 21.1984 5.10786 21.0124 5.10786 20.8185C5.10786 20.6245 5.17411 20.4385 5.29203 20.3013C5.40995 20.1642 5.56988 20.0871 5.73665 20.0871H18.6562C18.8229 20.0871 18.9829 20.1642 19.1008 20.3013C19.2187 20.4385 19.2849 20.6245 19.2849 20.8185C19.2849 21.0124 19.2187 21.1984 19.1008 21.3356C18.9829 21.4727 18.8229 21.5498 18.6562 21.5498Z" fill="url(#paint5_linear_18_5004)"/>
<path d="M13.6773 25.9378H5.75348C5.58225 25.9378 5.41803 25.8607 5.29696 25.7236C5.17588 25.5864 5.10786 25.4004 5.10786 25.2064C5.10786 25.0125 5.17588 24.8265 5.29696 24.6893C5.41803 24.5522 5.58225 24.4751 5.75348 24.4751H13.6773C13.8486 24.4751 14.0128 24.5522 14.1339 24.6893C14.2549 24.8265 14.323 25.0125 14.323 25.2064C14.323 25.4004 14.2549 25.5864 14.1339 25.7236C14.0128 25.8607 13.8486 25.9378 13.6773 25.9378Z" fill="url(#paint6_linear_18_5004)"/>
<defs>
<linearGradient id="paint0_linear_18_5004" x1="12.1964" y1="0.341309" x2="12.1964" y2="31.0571" gradientUnits="userSpaceOnUse">
<stop stop-color="#8CC8AC"/>
<stop offset="1" stop-color="#2D887C"/>
</linearGradient>
<linearGradient id="paint1_linear_18_5004" x1="12.1964" y1="0.341309" x2="12.1964" y2="31.0571" gradientUnits="userSpaceOnUse">
<stop stop-color="#8CC8AC"/>
<stop offset="1" stop-color="#2D887C"/>
</linearGradient>
<linearGradient id="paint2_linear_18_5004" x1="12.1964" y1="0.341309" x2="12.1964" y2="31.0571" gradientUnits="userSpaceOnUse">
<stop stop-color="#8CC8AC"/>
<stop offset="1" stop-color="#2D887C"/>
</linearGradient>
<linearGradient id="paint3_linear_18_5004" x1="12.1964" y1="0.341309" x2="12.1964" y2="31.0571" gradientUnits="userSpaceOnUse">
<stop stop-color="#8CC8AC"/>
<stop offset="1" stop-color="#2D887C"/>
</linearGradient>
<linearGradient id="paint4_linear_18_5004" x1="12.1964" y1="0.341309" x2="12.1964" y2="31.0571" gradientUnits="userSpaceOnUse">
<stop stop-color="#8CC8AC"/>
<stop offset="1" stop-color="#2D887C"/>
</linearGradient>
<linearGradient id="paint5_linear_18_5004" x1="12.1964" y1="0.341309" x2="12.1964" y2="31.0571" gradientUnits="userSpaceOnUse">
<stop stop-color="#8CC8AC"/>
<stop offset="1" stop-color="#2D887C"/>
</linearGradient>
<linearGradient id="paint6_linear_18_5004" x1="12.1964" y1="0.341309" x2="12.1964" y2="31.0571" gradientUnits="userSpaceOnUse">
<stop stop-color="#8CC8AC"/>
<stop offset="1" stop-color="#2D887C"/>
</linearGradient>
</defs>
</svg>
