<svg width="999" height="177" viewBox="0 0 999 177" fill="none" xmlns="http://www.w3.org/2000/svg">
<path d="M176.38 88.5942C176.38 137.264 136.926 176.719 88.2556 176.719C39.5855 176.719 0.130615 137.264 0.130615 88.5942C0.130615 39.9241 39.5855 0.469238 88.2556 0.469238C136.926 0.469238 176.38 39.9241 176.38 88.5942ZM17.2721 88.5942C17.2721 127.797 49.0525 159.578 88.2556 159.578C127.459 159.578 159.239 127.797 159.239 88.5942C159.239 49.3911 127.459 17.6107 88.2556 17.6107C49.0525 17.6107 17.2721 49.3911 17.2721 88.5942Z" fill="#43FF78"/>
<path d="M101.108 84.1869H92.325L89.6092 75.8301C89.5306 75.5982 89.3812 75.3968 89.1822 75.2542C88.9832 75.1115 88.7445 75.0348 88.4996 75.0348C88.2548 75.0348 88.0161 75.1115 87.817 75.2542C87.618 75.3968 87.4687 75.5982 87.3901 75.8301L84.6743 84.1869H75.8908C75.648 84.1843 75.4106 84.2578 75.2116 84.3969C75.0126 84.536 74.8622 84.7339 74.7812 84.9628C74.7057 85.1961 74.7064 85.4474 74.7831 85.6804C74.8598 85.9133 75.0086 86.1158 75.208 86.2586L82.2922 91.4573L79.5997 99.8218C79.5227 100.056 79.5219 100.308 79.5976 100.543C79.6732 100.778 79.8214 100.982 80.0207 101.127C80.22 101.272 80.4602 101.35 80.7067 101.35C80.9532 101.349 81.1932 101.271 81.3921 101.125L88.4996 95.9422L95.6071 101.11C95.8059 101.247 96.0424 101.32 96.2842 101.318C96.5259 101.316 96.7611 101.239 96.9574 101.098C97.1537 100.957 97.3016 100.758 97.3808 100.53C97.4599 100.301 97.4665 100.054 97.3995 99.8218L94.707 91.4573L101.815 86.2896C102.014 86.1468 102.163 85.9443 102.239 85.7114C102.316 85.4785 102.317 85.2272 102.241 84.9938C102.165 84.7553 102.013 84.5479 101.809 84.4025C101.605 84.2571 101.359 84.1815 101.108 84.1869ZM92.6353 90.0762C92.436 90.219 92.2872 90.4215 92.2104 90.6544C92.1337 90.8873 92.1331 91.1386 92.2086 91.372L94.0785 97.1293L89.1824 93.5678C88.9838 93.424 88.7449 93.3465 88.4996 93.3465C88.2544 93.3465 88.0154 93.424 87.8168 93.5678L82.9207 97.1293L84.7907 91.372C84.8662 91.1386 84.8655 90.8873 84.7888 90.6544C84.7121 90.4215 84.5633 90.219 84.3639 90.0762L79.4756 86.5146H85.5201C85.7628 86.5172 86.0003 86.4438 86.1993 86.3046C86.3983 86.1655 86.5487 85.9676 86.6296 85.7387L88.4996 79.9581L90.3696 85.7077C90.4505 85.9366 90.601 86.1345 90.8 86.2736C90.9989 86.4127 91.2364 86.4862 91.4792 86.4836H97.5237L92.6353 90.0762Z" fill="#DBDBDB"/>
<path d="M108.868 84.8542C105.081 82.3479 109.139 78.6467 107.021 75.543C105.57 73.417 101.946 74.1386 100.038 73.0833C98.4857 71.6091 98.0279 67.939 95.5527 67.2251C93.1551 66.3328 90.6566 69.0718 88.4995 69.2891C86.3424 69.0796 83.8439 66.325 81.4231 67.1863C78.9478 67.9002 78.5133 71.5625 76.9382 73.0446C75.0527 74.1076 71.4291 73.3782 69.9549 75.5042C68.403 77.5294 70.2031 80.7573 69.7609 82.8755C68.8298 84.8309 65.4933 86.3672 65.5864 88.9588C65.501 91.5504 68.822 93.0945 69.7609 95.0421C70.2031 97.1604 68.3875 100.388 69.9549 102.413C71.4058 104.539 75.0294 103.818 76.9382 104.873C79.7548 108.598 79.7858 113.152 85.9389 109.637C87.9564 108.373 89.0427 108.38 91.0601 109.637C94.5517 111.887 97.1666 110.964 98.6642 107.1C99.9289 102.646 104.608 105.447 107.021 102.444C108.573 100.419 106.773 97.1914 107.215 95.0731C107.623 94.3065 108.186 93.6328 108.868 93.0945C112.158 90.34 112.181 87.5854 108.868 84.8542ZM107.269 91.3719C101.101 96.0973 109.364 101.506 102.334 101.909C96.3984 102.313 97.8572 105.858 94.8543 108.52C93.0387 108.652 90.548 106.138 88.4995 106.301C86.4511 106.138 83.9526 108.629 82.1447 108.52C80.5463 107.612 80.0419 104.066 78.3038 102.995C76.752 101.668 73.2215 102.266 71.8636 101.048C71.0877 97.1681 74.1914 95.0654 69.7298 91.3719C64.1587 86.7862 74.1759 87.2828 71.9102 79.7718C71.7084 78.6545 71.4834 77.3975 71.8636 76.8699C73.2293 75.6517 76.752 76.2491 78.3038 74.9223C80.0419 73.8515 80.5463 70.2667 82.1447 69.3977C83.9603 69.258 86.4511 71.7798 88.4995 71.6168C90.548 71.7798 93.0464 69.2891 94.8543 69.3977C96.4528 70.3055 96.9571 73.8515 98.734 74.9223C100.286 76.2491 103.816 75.6517 105.174 76.8699C105.554 77.3975 105.329 78.6545 105.128 79.7718C102.831 87.2906 112.84 86.7862 107.269 91.3719Z" fill="#DBDBDB"/>
<path d="M381.883 88.5942C381.883 137.264 342.429 176.719 293.758 176.719C245.088 176.719 205.634 137.264 205.634 88.5942C205.634 39.9241 245.088 0.469238 293.758 0.469238C342.429 0.469238 381.883 39.9241 381.883 88.5942ZM222.775 88.5942C222.775 127.797 254.555 159.578 293.758 159.578C332.962 159.578 364.742 127.797 364.742 88.5942C364.742 49.3911 332.962 17.6107 293.758 17.6107C254.555 17.6107 222.775 49.3911 222.775 88.5942Z" fill="#FFCA43"/>
<path d="M587.386 88.5942C587.386 137.264 547.931 176.719 499.261 176.719C450.591 176.719 411.136 137.264 411.136 88.5942C411.136 39.9241 450.591 0.469238 499.261 0.469238C547.931 0.469238 587.386 39.9241 587.386 88.5942ZM428.278 88.5942C428.278 127.797 460.058 159.578 499.261 159.578C538.464 159.578 570.245 127.797 570.245 88.5942C570.245 49.3911 538.464 17.6107 499.261 17.6107C460.058 17.6107 428.278 49.3911 428.278 88.5942Z" fill="#4383FF"/>
<path d="M792.889 88.5942C792.889 137.264 753.435 176.719 704.764 176.719C656.094 176.719 616.64 137.264 616.64 88.5942C616.64 39.9241 656.094 0.469238 704.764 0.469238C753.435 0.469238 792.889 39.9241 792.889 88.5942ZM633.781 88.5942C633.781 127.797 665.561 159.578 704.764 159.578C743.968 159.578 775.748 127.797 775.748 88.5942C775.748 49.3911 743.968 17.6107 704.764 17.6107C665.561 17.6107 633.781 49.3911 633.781 88.5942Z" fill="#43BBFF"/>
<path d="M998.392 88.5942C998.392 137.264 958.937 176.719 910.267 176.719C861.597 176.719 822.142 137.264 822.142 88.5942C822.142 39.9241 861.597 0.469238 910.267 0.469238C958.937 0.469238 998.392 39.9241 998.392 88.5942ZM839.284 88.5942C839.284 127.797 871.064 159.578 910.267 159.578C949.47 159.578 981.251 127.797 981.251 88.5942C981.251 49.3911 949.47 17.6107 910.267 17.6107C871.064 17.6107 839.284 49.3911 839.284 88.5942Z" fill="#434BFF"/>
<path d="M520.651 95.6309L518.474 93.8551C517.678 93.2062 516.503 93.3257 515.854 94.1214L515.288 94.8166L511.481 91.6942C511.623 91.3962 511.714 91.0695 511.741 90.7291C511.799 90.0122 511.579 89.2972 511.138 88.7673C510.909 88.493 510.629 88.2717 510.318 88.1124C510.811 87.3087 510.893 86.3008 510.552 85.5909C510.09 84.6269 509.331 84.2704 508.729 84.1156C509.358 83.2206 509.944 81.9294 508.782 80.5338C508.33 79.9903 507.725 79.6691 507.096 79.5839C507.371 78.7863 507.315 77.915 506.721 77.1708C506.315 76.6631 505.672 76.3298 504.955 76.2567C504.238 76.1841 503.557 76.3782 503.033 76.8017L499.764 75.7187C498.868 75.4228 498.065 75.4636 497.375 75.8417C496.737 76.1917 496.231 76.8148 495.865 77.6997L494.813 76.8108C494.289 76.3676 493.621 76.1549 492.934 76.2138C492.246 76.2718 491.623 76.5925 491.18 77.1169C490.737 77.6412 490.525 78.3088 490.583 78.996C490.599 79.1871 490.637 79.3726 490.693 79.5511C490.078 79.6459 489.524 79.9525 489.121 80.4324C488.462 81.216 488.352 82.2813 488.746 83.1601C488.239 83.2938 487.785 83.5776 487.441 83.988C486.63 84.9566 486.652 86.3583 487.43 87.3036C487.017 87.4559 486.649 87.712 486.359 88.0594C485.669 88.8863 485.583 90.0293 486.054 90.9353L482.342 94.0261C481.679 93.3232 480.578 93.235 479.818 93.8546L477.64 95.6304C476.845 96.2788 476.725 97.4536 477.374 98.2492L486.534 109.484C486.847 109.868 487.293 110.108 487.789 110.158C487.853 110.164 487.918 110.168 487.982 110.168C488.409 110.168 488.819 110.023 489.153 109.75L491.331 107.975C492.126 107.326 492.247 106.151 491.598 105.356L490.446 103.943L496.689 98.943C497.01 98.9778 497.324 99.0156 497.631 99.0529C498.642 99.1749 499.628 99.2919 500.594 99.2571L507.23 104.701L506.696 105.356C506.048 106.151 506.167 107.326 506.962 107.975L509.14 109.75C509.475 110.023 509.885 110.168 510.312 110.168C510.376 110.168 510.441 110.165 510.505 110.158C511.001 110.108 511.447 109.868 511.76 109.484L520.92 98.2492C521.566 97.4541 521.446 96.2793 520.651 95.6309ZM498.02 77.0221C498.375 76.828 498.806 76.8194 499.34 76.9964L501.813 77.8157L498.886 80.2525L496.959 78.6244C497.218 77.8132 497.581 77.2626 498.02 77.0221ZM492.207 77.9851C492.45 77.6967 492.798 77.5479 493.149 77.5479C493.431 77.5479 493.714 77.6432 493.944 77.8389L498.258 81.4827C498.508 81.6939 498.661 81.9919 498.688 82.3212C498.717 82.6509 498.615 82.9701 498.404 83.2207C498.193 83.4707 497.895 83.6235 497.566 83.6512C497.236 83.678 496.917 83.5781 496.667 83.3664L492.353 79.7225C492.103 79.5113 491.949 79.2138 491.922 78.8841C491.894 78.5543 491.996 78.2352 492.207 77.9851ZM490.149 81.2992C490.36 81.0491 490.656 80.8963 490.984 80.8686C491.31 80.8419 491.63 80.9427 491.879 81.1534L495.438 84.1736C495.957 84.6142 496.023 85.3978 495.584 85.9191C495.374 86.1692 495.077 86.322 494.75 86.3497C494.419 86.3784 494.104 86.2761 493.855 86.0648L493.681 85.9176L491.065 83.6855C491.013 83.6406 490.957 83.5998 490.902 83.5595L490.295 83.0447C489.776 82.6035 489.71 81.8205 490.149 81.2992ZM488.471 84.8527C488.681 84.6027 488.976 84.4499 489.302 84.4227C489.337 84.4196 489.372 84.4186 489.406 84.4186C489.657 84.4186 489.896 84.4993 490.101 84.6435L492.824 86.9542L493.032 87.1317C493.552 87.5749 493.618 88.3619 493.179 88.8858C492.97 89.1359 492.674 89.2886 492.348 89.3159C492.028 89.3431 491.717 89.2438 491.471 89.0396L489.98 87.7594C489.943 87.7277 489.903 87.6999 489.865 87.6702L488.619 86.6068C488.098 86.1631 488.032 85.3766 488.471 84.8527ZM487.39 88.9221C487.599 88.672 487.893 88.5197 488.218 88.4925C488.518 88.4673 488.808 88.5576 489.045 88.7381L490.585 90.052C490.595 90.0601 490.605 90.0671 490.614 90.0747L491.377 90.7286C491.896 91.1743 491.961 91.9649 491.522 92.4903C491.314 92.7404 491.02 92.8926 490.695 92.9199C490.372 92.9461 490.056 92.8447 489.809 92.633L487.537 90.6832C487.017 90.238 486.951 89.4475 487.39 88.9221ZM490.48 106.933L488.302 108.709C488.196 108.795 488.06 108.835 487.923 108.821C487.785 108.807 487.661 108.741 487.575 108.635L478.415 97.4001C478.235 97.1793 478.269 96.8531 478.489 96.6731L480.668 94.8973C480.763 94.8192 480.879 94.7813 480.993 94.7813C481.143 94.7813 481.292 94.8464 481.394 94.9714L481.743 95.3995C481.743 95.3995 481.743 95.4 481.743 95.4C481.743 95.4 481.743 95.4 481.744 95.4005L488.969 104.262C488.969 104.262 488.969 104.263 488.97 104.263C488.97 104.264 488.971 104.264 488.971 104.265L490.554 106.206C490.734 106.427 490.701 106.753 490.48 106.933ZM497.791 97.7183C497.388 97.6699 496.975 97.62 496.55 97.5771C496.375 97.5585 496.199 97.6114 496.062 97.7213L489.594 102.901L483.202 95.0607L486.943 91.9463L488.934 93.6545C489.401 94.0553 489.983 94.2701 490.591 94.2701C490.663 94.2701 490.735 94.2671 490.807 94.261C491.493 94.204 492.114 93.8819 492.555 93.3535C493.221 92.5563 493.323 91.4658 492.908 90.5769C493.415 90.4427 493.867 90.1594 494.211 89.7495C494.706 89.1581 494.889 88.4058 494.781 87.6939C494.809 87.6924 494.836 87.6929 494.863 87.6903C495.55 87.6324 496.173 87.3112 496.614 86.7853C497.054 86.263 497.248 85.6141 497.213 84.9798C497.295 84.9874 497.375 85.001 497.458 85.001C497.531 85.001 497.605 84.9979 497.68 84.9919C498.367 84.9339 498.99 84.6132 499.433 84.0889C499.875 83.5645 500.088 82.897 500.03 82.2092C500.002 81.8765 499.911 81.5598 499.767 81.2704L503.867 77.8565C504.111 77.6543 504.458 77.5595 504.818 77.5963C505.173 77.6327 505.491 77.7874 505.67 78.0113C506.186 78.6577 505.781 79.5849 505.115 80.1662C504.838 80.4082 504.806 80.8287 505.045 81.1091C505.284 81.3894 505.704 81.4252 505.987 81.1898C506.513 80.7516 507.288 80.8414 507.748 81.396C508.42 82.2032 508.089 82.7946 507.23 83.8625L507.172 83.9346C506.876 84.3027 506.937 84.6248 507 84.7837C507.173 85.2243 507.619 85.2894 507.944 85.3368C508.529 85.4215 509.038 85.543 509.34 86.1737C509.519 86.5468 509.391 87.5124 508.655 87.9087C508.376 88.0589 508.24 88.3836 508.328 88.6881C508.416 88.9927 508.703 89.1954 509.021 89.1717C509.433 89.1414 509.841 89.3133 510.104 89.6295C510.323 89.8912 510.431 90.2532 510.401 90.6222C510.372 90.9888 510.208 91.3206 509.953 91.5333L503.658 96.7724C501.923 98.2174 500.099 97.9971 497.791 97.7183ZM502.372 98.9778C503.099 98.7579 503.814 98.3919 504.518 97.8055L510.619 92.7268L514.437 95.8588L508.078 103.659L502.372 98.9778ZM519.875 97.4001L510.716 108.635C510.629 108.741 510.506 108.807 510.367 108.821C510.23 108.836 510.094 108.795 509.988 108.709L507.81 106.933C507.59 106.753 507.557 106.427 507.737 106.206L516.896 94.9719C517.077 94.7506 517.403 94.7178 517.624 94.8978L519.801 96.6736C520.022 96.8531 520.055 97.1793 519.875 97.4001ZM497.992 70.3087V66.9614C497.992 66.5898 498.293 66.2888 498.664 66.2888C499.036 66.2888 499.337 66.5898 499.337 66.9614V70.3087C499.337 70.6803 499.036 70.9813 498.664 70.9813C498.293 70.9813 497.992 70.6798 497.992 70.3087ZM487.3 70.6415C487.114 70.3198 487.225 69.9084 487.546 69.7228C487.868 69.5363 488.278 69.6472 488.464 69.9689L490.138 72.868C490.323 73.1897 490.213 73.6011 489.892 73.7866C489.786 73.8477 489.67 73.8769 489.556 73.8769C489.324 73.8769 489.098 73.7564 488.973 73.5406L487.3 70.6415ZM479.634 78.2563C479.819 77.9347 480.23 77.8237 480.553 78.0103L483.452 79.6837C483.773 79.8693 483.883 80.2807 483.698 80.6024C483.573 80.8182 483.347 80.9387 483.114 80.9387C483 80.9387 482.885 80.9094 482.779 80.8484L479.88 79.175C479.559 78.9889 479.449 78.578 479.634 78.2563ZM514.479 79.1316C514.294 78.8099 514.404 78.399 514.725 78.213L517.625 76.5391C517.947 76.353 518.357 76.4634 518.543 76.7851C518.729 77.1068 518.618 77.5177 518.297 77.7037L515.398 79.3777C515.292 79.4387 515.176 79.4679 515.063 79.4679C514.83 79.4679 514.604 79.3474 514.479 79.1316ZM507.418 72.0189L509.091 69.1198C509.277 68.7981 509.687 68.6872 510.01 68.8738C510.331 69.0593 510.441 69.4707 510.256 69.7924L508.582 72.6915C508.458 72.9073 508.232 73.0278 507.999 73.0278C507.885 73.0278 507.77 72.9986 507.664 72.9376C507.342 72.752 507.232 72.3406 507.418 72.0189Z" fill="#DBDBDB"/>
<path d="M293.808 87.5018C299.432 87.5018 304.084 82.9195 304.084 77.2262C304.084 71.533 299.502 67.0201 293.808 67.0201C288.185 67.0201 283.602 71.533 283.602 77.2262C283.602 82.9195 288.185 87.5018 293.808 87.5018ZM293.808 69.3113C298.113 69.3113 301.723 72.8522 301.723 77.2262C301.723 81.6003 298.183 85.1412 293.808 85.1412C289.504 85.1412 285.893 81.6003 285.893 77.2262C285.893 72.8522 289.504 69.3113 293.808 69.3113Z" fill="#DBDBDB"/>
<path d="M304.431 92.709C301.376 90.279 297.697 88.9598 293.878 88.9598C290.059 88.9598 286.38 90.279 283.325 92.709C280.339 95.0697 278.048 98.3329 276.729 102.221C275.965 104.373 276.382 106.664 277.631 108.47C278.742 109.997 280.409 110.9 282.144 110.9H305.681C307.417 110.9 309.153 109.997 310.194 108.47C311.444 106.734 311.791 104.373 311.097 102.221C309.708 98.3329 307.486 95.0697 304.431 92.709ZM308.25 107.15C307.556 108.122 306.653 108.608 305.612 108.608H282.144C281.103 108.608 280.2 108.122 279.506 107.15C278.673 105.97 278.465 104.443 278.951 103.054C280.131 99.5826 282.144 96.6665 284.783 94.6531C287.491 92.5008 290.615 91.4593 293.947 91.4593C297.211 91.4593 300.404 92.5702 303.112 94.6531C305.751 96.8054 307.833 99.7214 308.944 103.054C309.361 104.373 309.153 105.97 308.25 107.15Z" fill="#DBDBDB"/>
<path d="M272.702 87.9185C276.59 87.9185 279.645 84.7941 279.645 80.9755C279.645 77.0874 276.521 74.0325 272.702 74.0325C268.814 74.0325 265.759 77.1569 265.759 80.9755C265.69 84.7941 268.814 87.9185 272.702 87.9185ZM272.702 75.56C275.687 75.56 278.117 77.99 278.117 80.9755C278.117 83.961 275.687 86.391 272.702 86.391C269.716 86.391 267.286 83.961 267.286 80.9755C267.286 77.99 269.716 75.56 272.702 75.56Z" fill="#DBDBDB" stroke="#DBDBDB" stroke-width="0.365664"/>
<path d="M314.359 86.3906C318.317 86.3906 321.511 83.1968 321.511 79.2393C321.511 75.2818 318.317 72.0186 314.359 72.0186C310.402 72.0186 307.208 75.2124 307.208 79.1699C307.208 83.1274 310.402 86.3906 314.359 86.3906ZM314.359 73.6849C317.414 73.6849 319.914 76.1844 319.914 79.2393C319.914 82.2942 317.414 84.7937 314.359 84.7937C311.304 84.7937 308.805 82.2942 308.805 79.2393C308.805 76.1844 311.304 73.6849 314.359 73.6849Z" fill="#DBDBDB" stroke="#DBDBDB" stroke-width="0.365664"/>
<path d="M326.302 96.7358C325.33 94.028 323.733 91.7368 321.65 90.0705C319.428 88.4042 316.859 87.4322 314.221 87.4322C311.582 87.4322 309.014 88.3348 306.792 90.0705C306.167 90.5565 305.542 91.1814 305.056 91.7368C305.264 91.8757 305.542 92.084 305.82 92.2228C306.028 92.3617 306.167 92.5006 306.375 92.6394C306.792 92.1534 307.347 91.598 307.833 91.2508C309.708 89.7928 311.93 88.9596 314.221 88.9596C316.512 88.9596 318.734 89.7928 320.608 91.2508C322.413 92.7088 323.941 94.7917 324.705 97.1523C325.052 98.1938 324.913 99.2352 324.357 100.068C323.941 100.763 323.177 101.11 322.483 101.11H312.138C312.207 101.318 312.277 101.526 312.346 101.665C312.485 102.012 312.554 102.36 312.624 102.707H322.413C323.663 102.707 324.844 102.012 325.607 101.04C326.51 99.8601 326.788 98.2632 326.302 96.7358Z" fill="#DBDBDB" stroke="#DBDBDB" stroke-width="0.365664"/>
<path d="M262.843 101.318C262.218 100.555 262.079 99.5132 262.496 98.4717C263.329 96.1111 264.717 94.1671 266.523 92.709C268.328 91.251 270.55 90.4873 272.771 90.4873C275.062 90.4873 277.145 91.251 279.02 92.709C279.437 92.9868 279.853 93.3339 280.2 93.7505C280.547 93.4033 280.964 92.9868 281.381 92.6396C280.964 92.223 280.478 91.737 280.061 91.3899C277.84 89.8624 275.34 88.9598 272.841 88.9598C270.272 88.9598 267.703 89.8624 265.62 91.5287C263.537 93.1256 262.01 95.4168 261.107 98.0551C260.621 99.5132 260.829 101.041 261.663 102.29C262.218 103.332 263.398 103.957 264.579 103.957H274.646C274.646 103.471 274.715 102.915 274.854 102.36H264.579C263.954 102.36 263.259 102.013 262.843 101.318Z" fill="#DBDBDB" stroke="#DBDBDB" stroke-width="0.365664"/>
<path d="M717.617 84.1869H708.834L706.118 75.8301C706.039 75.5982 705.89 75.3968 705.691 75.2542C705.492 75.1115 705.253 75.0348 705.008 75.0348C704.764 75.0348 704.525 75.1115 704.326 75.2542C704.127 75.3968 703.977 75.5982 703.899 75.8301L701.183 84.1869H692.4C692.157 84.1843 691.919 84.2578 691.72 84.3969C691.521 84.536 691.371 84.7339 691.29 84.9628C691.215 85.1961 691.215 85.4474 691.292 85.6804C691.369 85.9133 691.517 86.1158 691.717 86.2586L698.801 91.4573L696.109 99.8218C696.031 100.056 696.031 100.308 696.106 100.543C696.182 100.778 696.33 100.982 696.529 101.127C696.729 101.272 696.969 101.35 697.215 101.35C697.462 101.349 697.702 101.271 697.901 101.125L705.008 95.9422L712.116 101.11C712.315 101.247 712.551 101.32 712.793 101.318C713.035 101.316 713.27 101.239 713.466 101.098C713.663 100.957 713.81 100.758 713.89 100.53C713.969 100.301 713.975 100.054 713.908 99.8218L711.216 91.4573L718.323 86.2896C718.523 86.1468 718.671 85.9443 718.748 85.7114C718.825 85.4785 718.826 85.2272 718.75 84.9938C718.673 84.7553 718.522 84.5479 718.317 84.4025C718.113 84.2571 717.868 84.1815 717.617 84.1869ZM709.144 90.0762C708.945 90.219 708.796 90.4215 708.719 90.6544C708.643 90.8873 708.642 91.1386 708.717 91.372L710.587 97.1293L705.691 93.5678C705.493 93.424 705.254 93.3465 705.008 93.3465C704.763 93.3465 704.524 93.424 704.326 93.5678L699.43 97.1293L701.299 91.372C701.375 91.1386 701.374 90.8873 701.298 90.6544C701.221 90.4215 701.072 90.219 700.873 90.0762L695.984 86.5146H702.029C702.272 86.5172 702.509 86.4438 702.708 86.3046C702.907 86.1655 703.058 85.9676 703.138 85.7387L705.008 79.9581L706.878 85.7077C706.959 85.9366 707.11 86.1345 707.309 86.2736C707.508 86.4127 707.745 86.4862 707.988 86.4836H714.032L709.144 90.0762Z" fill="#DBDBDB"/>
<path d="M725.376 84.8542C721.59 82.3479 725.648 78.6467 723.53 75.543C722.079 73.417 718.455 74.1386 716.546 73.0833C714.994 71.6091 714.537 67.939 712.061 67.2251C709.664 66.3328 707.165 69.0718 705.008 69.2891C702.851 69.0796 700.353 66.325 697.932 67.1863C695.457 67.9002 695.022 71.5625 693.447 73.0446C691.561 74.1076 687.938 73.3782 686.464 75.5042C684.912 77.5294 686.712 80.7573 686.27 82.8755C685.339 84.8309 682.002 86.3672 682.095 88.9588C682.01 91.5504 685.331 93.0945 686.27 95.0421C686.712 97.1604 684.896 100.388 686.464 102.413C687.915 104.539 691.538 103.818 693.447 104.873C696.264 108.598 696.295 113.152 702.448 109.637C704.465 108.373 705.551 108.38 707.569 109.637C711.061 111.887 713.675 110.964 715.173 107.1C716.438 102.646 721.117 105.447 723.53 102.444C725.082 100.419 723.281 97.1914 723.724 95.0731C724.132 94.3065 724.695 93.6328 725.376 93.0945C728.666 90.34 728.69 87.5854 725.376 84.8542ZM723.778 91.3719C717.609 96.0973 725.873 101.506 718.843 101.909C712.907 102.313 714.366 105.858 711.363 108.52C709.547 108.652 707.057 106.138 705.008 106.301C702.96 106.138 700.461 108.629 698.653 108.52C697.055 107.612 696.551 104.066 694.813 102.995C693.261 101.668 689.73 102.266 688.372 101.048C687.596 97.1681 690.7 95.0654 686.239 91.3719C680.667 86.7862 690.685 87.2828 688.419 79.7718C688.217 78.6545 687.992 77.3975 688.372 76.8699C689.738 75.6517 693.261 76.2491 694.813 74.9223C696.551 73.8515 697.055 70.2667 698.653 69.3977C700.469 69.258 702.96 71.7798 705.008 71.6168C707.057 71.7798 709.555 69.2891 711.363 69.3977C712.962 70.3055 713.466 73.8515 715.243 74.9223C716.795 76.2491 720.325 75.6517 721.683 76.8699C722.063 77.3975 721.838 78.6545 721.636 79.7718C719.34 87.2906 729.349 86.7862 723.778 91.3719Z" fill="#DBDBDB"/>
<path d="M910.317 87.5018C915.941 87.5018 920.593 82.9195 920.593 77.2262C920.593 71.533 916.011 67.0201 910.317 67.0201C904.694 67.0201 900.111 71.533 900.111 77.2262C900.111 82.9195 904.694 87.5018 910.317 87.5018ZM910.317 69.3113C914.622 69.3113 918.232 72.8522 918.232 77.2262C918.232 81.6003 914.691 85.1412 910.317 85.1412C906.013 85.1412 902.402 81.6003 902.402 77.2262C902.402 72.8522 906.013 69.3113 910.317 69.3113Z" fill="#DBDBDB"/>
<path d="M920.94 92.709C917.885 90.279 914.205 88.9598 910.387 88.9598C906.568 88.9598 902.888 90.279 899.833 92.709C896.848 95.0697 894.557 98.3329 893.238 102.221C892.474 104.373 892.89 106.664 894.14 108.47C895.251 109.997 896.917 110.9 898.653 110.9H922.19C923.926 110.9 925.661 109.997 926.703 108.47C927.952 106.734 928.3 104.373 927.605 102.221C926.217 98.3329 923.995 95.0697 920.94 92.709ZM924.759 107.15C924.064 108.122 923.162 108.608 922.12 108.608H898.653C897.612 108.608 896.709 108.122 896.015 107.15C895.182 105.97 894.973 104.443 895.459 103.054C896.64 99.5826 898.653 96.6665 901.291 94.6531C903.999 92.5008 907.124 91.4593 910.456 91.4593C913.719 91.4593 916.913 92.5702 919.621 94.6531C922.259 96.8054 924.342 99.7214 925.453 103.054C925.87 104.373 925.661 105.97 924.759 107.15Z" fill="#DBDBDB"/>
<path d="M889.211 87.9185C893.099 87.9185 896.154 84.7941 896.154 80.9755C896.154 77.0874 893.029 74.0325 889.211 74.0325C885.323 74.0325 882.268 77.1569 882.268 80.9755C882.198 84.7941 885.323 87.9185 889.211 87.9185ZM889.211 75.56C892.196 75.56 894.626 77.99 894.626 80.9755C894.626 83.961 892.196 86.391 889.211 86.391C886.225 86.391 883.795 83.961 883.795 80.9755C883.795 77.99 886.225 75.56 889.211 75.56Z" fill="#DBDBDB" stroke="#DBDBDB" stroke-width="0.365664"/>
<path d="M930.868 86.3906C934.826 86.3906 938.019 83.1968 938.019 79.2393C938.019 75.2818 934.826 72.0186 930.868 72.0186C926.911 72.0186 923.717 75.2124 923.717 79.1699C923.717 83.1274 926.911 86.3906 930.868 86.3906ZM930.868 73.6849C933.923 73.6849 936.423 76.1844 936.423 79.2393C936.423 82.2942 933.923 84.7937 930.868 84.7937C927.813 84.7937 925.314 82.2942 925.314 79.2393C925.314 76.1844 927.813 73.6849 930.868 73.6849Z" fill="#DBDBDB" stroke="#DBDBDB" stroke-width="0.365664"/>
<path d="M942.81 96.7358C941.838 94.028 940.241 91.7368 938.158 90.0705C935.937 88.4042 933.368 87.4322 930.729 87.4322C928.091 87.4322 925.522 88.3348 923.301 90.0705C922.676 90.5565 922.051 91.1814 921.565 91.7368C921.773 91.8757 922.051 92.084 922.328 92.2228C922.537 92.3617 922.676 92.5006 922.884 92.6394C923.301 92.1534 923.856 91.598 924.342 91.2508C926.217 89.7928 928.438 88.9596 930.729 88.9596C933.021 88.9596 935.242 89.7928 937.117 91.2508C938.922 92.7088 940.45 94.7917 941.213 97.1523C941.561 98.1938 941.422 99.2352 940.866 100.068C940.45 100.763 939.686 101.11 938.992 101.11H928.647C928.716 101.318 928.785 101.526 928.855 101.665C928.994 102.012 929.063 102.36 929.133 102.707H938.922C940.172 102.707 941.352 102.012 942.116 101.04C943.019 99.8601 943.296 98.2632 942.81 96.7358Z" fill="#DBDBDB" stroke="#DBDBDB" stroke-width="0.365664"/>
<path d="M879.352 101.318C878.727 100.555 878.588 99.5132 879.004 98.4717C879.838 96.1111 881.226 94.1671 883.031 92.709C884.837 91.251 887.058 90.4873 889.28 90.4873C891.571 90.4873 893.654 91.251 895.529 92.709C895.945 92.9868 896.362 93.3339 896.709 93.7505C897.056 93.4033 897.473 92.9868 897.889 92.6396C897.473 92.223 896.987 91.737 896.57 91.3899C894.348 89.8624 891.849 88.9598 889.349 88.9598C886.781 88.9598 884.212 89.8624 882.129 91.5287C880.046 93.1256 878.518 95.4168 877.616 98.0551C877.13 99.5132 877.338 101.041 878.171 102.29C878.727 103.332 879.907 103.957 881.087 103.957H891.155C891.155 103.471 891.224 102.915 891.363 102.36H881.087C880.462 102.36 879.768 102.013 879.352 101.318Z" fill="#DBDBDB" stroke="#DBDBDB" stroke-width="0.365664"/>
</svg>
