<svg width="27" height="32" viewBox="0 0 27 32" fill="none" xmlns="http://www.w3.org/2000/svg">
<path d="M13.3063 31.0571C13.2099 31.0571 13.1134 31.0339 13.0242 30.9872C12.9988 30.9737 12.3875 30.6512 11.4448 29.9911C10.6899 29.4681 9.51825 28.5795 8.23956 27.3279C7.02521 26.1435 5.93343 24.8572 4.99526 23.5054C1.24072 18.113 -0.168118 11.7853 0.808533 4.69806C0.833938 4.51332 0.930417 4.3479 1.07408 4.2404C1.21805 4.13387 1.3977 4.09461 1.56948 4.13195C1.597 4.13838 4.30935 4.71511 7.59113 3.66882C9.52948 3.05862 11.2918 1.99818 12.8313 0.516055C13.0566 0.3001 13.3942 0.282403 13.6379 0.473572C13.6494 0.482583 14.8009 1.38177 16.5465 2.29457C17.958 3.03094 20.1271 3.96076 22.4426 4.20472C23.3464 4.30352 24.2404 4.28743 25.0996 4.15805C25.4438 4.10656 25.7586 4.35309 25.8173 4.71419C25.8236 4.75152 25.967 5.64784 26.0154 7.13409C26.071 9.07282 25.9537 12.0859 25.0799 15.4448C25.0712 15.478 25.0603 15.5102 25.0473 15.5411C24.5425 17.4894 23.8324 19.341 22.9368 21.0464C22.5463 21.7921 22.1568 22.4606 21.7467 23.0875C21.7164 23.1406 21.6587 23.2323 21.6012 23.3141L21.528 23.4174C20.5908 24.8193 19.4943 26.1401 18.2785 27.3277C17.2877 28.2926 16.2137 29.1876 15.0847 29.9884C14.5993 30.336 14.1226 30.6552 13.6296 30.9635C13.5298 31.0253 13.4183 31.0571 13.3063 31.0571ZM1.98436 5.56866C1.23581 12.0141 2.59197 17.774 6.02018 22.6977C6.91058 23.9802 7.94739 25.2013 9.10212 26.3277C10.3168 27.517 11.4261 28.3583 12.1429 28.8552C12.6395 29.2027 13.0372 29.4502 13.2888 29.5992C13.6524 29.3646 14.0102 29.1216 14.3746 28.8606C15.4516 28.0963 16.4741 27.2447 17.416 26.3271C18.5656 25.2039 19.6029 23.9548 20.4982 22.616L20.5796 22.5011C20.614 22.4515 20.6509 22.3926 20.6815 22.3405C21.0849 21.7222 21.4524 21.0918 21.8226 20.3847C22.6833 18.7462 23.3627 16.9636 23.842 15.0857C23.8508 15.0512 23.862 15.0178 23.8756 14.9856C24.684 11.8293 24.7929 9.00195 24.7406 7.1784C24.7188 6.5064 24.6759 5.96182 24.6375 5.57886C23.8759 5.64774 23.098 5.64001 22.3147 5.55473C19.8123 5.29146 17.4907 4.29893 15.9845 3.513C14.755 2.87029 13.8142 2.24171 13.3045 1.87903C11.7143 3.31312 9.91717 4.35207 7.9552 4.96967C5.32875 5.80643 3.06708 5.69933 1.98436 5.56866Z" fill="url(#paint0_linear_18_5003)"/>
<path d="M12.0124 22.2809H12.0051C11.1309 22.2781 10.2959 21.9062 9.71127 21.2608L6.07259 17.2411C5.65446 16.7792 5.44145 16.1828 5.47342 15.5611C5.50507 14.9398 5.7776 14.3677 6.24034 13.9506C6.70341 13.5329 7.30133 13.3201 7.92517 13.3526C8.54808 13.3845 9.12165 13.6567 9.53975 14.1186L12.0203 16.8587L18.425 9.87464C18.8454 9.41526 19.4202 9.14721 20.0438 9.11943C20.6622 9.09291 21.2642 9.30791 21.7251 9.72813C22.6747 10.5951 22.7408 12.0717 21.872 13.0196L14.2999 21.2758C13.7143 21.9148 12.8805 22.2809 12.0124 22.2809ZM7.80457 14.6809C7.55673 14.6809 7.32029 14.7712 7.13513 14.9385C6.93668 15.1172 6.81988 15.3622 6.80627 15.6287C6.79266 15.8948 6.88381 16.1502 7.06265 16.3482L10.702 20.3679C11.035 20.7358 11.5107 20.9476 12.0076 20.9495L12.0123 21.615V20.9495C12.5071 20.9495 12.9815 20.7408 13.3154 20.3771L20.8869 12.1208C21.2594 11.7145 21.2309 11.0815 20.8236 10.7099C20.626 10.5296 20.3656 10.4371 20.1032 10.4488C19.8363 10.4605 19.5901 10.5754 19.4097 10.7721L12.5089 18.2973C12.382 18.4352 12.2326 18.5293 12.0142 18.5139C11.8262 18.5132 11.6474 18.4337 11.5214 18.2944L8.54861 15.0106C8.36946 14.812 8.12384 14.6958 7.85701 14.6819C7.83929 14.681 7.82198 14.6809 7.80457 14.6809Z" fill="url(#paint1_linear_18_5003)"/>
<defs>
<linearGradient id="paint0_linear_18_5003" x1="13.2677" y1="0.341309" x2="13.2677" y2="31.0571" gradientUnits="userSpaceOnUse">
<stop stop-color="#8CC8AC"/>
<stop offset="1" stop-color="#2D887C"/>
</linearGradient>
<linearGradient id="paint1_linear_18_5003" x1="13.2677" y1="0.341309" x2="13.2677" y2="31.0571" gradientUnits="userSpaceOnUse">
<stop stop-color="#8CC8AC"/>
<stop offset="1" stop-color="#2D887C"/>
</linearGradient>
</defs>
</svg>
