<svg width="40" height="39" viewBox="0 0 40 39" fill="none" xmlns="http://www.w3.org/2000/svg">
<rect x="6.08574" y="4.54766" width="31.8984" height="32.6073" rx="7.44297" stroke="#5956E9" stroke-width="2.12656"/>
<rect x="12.8198" y="24.0411" width="2.12656" height="7.7974" rx="1.06328" fill="#E541ED"/>
<rect x="17.7817" y="20.4967" width="2.12656" height="11.3417" rx="1.06328" fill="#E541ED"/>
<rect x="23.4526" y="16.2437" width="2.12656" height="15.5948" rx="1.06328" fill="#E541ED"/>
<rect x="29.1235" y="11.9907" width="2.12656" height="19.8479" rx="1.06328" fill="#E541ED"/>
<circle cx="8.56693" cy="8.4462" r="7.7974" fill="#38D4FF"/>
<path fill-rule="evenodd" clip-rule="evenodd" d="M3.80234 10.1242L8.0905 5.80937C8.35364 5.54459 8.78028 5.54459 9.04342 5.80937L13.3316 10.1242C13.5947 10.389 13.5947 10.8183 13.3316 11.083C13.0684 11.3478 12.6418 11.3478 12.3787 11.083L8.56696 7.24764L4.75526 11.083C4.49212 11.3478 4.06548 11.3478 3.80234 11.083C3.53919 10.8183 3.53919 10.389 3.80234 10.1242Z" fill="#5956E9"/>
</svg>
