<svg width="804" height="75" viewBox="0 0 804 75" fill="none" xmlns="http://www.w3.org/2000/svg">
<path d="M9.15377 21.9468V22.0826L8.58375 22.2185V28.2382L9.15377 28.3741V28.5099H6.45133V28.3741L7.02139 28.2382V23.1068L4.78343 28.604H4.49839L1.59537 23.1068V28.0919L2.35543 28.3741V28.5099H0.550293V28.3741L1.31036 28.0919V22.2185L0.740301 22.0826V21.9468H1.92262C2.10207 21.9468 2.26042 21.9677 2.3871 22.0095C2.51378 22.0513 2.64047 22.1035 2.73548 22.1767C2.84105 22.2499 2.9255 22.3335 2.99939 22.4275C3.07329 22.5216 3.13663 22.6365 3.19997 22.7515L5.26902 26.6706L6.85248 22.7515C6.90526 22.6156 6.95806 22.5007 7.03195 22.4066C7.09529 22.3126 7.17972 22.229 7.27473 22.1558C7.36974 22.0826 7.48588 22.0304 7.62311 21.999C7.76034 21.9677 7.92924 21.9468 8.14037 21.9468H9.15377Z" fill="#ABABAB"/>
<path d="M12.5315 23.6919C12.9221 23.6919 13.281 23.7441 13.5871 23.8591C13.8933 23.9741 14.1572 24.1413 14.3789 24.3503C14.6005 24.5698 14.7589 24.831 14.875 25.1341C14.9911 25.4372 15.0439 25.7925 15.0439 26.1792C15.0439 26.5659 14.9911 26.9212 14.875 27.2243C14.7589 27.5274 14.59 27.7886 14.3789 28.0081C14.1572 28.2276 13.8933 28.3843 13.5871 28.4993C13.281 28.6143 12.9221 28.6665 12.5315 28.6665C12.1409 28.6665 11.782 28.6143 11.4758 28.4993C11.1697 28.3843 10.9058 28.2171 10.6841 28.0081C10.4624 27.7886 10.3041 27.5274 10.1879 27.2243C10.0718 26.9212 10.019 26.5659 10.019 26.1792C10.019 25.7925 10.0718 25.4372 10.1879 25.1341C10.3041 24.831 10.473 24.5698 10.6841 24.3503C10.9058 24.1308 11.1697 23.9741 11.4758 23.8591C11.782 23.7441 12.1303 23.6919 12.5315 23.6919ZM12.5315 28.4888C12.637 28.4888 12.7426 28.4575 12.8587 28.3843C12.9643 28.3112 13.0593 28.1962 13.1437 28.0186C13.2282 27.8409 13.3021 27.611 13.3549 27.3183C13.4077 27.0153 13.4393 26.639 13.4393 26.1897C13.4393 25.7298 13.4077 25.3536 13.3549 25.061C13.3021 24.7683 13.2282 24.528 13.1437 24.3607C13.0593 24.1935 12.9643 24.0681 12.8587 23.995C12.7532 23.9218 12.6476 23.8905 12.5315 23.8905C12.4259 23.8905 12.3204 23.9218 12.2042 23.995C12.0987 24.0681 12.0036 24.1831 11.9192 24.3607C11.8347 24.5384 11.7609 24.7683 11.7081 25.061C11.6553 25.364 11.6236 25.7403 11.6236 26.1897C11.6236 26.6495 11.6553 27.0257 11.7081 27.3183C11.7609 27.611 11.8347 27.8513 11.9192 28.0186C12.0036 28.1858 12.0987 28.3112 12.2042 28.3843C12.3098 28.447 12.4154 28.4888 12.5315 28.4888Z" fill="#ABABAB"/>
<path d="M19.6577 21.9468C20.2277 21.9468 20.5127 22.229 20.5127 22.7933V28.2486L21.0828 28.3845V28.5204H20.2277C19.9955 28.5204 19.816 28.489 19.6788 28.4159C19.5415 28.3427 19.4254 28.2591 19.3515 28.1755C19.2565 28.071 19.1826 27.9456 19.1404 27.8202C19.056 27.9874 18.9504 28.1232 18.8237 28.2486C18.7181 28.3532 18.5703 28.4472 18.3909 28.5413C18.2114 28.6353 18.0003 28.6771 17.7575 28.6771C17.483 28.6771 17.2297 28.6249 16.9974 28.5204C16.7546 28.4159 16.5541 28.2591 16.3852 28.0501C16.2163 27.8411 16.0685 27.5798 15.9735 27.2767C15.8679 26.9632 15.8257 26.6079 15.8257 26.1898C15.8257 25.7718 15.8785 25.4165 15.9735 25.1029C16.0791 24.7894 16.2163 24.5386 16.4063 24.3296C16.5857 24.1206 16.8074 23.9638 17.0608 23.8593C17.3142 23.7548 17.5992 23.7025 17.9159 23.7025C18.0848 23.7025 18.2326 23.7234 18.3698 23.7548C18.507 23.7966 18.6231 23.8384 18.7181 23.8906C18.8343 23.9429 18.9293 24.0056 19.0137 24.0788V22.2499L18.4437 22.114V21.9781H19.6577V21.9468ZM18.9926 24.3505C18.9187 24.2773 18.8554 24.2146 18.7709 24.1624C18.697 24.1101 18.6231 24.0683 18.5387 24.0265C18.4542 23.9847 18.3698 23.9742 18.2748 23.9742C18.1587 23.9742 18.0425 24.0056 17.937 24.0683C17.8314 24.131 17.7469 24.2355 17.6625 24.3923C17.5886 24.549 17.5253 24.779 17.4831 25.0611C17.4408 25.3538 17.4197 25.7195 17.4197 26.1794C17.4197 26.6288 17.4408 26.9841 17.4831 27.2663C17.5253 27.5484 17.5781 27.7679 17.652 27.9247C17.7153 28.0814 17.7892 28.1964 17.8842 28.2486C17.9687 28.3009 18.0531 28.3323 18.1375 28.3323C18.2853 28.3323 18.412 28.2905 18.5176 28.2173C18.6231 28.1441 18.7076 28.0501 18.7815 27.956C18.8659 27.8411 18.9398 27.7157 19.0032 27.5798V24.3505H18.9926Z" fill="#ABABAB"/>
<path d="M24.26 28.6775C23.4472 28.6775 22.8138 28.458 22.3705 28.0191C21.9165 27.5802 21.6948 26.9635 21.6948 26.1902C21.6948 25.8035 21.7476 25.4482 21.8637 25.1451C21.9799 24.842 22.1382 24.5808 22.3388 24.3613C22.5394 24.1418 22.7821 23.9851 23.0777 23.8701C23.3627 23.7551 23.6794 23.7029 24.0278 23.7029C24.3867 23.7029 24.7034 23.7551 24.9779 23.8492C25.2629 23.9537 25.4951 24.0896 25.6957 24.2568C25.8963 24.424 26.0441 24.6226 26.1496 24.8525C26.2552 25.0824 26.308 25.3228 26.308 25.584C26.308 25.6676 26.308 25.7513 26.2974 25.814C26.2869 25.8767 26.2763 25.9394 26.2658 25.9916C26.2447 26.0543 26.2341 26.1066 26.213 26.1484C25.9385 26.2006 25.6429 26.2529 25.3262 26.2842C25.0623 26.326 24.7562 26.3574 24.4078 26.3783C24.0595 26.3992 23.7006 26.4201 23.3205 26.4201C23.3205 26.8068 23.3522 27.1308 23.405 27.392C23.4577 27.6533 23.5422 27.8623 23.6372 28.0086C23.7428 28.1654 23.8589 28.2699 23.9961 28.3326C24.1334 28.3953 24.2917 28.4267 24.4501 28.4267C24.6401 28.4267 24.8195 28.3953 24.9884 28.3222C25.1573 28.249 25.3051 28.1654 25.4212 28.0504C25.5479 27.9355 25.6429 27.7996 25.7168 27.6533C25.7907 27.507 25.8224 27.3607 25.8224 27.2039H26.0546C26.0546 27.392 26.0124 27.5697 25.928 27.7474C25.8435 27.925 25.7168 28.0818 25.5585 28.2177C25.4001 28.3535 25.2101 28.458 24.9884 28.5416C24.7773 28.6357 24.5345 28.6775 24.26 28.6775ZM23.31 26.1797C23.5211 26.1797 23.7111 26.1797 23.88 26.1693C24.0489 26.1588 24.1861 26.1484 24.3023 26.1379C24.4395 26.1275 24.5451 26.1066 24.6401 26.0961C24.6506 26.0334 24.6718 25.9603 24.6823 25.8871C24.6929 25.814 24.7034 25.7408 24.714 25.6572C24.7245 25.5736 24.7245 25.4795 24.7245 25.3855C24.7245 25.1033 24.7034 24.8629 24.6612 24.6748C24.619 24.4867 24.5662 24.3299 24.4923 24.2045C24.4289 24.0896 24.355 23.9955 24.26 23.9537C24.165 23.9119 24.0911 23.8805 24.0067 23.8805C23.9222 23.8805 23.8378 23.9119 23.7533 23.9746C23.6689 24.0373 23.595 24.1523 23.5211 24.309C23.4578 24.4762 23.3944 24.7062 23.3522 25.0092C23.31 25.3123 23.31 25.699 23.31 26.1797Z" fill="#ABABAB"/>
<path d="M30.2982 24.0158C30.1082 24.0158 29.9393 24.0576 29.7915 24.1308C29.6437 24.2039 29.517 24.298 29.4114 24.392C29.2953 24.507 29.2003 24.6324 29.1053 24.7683V28.2484L29.6753 28.3843V28.5201H27.0151V28.3843L27.5852 28.2484V24.1099L27.0151 23.974V23.8381H27.8702C28.0919 23.8381 28.2713 23.8799 28.4191 23.9531C28.5564 24.0263 28.6725 24.1099 28.7569 24.1935C28.8519 24.298 28.9259 24.4129 28.9681 24.5384C29.0631 24.4025 29.1792 24.2771 29.3164 24.1621C29.4326 24.0681 29.5804 23.9845 29.7598 23.9008C29.9393 23.8172 30.1398 23.7859 30.3826 23.7859C30.7204 23.7859 30.9738 23.8695 31.1427 24.0158C31.3116 24.1726 31.3855 24.392 31.3855 24.6742C31.3855 24.8832 31.3221 25.0609 31.1955 25.1863C31.0688 25.3117 30.8893 25.3744 30.6782 25.3744C30.6254 25.3744 30.5832 25.3744 30.5304 25.3744C30.4776 25.3744 30.446 25.364 30.4143 25.364C30.3721 25.3535 30.3298 25.3535 30.2982 25.3326V24.0158Z" fill="#ABABAB"/>
<path d="M35.4707 25.2388C35.4707 25.0298 35.4496 24.8417 35.4073 24.6849C35.3651 24.5282 35.3124 24.4028 35.2385 24.3087C35.1751 24.2042 35.1012 24.131 35.0062 24.0892C34.9218 24.0474 34.8373 24.0161 34.7528 24.0161C34.605 24.0161 34.4784 24.0579 34.3728 24.131C34.2673 24.2042 34.1722 24.2982 34.1089 24.3923C34.0245 24.5073 33.9611 24.6327 33.8978 24.7685V28.2487L34.4678 28.3845V28.5204H31.8076V28.3845L32.3776 28.2487V24.1101L31.8076 23.9743V23.8384H32.6627C32.8844 23.8384 33.0638 23.8802 33.2116 23.9534C33.3488 24.0265 33.465 24.1101 33.5494 24.1937C33.6444 24.2982 33.7183 24.4132 33.7605 24.5386C33.845 24.3818 33.9506 24.2355 34.0772 24.1101C34.1828 24.0056 34.3306 23.9116 34.4995 23.8175C34.6684 23.7234 34.8901 23.6816 35.1434 23.6816C35.4179 23.6816 35.6713 23.7234 35.8929 23.8175C36.1252 23.9011 36.3152 24.0265 36.4735 24.1624C36.6319 24.3087 36.7586 24.4655 36.8536 24.6536C36.9486 24.8417 36.9908 25.0298 36.9908 25.2284V28.2382L37.5608 28.3741V28.5099H36.3258C35.7557 28.5099 35.4707 28.2278 35.4707 27.6634V25.2388Z" fill="#ABABAB"/>
<path d="M1.55322 35.1251V34.7384H8.88992V35.1251L7.34869 35.5118V43.4022H12.8802V35.5118L11.339 35.1251V34.7384H18.6757V35.1251L17.1345 35.5118V51.8151L18.6757 52.2018V52.5885H11.339V52.1913L12.8802 51.8047V44.0397H7.34869V51.8047L8.88992 52.1913V52.578H1.55322V52.1913L3.09445 51.8047V35.5013L1.55322 35.1251Z" fill="#ABABAB"/>
<path d="M27.796 39.4519C28.8622 39.4519 29.8123 39.6087 30.6568 39.9117C31.5013 40.2148 32.2086 40.6642 32.7997 41.2495C33.3909 41.8347 33.8448 42.5454 34.151 43.3814C34.4571 44.2175 34.6154 45.1581 34.6154 46.2136C34.6154 47.2691 34.4571 48.2097 34.151 49.0458C33.8448 49.8819 33.3909 50.5821 32.7997 51.1673C32.2086 51.7526 31.4907 52.202 30.6568 52.505C29.8123 52.8081 28.8622 52.9649 27.796 52.9649C26.7298 52.9649 25.7797 52.8081 24.9352 52.505C24.0907 52.202 23.3834 51.7526 22.7923 51.1673C22.2011 50.5821 21.7472 49.8714 21.441 49.0458C21.1349 48.2097 20.9766 47.2691 20.9766 46.2136C20.9766 45.1581 21.1349 44.2175 21.441 43.3814C21.7472 42.5454 22.2011 41.8452 22.7923 41.2495C23.3834 40.6538 24.1013 40.2148 24.9352 39.9117C25.7797 39.6087 26.7298 39.4519 27.796 39.4519ZM27.796 52.4423C28.0916 52.4423 28.3766 52.3483 28.6722 52.1602C28.9678 51.972 29.2211 51.6481 29.4534 51.1778C29.6856 50.7075 29.8756 50.07 30.0234 49.2653C30.1712 48.4605 30.2451 47.4364 30.2451 46.1927C30.2451 44.9491 30.1712 43.9249 30.0234 43.1202C29.8756 42.3154 29.6856 41.6779 29.4534 41.2076C29.2211 40.7374 28.9572 40.4134 28.6722 40.2253C28.3872 40.0372 28.0916 39.9431 27.796 39.9431C27.5004 39.9431 27.2154 40.0372 26.9198 40.2253C26.6243 40.4134 26.3709 40.7374 26.1386 41.2076C25.9064 41.6779 25.7164 42.3154 25.5686 43.1202C25.4208 43.9249 25.3469 44.9491 25.3469 46.1927C25.3469 47.4364 25.4208 48.4605 25.5686 49.2653C25.7164 50.07 25.9064 50.7075 26.1386 51.1778C26.3709 51.6481 26.6348 51.972 26.9198 52.1602C27.2154 52.3483 27.5004 52.4423 27.796 52.4423Z" fill="#ABABAB"/>
<path d="M53.9022 43.6533C53.9022 43.0472 53.8495 42.5246 53.7439 42.117C53.6383 41.7094 53.5117 41.3646 53.3427 41.1033C53.1738 40.842 52.9944 40.6539 52.8044 40.5285C52.6038 40.4135 52.4138 40.3508 52.2238 40.3508C51.8965 40.3508 51.6115 40.4553 51.3581 40.6644C51.1048 40.8734 50.8937 41.1137 50.7036 41.3646C50.5031 41.6676 50.313 42.0125 50.1653 42.3783V51.805L51.717 52.1917V52.5783H44.5176V52.1917L46.0588 51.805V43.6533C46.0588 43.0472 46.006 42.5246 45.9004 42.117C45.7949 41.7094 45.6682 41.3646 45.4993 41.1033C45.3304 40.842 45.151 40.6539 44.9609 40.5285C44.7604 40.4135 44.5703 40.3508 44.3803 40.3508C44.0531 40.3508 43.7681 40.4553 43.5147 40.6644C43.2614 40.8734 43.0502 41.1137 42.8602 41.3646C42.6491 41.6676 42.4696 42.0125 42.3218 42.3783V51.805L43.8631 52.1917V52.5783H36.6636V52.1917L38.2048 51.805V40.6016L36.6636 40.215V39.8283H38.9754C39.5772 39.8283 40.0733 39.9328 40.4533 40.1314C40.8439 40.3299 41.1395 40.5598 41.3718 40.7898C41.6251 41.0824 41.8151 41.3959 41.9418 41.7303C42.1635 41.3019 42.4379 40.9256 42.7652 40.5807C43.0608 40.2881 43.4197 40.0269 43.842 39.7865C44.2748 39.5461 44.792 39.4312 45.4149 39.4312C46.4388 39.4312 47.3361 39.6611 48.0751 40.1105C48.8246 40.5598 49.3946 41.1451 49.7852 41.8558C50.0069 41.4168 50.2814 41.0197 50.6086 40.6539C50.9042 40.3508 51.2631 40.0687 51.6854 39.8178C52.1182 39.567 52.6355 39.4312 53.2583 39.4312C53.9656 39.4312 54.599 39.5461 55.1901 39.7656C55.7707 39.985 56.2774 40.2881 56.6997 40.6748C57.1219 41.0615 57.4492 41.5004 57.6814 42.0125C57.9137 42.5246 58.0298 43.0681 58.0298 43.6428V51.7945L59.571 52.1812V52.5679H56.2246C54.6834 52.5679 53.9128 51.805 53.9128 50.2791V43.6533H53.9022Z" fill="#ABABAB"/>
<path d="M68.0585 52.9549C65.8627 52.9549 64.1526 52.3592 62.9386 51.1573C61.7246 49.9555 61.1123 48.3147 61.1123 46.2036C61.1123 45.1481 61.2707 44.2075 61.5768 43.3714C61.8829 42.5353 62.3157 41.8351 62.8647 41.2394C63.4136 40.6542 64.0787 40.2048 64.8599 39.9017C65.641 39.5987 66.4961 39.4419 67.4145 39.4419C68.3751 39.4419 69.2408 39.5778 70.0008 39.8495C70.7609 40.1212 71.4154 40.487 71.9432 40.9468C72.471 41.4067 72.8827 41.9501 73.1678 42.5667C73.4528 43.1833 73.59 43.8417 73.59 44.5419C73.59 44.7823 73.5794 44.9913 73.5478 45.169C73.5161 45.3466 73.495 45.5034 73.4528 45.6393C73.4 45.8065 73.3578 45.9528 73.3261 46.0677C72.566 46.2245 71.7743 46.3499 70.9298 46.4544C70.212 46.5589 69.378 46.6425 68.4385 46.7261C67.4989 46.7993 66.5067 46.8411 65.4827 46.8411C65.4827 47.8966 65.5566 48.7745 65.7149 49.4747C65.8733 50.1749 66.0844 50.7393 66.3589 51.1573C66.6333 51.5753 66.9606 51.868 67.3406 52.0456C67.7206 52.2233 68.1323 52.3174 68.5757 52.3174C69.093 52.3174 69.5786 52.2233 70.0325 52.0352C70.4864 51.8471 70.877 51.5962 71.2148 51.2827C71.5526 50.9692 71.8165 50.6139 72.0171 50.2167C72.2177 49.8196 72.3127 49.412 72.3127 49.0044H72.9566C72.9566 49.5165 72.8405 50.0077 72.6083 50.478C72.376 50.9587 72.0488 51.3768 71.616 51.7426C71.1831 52.1083 70.6764 52.401 70.0747 52.6204C69.4625 52.8399 68.7868 52.9549 68.0585 52.9549ZM65.4827 46.2036C66.0633 46.2036 66.5805 46.1932 67.0239 46.1618C67.4673 46.1304 67.8473 46.1095 68.1535 46.0782C68.5124 46.0468 68.8185 46.005 69.0824 45.9528C69.1141 45.7856 69.1563 45.5975 69.2091 45.3884C69.2408 45.2003 69.2724 44.9913 69.2935 44.7614C69.3146 44.5315 69.3358 44.2911 69.3358 44.0403C69.3358 43.2774 69.2724 42.6399 69.1563 42.1173C69.0402 41.5948 68.8818 41.1767 68.7024 40.8528C68.5229 40.5288 68.3118 40.2989 68.0901 40.163C67.8579 40.0271 67.6256 39.954 67.4039 39.954C67.1822 39.954 66.95 40.0376 66.7178 40.1944C66.4855 40.3616 66.285 40.6646 66.1055 41.114C65.926 41.5634 65.7783 42.2009 65.6516 43.0161C65.546 43.8313 65.4827 44.8972 65.4827 46.2036Z" fill="#ABABAB"/>
<path d="M86.2258 52.3169V41.981L76.9995 34.749V52.3169H86.2258Z" fill="#ABABAB"/>
<path d="M97.6376 52.3169V41.981L88.5591 34.749V52.3169H97.6376Z" fill="#ABABAB"/>
<g style="mix-blend-mode:multiply">
<path d="M214.472 74.3893C235.076 74.3893 251.778 57.8537 251.778 37.4559C251.778 17.0582 235.076 0.522583 214.472 0.522583C193.868 0.522583 177.166 17.0582 177.166 37.4559C177.166 57.8537 193.868 74.3893 214.472 74.3893Z" fill="#F9F9F9"/>
<path d="M214.472 74.9118C193.612 74.9118 176.638 58.1068 176.638 37.4559C176.638 16.805 193.612 0 214.472 0C235.331 0 252.306 16.805 252.306 37.4559C252.306 58.1068 235.331 74.9118 214.472 74.9118ZM214.472 1.04509C194.193 1.04509 177.693 17.3798 177.693 37.4559C177.693 57.532 194.193 73.8667 214.472 73.8667C234.751 73.8667 251.251 57.532 251.251 37.4559C251.251 17.3798 234.751 1.04509 214.472 1.04509Z" fill="#ABABAB"/>
<path d="M219.792 4.2742C220.046 4.2951 220.267 4.30555 220.447 4.30555L220.426 4.47276C220.13 4.51457 219.877 4.73403 219.676 5.15207L217.164 10.1267L217.09 10.1162L217.026 10.1058L215.432 4.55637C215.327 4.19059 215.147 3.99202 214.894 3.96067L214.915 3.79346C215.147 3.83526 215.454 3.86661 215.834 3.90842C216.33 3.95022 216.699 3.98157 216.942 3.98157L216.921 4.14879C216.699 4.13834 216.541 4.14879 216.446 4.18014C216.351 4.21149 216.298 4.2951 216.287 4.39961C216.277 4.49366 216.298 4.62953 216.351 4.80719L217.523 9.05024L219.264 5.58055C219.412 5.29838 219.486 5.06846 219.507 4.90125C219.528 4.72358 219.476 4.58772 219.359 4.49366C219.243 4.39961 219.053 4.34735 218.8 4.316L218.821 4.14879C219.127 4.20104 219.454 4.24284 219.792 4.2742Z" fill="#ABABAB"/>
<path d="M226.886 6.47914C226.781 6.47914 226.696 6.52094 226.633 6.60455C226.57 6.68815 226.496 6.82401 226.422 7.02258L224.912 10.9939C224.839 11.1925 224.796 11.3492 224.796 11.4537C224.796 11.5583 224.828 11.6419 224.902 11.7046C224.976 11.7673 225.113 11.8404 225.303 11.924L225.24 12.0808C224.997 11.9763 224.659 11.8404 224.226 11.6732C223.762 11.4956 223.413 11.3806 223.181 11.3074L223.244 11.1507C223.445 11.2134 223.593 11.2447 223.688 11.2447C223.783 11.2447 223.878 11.2029 223.941 11.1193C224.005 11.0357 224.078 10.8999 224.152 10.7013L225.662 6.72996C225.736 6.53139 225.778 6.37463 225.778 6.27012C225.778 6.16561 225.746 6.082 225.672 6.0193C225.599 5.95659 225.461 5.88344 225.271 5.79983L225.335 5.64307C225.556 5.73712 225.894 5.87299 226.359 6.05065C226.791 6.21786 227.14 6.33282 227.393 6.40598L227.33 6.56274C227.14 6.50004 226.992 6.46868 226.886 6.47914Z" fill="#ABABAB"/>
<path d="M236.282 12.0078C236.176 11.9869 236.071 12.0183 235.976 12.081C235.881 12.1437 235.764 12.2691 235.638 12.4468L232.576 16.5539L232.418 16.439L232.83 9.83404L230.117 13.4709C229.99 13.6486 229.906 13.7949 229.863 13.9099C229.821 14.0248 229.842 14.1293 229.895 14.2339C229.948 14.3384 230.075 14.4533 230.254 14.5996L230.148 14.7355C229.99 14.5996 229.758 14.422 229.452 14.192C229.177 13.9935 228.956 13.8367 228.787 13.7427L228.892 13.6068C229.061 13.7218 229.198 13.7845 229.304 13.7949C229.409 13.8158 229.515 13.7845 229.61 13.7218C229.705 13.6486 229.821 13.5336 229.948 13.356L232.439 10.0117C232.566 9.83404 232.65 9.69818 232.682 9.60412C232.714 9.51006 232.703 9.416 232.65 9.3324C232.597 9.24879 232.492 9.14428 232.323 9.00842L232.429 8.87256C232.566 8.99797 232.777 9.16518 233.062 9.36375C233.273 9.52051 233.453 9.64592 233.621 9.73998L233.284 15.2789L235.479 12.3318C235.606 12.1541 235.701 12.0078 235.733 11.8929C235.764 11.7779 235.754 11.6734 235.701 11.5689C235.648 11.4644 235.522 11.339 235.342 11.2031L235.448 11.0672C235.606 11.2031 235.838 11.3808 236.144 11.6107C236.419 11.8093 236.641 11.966 236.81 12.0601L236.704 12.1959C236.524 12.0914 236.387 12.0183 236.282 12.0078Z" fill="#ABABAB"/>
<path d="M239.818 16.7214C240.092 16.5228 240.377 16.3033 240.683 16.0316C240.947 16.4287 241.412 17.0872 242.077 18.0173C242.742 18.937 243.217 19.5849 243.502 19.9611C243.143 20.1702 242.837 20.3583 242.563 20.5464C242.33 20.7136 242.14 20.8599 242.003 20.9749L241.887 20.8181C242.225 20.5255 242.457 20.2851 242.594 20.1075C242.731 19.9298 242.784 19.7417 242.774 19.5431C242.763 19.3445 242.636 19.1042 242.436 18.8115L242.161 18.4353L238.16 21.257C237.97 21.3929 237.833 21.5183 237.77 21.6124C237.707 21.7064 237.685 21.8214 237.728 21.9468C237.759 22.0618 237.854 22.229 237.992 22.438L237.854 22.5425C237.696 22.2917 237.453 21.9364 237.137 21.5079C236.799 21.0376 236.545 20.7032 236.376 20.4941L236.514 20.3896C236.672 20.5882 236.799 20.7241 236.904 20.7972C237.01 20.8704 237.115 20.8913 237.232 20.8599C237.348 20.8286 237.506 20.745 237.696 20.6091L241.697 17.7874L241.422 17.4111C241.211 17.1185 241.021 16.9408 240.842 16.8572C240.662 16.7736 240.462 16.7632 240.251 16.8363C240.04 16.9095 239.733 17.0454 239.343 17.2648L239.227 17.1081C239.385 17.0244 239.575 16.899 239.818 16.7214Z" fill="#ABABAB"/>
<path d="M241.844 31.2272L241.675 31.2794C241.612 31.0495 241.528 30.7569 241.401 30.4016C241.243 29.9417 241.116 29.5969 241.021 29.3669L241.19 29.3147C241.264 29.5132 241.348 29.6596 241.412 29.7327C241.485 29.8059 241.58 29.8268 241.686 29.785C241.781 29.7536 241.897 29.6805 242.034 29.5655L243.206 28.6145L242.541 26.6602L241.559 26.6184C241.243 26.5975 241 26.6184 240.831 26.6811C240.662 26.7438 240.556 26.8378 240.514 26.9737C240.483 27.1095 240.504 27.3081 240.578 27.5485L240.409 27.6007C240.324 27.2872 240.219 26.9737 240.113 26.6602C240.029 26.4198 239.955 26.2212 239.881 26.0645L240.05 26.0122C240.198 26.263 240.514 26.3989 240.979 26.4093L246.595 26.6602L246.637 26.7856L242.161 30.4747C241.887 30.736 241.781 30.9764 241.844 31.2272ZM245.507 26.7856L242.742 26.6706L243.364 28.51L245.507 26.7856Z" fill="#ABABAB"/>
<path d="M242.615 39.2214C242.721 39.1796 242.774 39.1273 242.774 39.0542C242.774 39.0124 242.763 38.981 242.742 38.9497C242.721 38.9183 242.678 38.8556 242.615 38.772C242.457 38.5734 242.341 38.3644 242.256 38.1554C242.172 37.9464 242.13 37.706 242.13 37.4447C242.119 36.8595 242.235 36.3579 242.467 35.9294C242.71 35.5009 243.048 35.1769 243.512 34.947C243.966 34.7171 244.515 34.6021 245.159 34.5917C245.824 34.5812 246.405 34.6857 246.901 34.9156C247.397 35.1456 247.788 35.4591 248.062 35.8771C248.337 36.2951 248.485 36.7654 248.485 37.288C248.485 37.5179 248.463 37.7269 248.421 37.9046C248.379 38.0822 248.316 38.239 248.242 38.3749C248.168 38.5107 248.073 38.6675 247.946 38.8347C247.893 38.9079 247.862 38.9706 247.862 39.0124C247.862 39.1169 248.041 39.19 248.39 39.2214V39.42C248.02 39.3991 247.355 39.3991 246.405 39.42V39.2214C246.711 39.1691 246.964 39.1064 247.165 39.0437C247.366 38.981 247.534 38.887 247.682 38.772C247.883 38.6048 248.052 38.3853 248.168 38.1136C248.284 37.8419 248.337 37.5701 248.337 37.2775C248.326 36.9013 248.2 36.5773 247.946 36.2951C247.693 36.013 247.334 35.804 246.88 35.6472C246.415 35.5009 245.888 35.4277 245.275 35.4382C244.579 35.4486 244.019 35.5322 243.576 35.689C243.132 35.8458 242.816 36.0757 242.605 36.3788C242.393 36.6818 242.298 37.0685 242.309 37.5388C242.32 37.8837 242.415 38.1763 242.594 38.4271C242.668 38.5316 242.731 38.5943 242.805 38.6257C242.869 38.657 242.964 38.6675 243.08 38.6675L243.914 38.657C244.156 38.657 244.325 38.6257 244.441 38.5839C244.547 38.5421 244.631 38.4585 244.663 38.3331C244.705 38.2181 244.726 38.03 244.726 37.7792H244.895C244.885 38.0613 244.874 38.4585 244.885 38.9915C244.895 39.3886 244.906 39.6917 244.927 39.8798H244.758C244.748 39.7439 244.716 39.6499 244.684 39.5976C244.653 39.5454 244.579 39.5036 244.484 39.4827C244.389 39.4618 244.23 39.4513 244.009 39.4618L242.298 39.4931V39.3259C242.393 39.2841 242.51 39.2632 242.615 39.2214Z" fill="#ABABAB"/>
<path d="M241.359 48.1154C241.053 48.0213 240.694 47.9273 240.282 47.8437C240.419 47.4779 240.62 46.8613 240.905 45.9834C241.243 44.9383 241.486 44.1441 241.633 43.6111L241.802 43.6633C241.75 43.8619 241.728 44.0082 241.728 44.1127C241.739 44.2172 241.781 44.2904 241.866 44.3531C241.95 44.4158 242.098 44.4785 242.299 44.5412L246.384 45.8162C246.595 45.8789 246.743 45.9103 246.848 45.9103C246.954 45.9103 247.038 45.8685 247.102 45.7849C247.165 45.7013 247.228 45.5654 247.302 45.3773L247.471 45.4295C247.281 45.9625 247.028 46.7463 246.69 47.7914C246.437 48.5857 246.257 49.1605 246.173 49.5054C245.824 49.3591 245.508 49.2336 245.212 49.15C245.001 49.0873 244.821 49.0351 244.695 49.0142L244.758 48.8261C245.128 48.8992 245.413 48.9306 245.603 48.9306C245.793 48.9306 245.951 48.8679 246.078 48.7425C246.204 48.6275 246.31 48.4185 246.405 48.1363L246.616 47.457C246.679 47.2584 246.711 47.1121 246.701 47.0181C246.69 46.924 246.658 46.8404 246.574 46.7777C246.489 46.715 246.352 46.6523 246.141 46.5896L244.199 45.9834L244.03 46.5269C243.945 46.7986 243.966 47.0076 244.104 47.1539C244.241 47.3002 244.389 47.4047 244.558 47.4779C244.726 47.5511 244.832 47.6033 244.874 47.6242L244.811 47.8123C244.547 47.7078 244.294 47.6138 244.04 47.5406L243.65 47.4257C243.375 47.342 242.974 47.2271 242.467 47.1121L242.531 46.924C242.573 46.9345 242.71 46.9554 242.942 47.0076C243.175 47.0494 243.375 47.0285 243.534 46.9449C243.692 46.8613 243.798 46.7045 243.871 46.4851L244.04 45.9416L242.056 45.325C241.845 45.2623 241.697 45.231 241.591 45.231C241.486 45.231 241.401 45.2728 241.348 45.3564C241.285 45.44 241.222 45.5758 241.158 45.7744L240.968 46.3701C240.863 46.715 240.821 46.9867 240.863 47.1853C240.894 47.3943 241 47.5615 241.18 47.7078C241.359 47.8437 241.633 48.0004 242.003 48.1677L241.94 48.3558C241.813 48.2617 241.612 48.199 241.359 48.1154Z" fill="#ABABAB"/>
<path d="M238.35 60.9385C238.392 60.8444 238.382 60.7504 238.34 60.6563C238.297 60.5623 238.192 60.4473 238.034 60.2905L234.93 57.3539C234.772 57.2075 234.645 57.1135 234.55 57.0717C234.455 57.0299 234.36 57.0299 234.265 57.0717C234.17 57.1135 234.054 57.2075 233.906 57.3539L233.779 57.2389C233.98 57.0612 234.233 56.8 234.56 56.476C234.898 56.1207 235.152 55.8489 235.31 55.6713L235.437 55.7862C235.299 55.943 235.215 56.0684 235.173 56.152C235.131 56.2461 235.141 56.3401 235.183 56.4342C235.226 56.5282 235.331 56.6432 235.489 56.8L238.593 59.7366C238.751 59.883 238.878 59.977 238.973 60.0188C239.068 60.0606 239.163 60.0606 239.258 60.0188C239.353 59.977 239.469 59.883 239.617 59.7366L239.744 59.8516C239.564 60.0084 239.3 60.2696 238.963 60.625C238.635 60.9594 238.392 61.2311 238.224 61.4297L238.097 61.3147C238.224 61.158 238.308 61.0326 238.35 60.9385Z" fill="#ABABAB"/>
<path d="M229.557 67.314C229.62 67.22 229.631 67.1259 229.609 67.0109C229.588 66.896 229.514 66.7497 229.398 66.5511L226.78 62.1513L226.949 62.0468L232.924 65.0044L230.612 61.1167C230.496 60.9285 230.401 60.7927 230.306 60.7195C230.211 60.6464 230.106 60.615 229.989 60.6255C229.873 60.6359 229.715 60.6986 229.514 60.8031L229.419 60.6568C229.609 60.5732 229.863 60.4269 230.19 60.2388C230.486 60.0611 230.707 59.9253 230.866 59.8103L230.95 59.9566C230.781 60.0611 230.665 60.1656 230.612 60.2597C230.549 60.3537 230.538 60.4478 230.559 60.5628C230.581 60.6777 230.654 60.824 230.771 61.0226L232.903 64.6072C233.009 64.7954 233.104 64.9208 233.188 64.9835C233.272 65.0462 233.357 65.0775 233.462 65.0566C233.558 65.0357 233.705 64.9835 233.885 64.8894L233.969 65.0357C233.8 65.1193 233.568 65.2447 233.262 65.4224C233.04 65.5478 232.85 65.6732 232.692 65.7777L227.678 63.3009L229.557 66.4571C229.673 66.6452 229.768 66.781 229.863 66.8542C229.947 66.9273 230.053 66.9587 230.179 66.9482C230.306 66.9378 230.464 66.8751 230.665 66.7706L230.749 66.9169C230.559 67.0005 230.306 67.1468 229.979 67.3349C229.683 67.5126 229.462 67.6484 229.303 67.7634L229.219 67.6171C229.377 67.5021 229.493 67.3976 229.557 67.314Z" fill="#ABABAB"/>
<path d="M223.751 68.6824C223.825 69.0064 223.92 69.3617 224.046 69.738C223.571 69.8216 222.78 69.9888 221.661 70.2187C220.542 70.4591 219.76 70.6367 219.296 70.7517C219.243 70.3441 219.19 69.9888 219.116 69.6648C219.053 69.3826 219 69.1527 218.937 68.9855L219.127 68.9437C219.264 69.3722 219.391 69.6753 219.507 69.8738C219.623 70.0724 219.771 70.1978 219.961 70.2605C220.151 70.3232 220.425 70.3128 220.774 70.2396L221.228 70.1456L220.193 65.3904C220.14 65.1605 220.088 64.9933 220.014 64.8992C219.94 64.8052 219.855 64.7425 219.729 64.732C219.602 64.7111 219.412 64.732 219.159 64.7738L219.127 64.6066C219.423 64.5648 219.845 64.4812 220.373 64.3662C220.932 64.2408 221.354 64.1468 221.618 64.0736L221.65 64.2408C221.397 64.3035 221.228 64.3662 221.122 64.4289C221.017 64.4916 220.953 64.5857 220.932 64.7007C220.911 64.8156 220.922 64.9933 220.974 65.2232L222.009 69.9783L222.463 69.8843C222.811 69.8111 223.065 69.7066 223.212 69.5708C223.36 69.4349 223.445 69.2572 223.466 69.0378C223.487 68.8183 223.476 68.4839 223.423 68.0449L223.614 68.0031C223.645 68.1703 223.687 68.4003 223.751 68.6824Z" fill="#ABABAB"/>
<path d="M209.742 65.7461C209.774 65.4222 209.784 65.0564 209.784 64.6488C210.175 64.7011 210.829 64.7638 211.758 64.8474C212.856 64.9414 213.69 65.0146 214.26 65.0459L214.25 65.2132C214.039 65.2027 213.891 65.2131 213.796 65.2445C213.701 65.2759 213.627 65.3281 213.585 65.4222C213.542 65.5162 213.511 65.673 213.49 65.882L213.11 70.1146C213.089 70.3236 213.099 70.4804 213.12 70.5849C213.141 70.6894 213.205 70.7626 213.3 70.8044C213.395 70.8462 213.542 70.888 213.743 70.9089L213.733 71.0761C213.173 71.0134 212.339 70.9298 211.241 70.8357C210.397 70.7626 209.795 70.7208 209.436 70.6999C209.51 70.3341 209.563 69.9996 209.584 69.6966C209.605 69.4771 209.615 69.2994 209.605 69.1636L209.806 69.1845C209.816 69.5607 209.837 69.8324 209.89 70.0205C209.932 70.2087 210.027 70.3445 210.175 70.4386C210.312 70.5326 210.544 70.5953 210.84 70.6162L211.558 70.6789C211.769 70.6998 211.917 70.6894 212.012 70.6685C212.107 70.6476 212.181 70.5849 212.223 70.4908C212.265 70.3968 212.297 70.24 212.318 70.031L212.497 68.0244L211.927 67.9722C211.642 67.9513 211.442 68.014 211.326 68.1812C211.22 68.3484 211.136 68.5156 211.104 68.6933C211.062 68.871 211.041 68.9859 211.03 69.0382L210.829 69.0173C210.872 68.7351 210.903 68.4738 210.935 68.2125L210.967 67.805C210.988 67.5123 211.009 67.1152 211.03 66.5927L211.231 66.6136C211.231 66.6554 211.241 66.7912 211.241 67.0316C211.252 67.272 211.305 67.4601 211.431 67.5855C211.547 67.7214 211.727 67.7945 211.959 67.8154L212.529 67.8677L212.709 65.8193C212.73 65.6103 212.719 65.4535 212.698 65.349C212.677 65.255 212.614 65.1818 212.519 65.14C212.424 65.0982 212.276 65.0668 212.075 65.0459L211.442 64.9937C211.083 64.9623 210.808 64.9832 210.608 65.0668C210.418 65.14 210.27 65.2863 210.164 65.4849C210.059 65.6834 209.974 65.9865 209.89 66.3836L209.689 66.3627C209.689 66.206 209.711 65.997 209.742 65.7461Z" fill="#ABABAB"/>
<path d="M201.434 61.8692C201.593 61.8379 201.772 61.8692 201.962 61.9528C202.184 62.0469 202.332 62.1827 202.416 62.3604C202.501 62.5485 202.511 62.8098 202.458 63.1547L202.3 64.0117C202.247 64.3147 202.216 64.5446 202.205 64.7223C202.195 64.8895 202.237 65.0463 202.311 65.1821C202.385 65.318 202.522 65.4225 202.722 65.5061L203.482 65.8197L204.253 64.0012C204.338 63.8026 204.38 63.6563 204.39 63.5518C204.401 63.4473 204.359 63.3637 204.285 63.2905C204.211 63.2174 204.084 63.1442 203.894 63.0606L203.957 62.9039C204.2 63.0188 204.528 63.1651 204.96 63.3428C205.414 63.5309 205.763 63.6668 205.995 63.7399L205.932 63.8967C205.731 63.8235 205.583 63.7922 205.488 63.7817C205.383 63.7817 205.298 63.8131 205.235 63.8967C205.161 63.9698 205.087 64.1057 205.003 64.3043L203.345 68.2233C203.261 68.4219 203.219 68.5682 203.208 68.6727C203.197 68.7772 203.24 68.8609 203.314 68.934C203.387 69.0072 203.514 69.0803 203.704 69.1744L203.641 69.3311C203.419 69.2266 203.102 69.0803 202.68 68.9027C202.469 68.819 202.247 68.725 201.994 68.6205C201.741 68.516 201.572 68.4533 201.477 68.4115C201.065 68.2338 200.738 68.0352 200.495 67.7949C200.252 67.5545 200.115 67.3037 200.052 67.032C199.988 66.7602 200.02 66.499 200.136 66.2377C200.221 66.0287 200.358 65.8406 200.548 65.6733C200.738 65.5061 200.981 65.3807 201.276 65.318C201.572 65.2553 201.931 65.2658 202.321 65.3598L202.226 65.3076C202.005 65.1717 201.836 65.0358 201.73 64.8895C201.625 64.7537 201.551 64.5969 201.53 64.4297C201.498 64.2625 201.508 64.0535 201.551 63.8026L201.698 62.9143C201.73 62.7366 201.751 62.6008 201.751 62.4963C201.751 62.3918 201.741 62.3082 201.709 62.2455C201.677 62.1828 201.625 62.1305 201.551 62.1096C201.466 62.0678 201.382 62.0678 201.308 62.0887C201.234 62.1096 201.128 62.1618 200.991 62.235L200.907 62.0991C201.097 61.9842 201.276 61.9006 201.434 61.8692ZM201.962 65.5897C201.709 65.6211 201.508 65.7151 201.35 65.8719C201.192 66.0287 201.054 66.2377 200.938 66.5094C200.759 66.9379 200.717 67.3141 200.833 67.6172C200.949 67.9203 201.234 68.1711 201.709 68.3697C201.878 68.4428 202.005 68.4742 202.11 68.4637C202.205 68.4637 202.29 68.4219 202.363 68.3383C202.437 68.2547 202.511 68.1188 202.585 67.9307L203.409 65.9869L202.87 65.7674C202.522 65.6211 202.216 65.5584 201.962 65.5897Z" fill="#ABABAB"/>
<path d="M193.201 63.2902C193.296 63.3215 193.391 63.3006 193.475 63.2484C193.559 63.1961 193.676 63.0812 193.813 62.914L196.462 59.5697C196.6 59.4025 196.684 59.2666 196.716 59.1726C196.748 59.0785 196.737 58.9844 196.684 58.9008C196.631 58.8172 196.526 58.7023 196.367 58.5664L196.473 58.4305C196.674 58.6082 196.948 58.8381 197.318 59.1203C197.708 59.4234 198.004 59.6428 198.204 59.7787L198.099 59.9146C197.93 59.7892 197.793 59.716 197.698 59.6951C197.603 59.6637 197.508 59.6742 197.423 59.7369C197.339 59.7892 197.223 59.9041 197.085 60.0713L194.436 63.4156C194.298 63.5828 194.214 63.7187 194.182 63.8127C194.151 63.9068 194.161 64.0009 194.214 64.0845C194.267 64.1681 194.372 64.283 194.531 64.4189L194.425 64.5547C194.246 64.398 193.961 64.1681 193.57 63.8545C193.201 63.5724 192.905 63.3529 192.694 63.2066L192.799 63.0707C192.979 63.1857 193.106 63.2588 193.201 63.2902Z" fill="#ABABAB"/>
<path d="M186.381 55.8491C186.339 55.3788 186.444 54.9086 186.687 54.4592C186.941 53.9993 187.321 53.5917 187.848 53.2051C188.366 52.8393 188.883 52.5989 189.421 52.5049C189.96 52.4108 190.456 52.4421 190.92 52.6198C191.385 52.7975 191.775 53.1006 192.082 53.529C192.409 53.968 192.588 54.4278 192.631 54.8981C192.673 55.3684 192.567 55.8387 192.324 56.2881C192.071 56.7479 191.691 57.1555 191.163 57.5422C190.646 57.908 190.129 58.1483 189.59 58.2424C189.062 58.3364 188.556 58.3051 188.091 58.1274C187.627 57.9498 187.236 57.6467 186.93 57.2286C186.603 56.7793 186.423 56.3194 186.381 55.8491ZM187.965 57.7094C188.334 57.7825 188.756 57.7512 189.221 57.6049C189.685 57.4586 190.15 57.2182 190.635 56.8629C191.121 56.518 191.501 56.1418 191.765 55.7446C192.039 55.3475 192.187 54.9504 192.208 54.5741C192.24 54.1979 192.145 53.8635 191.944 53.5813C191.723 53.2887 191.438 53.1006 191.058 53.0274C190.688 52.9542 190.266 52.9856 189.801 53.1319C189.337 53.2782 188.872 53.5186 188.387 53.8635C187.901 54.2083 187.521 54.5846 187.257 54.9922C186.983 55.3893 186.835 55.776 186.803 56.1627C186.772 56.5389 186.867 56.8733 187.067 57.1555C187.289 57.4481 187.585 57.6362 187.965 57.7094Z" fill="#ABABAB"/>
<path d="M187.194 43.2666C187.32 43.3606 187.415 43.5174 187.479 43.7264C187.553 43.9459 187.542 44.1549 187.458 44.3326C187.373 44.5207 187.173 44.6983 186.867 44.876L186.096 45.3045C185.832 45.4612 185.631 45.5867 185.494 45.6912C185.357 45.7957 185.262 45.9211 185.209 46.0674C185.156 46.2137 185.156 46.3809 185.22 46.5899L185.463 47.3738L187.363 46.7885C187.574 46.7258 187.711 46.6631 187.796 46.6004C187.88 46.5377 187.922 46.4541 187.933 46.36C187.943 46.266 187.912 46.1092 187.859 45.9106L188.028 45.8584C188.091 46.1092 188.186 46.4645 188.334 46.9035C188.482 47.3738 188.598 47.7186 188.682 47.9381L188.513 47.9904C188.439 47.7918 188.376 47.6559 188.313 47.5828C188.249 47.5096 188.165 47.4574 188.059 47.4574C187.954 47.4574 187.796 47.4783 187.595 47.5514L183.499 48.8055C183.288 48.8682 183.151 48.9309 183.066 48.9936C182.982 49.0563 182.94 49.14 182.929 49.234C182.918 49.3385 182.95 49.4848 183.003 49.6834L182.834 49.7357C182.781 49.5057 182.686 49.1713 182.549 48.7324C182.486 48.5234 182.401 48.283 182.317 48.0322C182.232 47.7813 182.169 47.6037 182.137 47.5096C182 47.0811 181.958 46.7049 181.989 46.3705C182.021 46.036 182.127 45.7643 182.296 45.5449C182.465 45.3254 182.686 45.1791 182.961 45.0955C183.172 45.0328 183.404 45.0119 183.657 45.0432C183.911 45.0746 184.154 45.1791 184.407 45.3672C184.66 45.5553 184.871 45.827 185.051 46.1928L185.04 46.0883C185.009 45.827 184.998 45.618 185.04 45.4403C185.083 45.2627 185.156 45.1164 185.262 44.991C185.378 44.8655 185.547 44.7297 185.769 44.6043L186.55 44.1444C186.708 44.0608 186.835 43.9772 186.909 43.9145C186.983 43.8518 187.046 43.7891 187.078 43.7264C187.109 43.6637 187.109 43.5905 187.088 43.5174C187.057 43.4233 187.014 43.3606 186.951 43.3188C186.888 43.277 186.782 43.2248 186.634 43.1725L186.687 43.0157C186.898 43.0889 187.078 43.1725 187.194 43.2666ZM184.671 46.0674C184.491 45.9002 184.28 45.8061 184.059 45.7852C183.837 45.7643 183.583 45.7957 183.298 45.8897C182.845 46.0256 182.538 46.2451 182.37 46.5272C182.201 46.8094 182.201 47.1961 182.348 47.6664C182.401 47.8336 182.465 47.959 182.528 48.0322C182.591 48.1053 182.686 48.1471 182.792 48.1471C182.897 48.1471 183.056 48.1158 183.246 48.0635L185.273 47.4365L185.104 46.8826C184.998 46.5063 184.85 46.2346 184.671 46.0674Z" fill="#ABABAB"/>
<path d="M186.381 33.3484C186.782 33.1708 187.025 32.8363 187.131 32.3347C187.162 32.1466 187.162 31.9585 187.109 31.7808C187.057 31.6031 186.962 31.4464 186.814 31.3105C186.666 31.1746 186.466 31.0806 186.202 31.0388C185.98 30.997 185.779 31.0179 185.589 31.091C185.399 31.1642 185.209 31.2792 185.03 31.4359C184.85 31.5927 184.639 31.8017 184.407 32.063C184.143 32.3556 183.911 32.596 183.71 32.7632C183.51 32.9408 183.288 33.0663 183.045 33.1603C182.802 33.2544 182.528 33.2648 182.222 33.2126C181.905 33.1499 181.641 33.0349 181.451 32.8468C181.261 32.6587 181.124 32.4392 181.061 32.1779C180.997 31.9167 180.997 31.6449 181.05 31.3523C181.082 31.1746 181.124 31.0388 181.177 30.9134C181.23 30.788 181.282 30.6939 181.346 30.6208C181.409 30.5476 181.472 30.464 181.557 30.3804C181.662 30.2654 181.715 30.1818 181.736 30.1191C181.747 30.0669 181.726 30.0251 181.673 29.9833C181.62 29.9414 181.525 29.9101 181.398 29.8683L181.43 29.6802C181.757 29.7638 182.327 29.8892 183.161 30.046L183.13 30.2341C182.834 30.2027 182.56 30.2132 182.285 30.2759C182.021 30.3281 181.789 30.4431 181.599 30.6208C181.409 30.788 181.282 31.0283 181.23 31.321C181.187 31.5195 181.198 31.6972 181.251 31.8749C181.303 32.0525 181.398 32.1884 181.525 32.3033C181.662 32.4183 181.821 32.4915 182.011 32.5333C182.317 32.5855 182.581 32.5437 182.802 32.3974C183.024 32.2511 183.235 32.063 183.436 31.8435C183.636 31.624 183.763 31.4777 183.837 31.4046C184.133 31.091 184.375 30.8507 184.576 30.673C184.776 30.4953 184.998 30.3699 185.241 30.2863C185.484 30.2027 185.748 30.1923 186.033 30.2445C186.381 30.3072 186.666 30.4431 186.877 30.6417C187.088 30.8507 187.226 31.091 187.299 31.3837C187.373 31.6763 187.373 31.9898 187.31 32.3242C187.257 32.596 187.194 32.805 187.099 32.9722C187.014 33.1394 186.898 33.2857 186.772 33.4216C186.666 33.5365 186.613 33.6202 186.592 33.6829C186.582 33.7351 186.603 33.7769 186.656 33.8187C186.708 33.8605 186.803 33.9023 186.93 33.9337L186.898 34.1218C186.592 34.0382 185.917 33.9023 184.872 33.7142L184.903 33.5261C185.494 33.5784 185.98 33.5261 186.381 33.3484Z" fill="#ABABAB"/>
<path d="M184.291 24.5385C183.995 24.3817 183.657 24.2354 183.277 24.0891C183.51 23.6815 183.9 22.9709 184.428 21.9571C184.956 20.9538 185.325 20.2432 185.526 19.8147C185.874 20.0342 186.191 20.2223 186.476 20.3686C186.729 20.5045 186.951 20.5985 187.12 20.6717L187.025 20.8493C186.603 20.6821 186.286 20.5776 186.064 20.5463C185.843 20.5045 185.642 20.5463 185.473 20.6508C185.304 20.7553 185.135 20.9643 184.977 21.2778L184.766 21.6959L189.126 23.9428C189.337 24.0577 189.506 24.11 189.622 24.1205C189.738 24.1309 189.843 24.0996 189.938 24.0159C190.033 23.9323 190.139 23.7756 190.266 23.5561L190.424 23.6397C190.266 23.901 190.065 24.2668 189.812 24.7475C189.548 25.2491 189.358 25.6358 189.242 25.8762L189.083 25.7926C189.189 25.5627 189.263 25.385 189.273 25.27C189.295 25.1446 189.263 25.0401 189.178 24.9461C189.094 24.852 188.957 24.758 188.746 24.643L184.386 22.3856L184.164 22.7932C183.995 23.1067 183.921 23.3575 183.932 23.5561C183.942 23.7547 184.027 23.9323 184.185 24.0891C184.344 24.2459 184.607 24.4549 184.987 24.6953L184.892 24.8729C184.755 24.7893 184.544 24.6743 184.291 24.5385Z" fill="#ABABAB"/>
<path d="M191.744 12.5303C191.923 12.3527 192.071 12.1855 192.177 12.0601L192.303 12.1855C192.24 12.2795 192.208 12.4154 192.219 12.5722C192.229 12.7289 192.272 12.9484 192.356 13.2097L193.317 16.0418L194.436 17.1392C194.594 17.2855 194.71 17.39 194.805 17.4318C194.9 17.4736 194.995 17.4736 195.09 17.4318C195.185 17.39 195.301 17.2959 195.46 17.1601L195.586 17.2855C195.386 17.4632 195.122 17.714 194.795 18.038C194.446 18.3828 194.193 18.6546 194.035 18.8322L193.908 18.7068C194.045 18.55 194.14 18.4351 194.182 18.341C194.225 18.247 194.225 18.1529 194.172 18.0589C194.13 17.9648 194.024 17.8394 193.876 17.6931L192.947 16.7838L189.421 15.7597C189.21 15.697 189.052 15.6761 188.946 15.6865C188.841 15.697 188.767 15.7283 188.714 15.7806L188.587 15.6552C188.756 15.5088 188.946 15.3416 189.136 15.1431C189.527 14.7459 189.812 14.4638 189.97 14.2756L190.097 14.4011C189.812 14.6832 189.749 14.9027 189.907 15.0595C189.97 15.1222 190.055 15.164 190.181 15.2058L193.148 16.115L192.367 13.8054C192.25 13.4709 192.134 13.241 192.008 13.126C191.892 13.0111 191.765 12.9797 191.628 13.0215C191.49 13.0633 191.332 13.1679 191.142 13.3455L191.015 13.2201C191.269 12.9902 191.501 12.7603 191.744 12.5303Z" fill="#ABABAB"/>
<path d="M198.131 8.31855C198.067 8.3917 198.036 8.48576 198.057 8.59027C198.078 8.69478 198.131 8.84109 198.236 9.02921L200.274 12.7706C200.379 12.9587 200.464 13.0841 200.548 13.1573C200.622 13.2305 200.717 13.2514 200.812 13.2409C200.907 13.2305 201.055 13.1677 201.234 13.0737L201.794 12.7706C202.11 12.6034 202.332 12.4257 202.448 12.2481C202.564 12.0704 202.607 11.8718 202.575 11.6315C202.543 11.3911 202.448 11.088 202.279 10.6909L202.459 10.5968C202.533 10.764 202.638 10.9731 202.776 11.2239C202.934 11.5061 203.124 11.8196 203.356 12.1645C203.008 12.3317 202.417 12.6348 201.604 13.0737C200.633 13.5962 199.894 13.9934 199.408 14.2755L199.324 14.1292C199.503 14.0247 199.63 13.9307 199.693 13.8575C199.756 13.7843 199.788 13.6903 199.767 13.5858C199.746 13.4813 199.693 13.335 199.587 13.1468L197.529 9.40544C197.423 9.21732 197.339 9.09191 197.255 9.01876C197.181 8.9456 197.086 8.9247 196.991 8.93515C196.885 8.9456 196.748 8.99785 196.558 9.09191L196.484 8.93515C196.706 8.84109 197.033 8.67388 197.466 8.43351C197.877 8.21404 198.194 8.03637 198.416 7.90051L198.5 8.04682C198.321 8.15133 198.205 8.24539 198.131 8.31855Z" fill="#ABABAB"/>
<path d="M210.988 8.98731C211.051 9.30084 211.146 9.65616 211.263 10.0533C210.872 10.116 210.228 10.231 209.32 10.4086C208.233 10.6176 207.42 10.7849 206.861 10.9103L206.829 10.7431C207.029 10.6908 207.177 10.649 207.262 10.5863C207.346 10.534 207.399 10.4504 207.409 10.3564C207.42 10.2519 207.409 10.0951 207.367 9.88608L206.544 5.71619C206.502 5.50717 206.459 5.36086 206.396 5.2668C206.333 5.17274 206.269 5.12049 206.164 5.11004C206.069 5.08914 205.91 5.09959 205.71 5.13094L205.678 4.96373C206.238 4.86967 207.061 4.72336 208.138 4.51434C208.972 4.34713 209.563 4.23217 209.901 4.14856C209.932 4.52479 209.985 4.85922 210.038 5.15184C210.08 5.37131 210.122 5.53852 210.165 5.66393L209.975 5.70574C209.859 5.35041 209.753 5.08914 209.658 4.92192C209.563 4.75471 209.426 4.6502 209.267 4.59795C209.099 4.54569 208.877 4.54569 208.571 4.6084L207.863 4.74426C207.663 4.78606 207.515 4.82787 207.431 4.88012C207.346 4.93237 207.293 5.00553 207.272 5.11004C207.262 5.21455 207.272 5.37131 207.314 5.58033L207.705 7.56599L208.265 7.45103C208.55 7.39878 208.718 7.27337 208.782 7.08525C208.845 6.89714 208.866 6.71947 208.856 6.54181C208.845 6.36414 208.835 6.24918 208.835 6.19693L209.025 6.15513C209.056 6.4373 209.099 6.69857 209.151 6.94939L209.236 7.34652C209.289 7.6287 209.384 8.02583 209.521 8.52747L209.331 8.56927C209.32 8.52747 209.278 8.40206 209.204 8.17214C209.13 7.94222 209.025 7.78546 208.866 7.6914C208.708 7.59734 208.528 7.57644 208.296 7.61825L207.737 7.72275L208.138 9.73977C208.18 9.94879 208.222 10.0951 208.275 10.1892C208.328 10.2728 208.402 10.325 208.507 10.3459C208.602 10.3564 208.761 10.3459 208.961 10.3041L209.584 10.1787C209.932 10.1056 210.196 10.0115 210.365 9.88608C210.534 9.76067 210.629 9.58301 210.671 9.36354C210.714 9.14407 210.714 8.83055 210.682 8.42296L210.872 8.38116C210.904 8.53792 210.935 8.73649 210.988 8.98731Z" fill="#ABABAB"/>
<path d="M203.873 48.8996C203.388 48.2516 202.965 47.541 202.596 46.7572C202.226 45.9733 201.931 45.1791 201.709 44.3639C201.224 40.7793 201.213 37.2991 201.667 33.9235C202.121 30.5479 202.86 27.2245 203.873 23.9429C204.042 23.5772 204.412 23.3995 204.982 23.3995C205.552 23.3995 206.111 23.5249 206.681 23.7757C207.251 24.0265 207.716 24.361 208.085 24.779C208.455 25.197 208.539 25.636 208.339 26.0854C208.022 26.7542 207.716 27.6634 207.41 28.7921C207.103 29.9313 206.797 31.1854 206.523 32.5544C206.238 33.9235 205.995 35.3657 205.784 36.8602C205.573 38.3547 205.414 39.7969 205.319 41.166C205.224 42.535 205.203 43.7787 205.256 44.8865C205.309 45.9942 205.478 46.8721 205.763 47.5096C207.093 45.7434 208.307 43.9145 209.415 42.0229C210.524 40.1313 211.558 38.2188 212.529 36.2645C213.501 34.3206 214.43 32.3559 215.306 30.3598C216.182 28.3741 217.048 26.4093 217.892 24.4759C218.314 23.4935 218.737 22.4589 219.148 21.372C219.56 20.2747 220.098 19.3446 220.785 18.5607C221.07 18.3099 221.291 18.2263 221.439 18.3099C221.597 18.3935 221.703 18.5503 221.756 18.7907C221.809 19.031 221.84 19.2818 221.84 19.5431C221.84 19.8044 221.84 20.0134 221.84 20.1493C221.64 21.4347 221.471 22.7097 221.334 23.9743C221.196 25.2388 220.89 26.4511 220.447 27.6321C219.708 29.4819 218.958 31.3108 218.177 33.1397C217.396 34.9581 216.562 36.7557 215.675 38.5219C214.789 40.2881 213.817 42.002 212.793 43.6637C211.759 45.3358 210.64 46.9244 209.415 48.4293C208.455 49.6311 207.494 50.2687 206.555 50.3418C205.573 50.4254 204.697 49.9342 203.873 48.8996Z" fill="#ABABAB" stroke="#F9F9F9" stroke-width="0.708854" stroke-miterlimit="10"/>
<path d="M221.355 44.1551C220.785 43.3712 220.225 42.577 219.676 41.7618C219.127 40.9466 218.853 40.0583 218.853 39.0759C218.853 37.989 219.17 36.9544 219.803 35.9825C220.436 35.021 221.165 34.2372 221.988 33.6519C222.326 33.4325 222.674 33.2444 223.023 33.1085C223.371 32.9726 223.751 32.9831 224.152 33.1503C224.321 33.2339 224.501 33.2966 224.68 33.3384C224.86 33.3802 225.029 33.4325 225.166 33.4847C225.303 33.537 225.461 33.6206 225.63 33.7355C225.799 33.8505 225.884 33.9968 225.884 34.1954C225.884 34.9792 225.905 35.6167 225.947 36.1079C225.989 36.5991 226.052 37.0171 226.137 37.3724C226.221 37.7278 226.306 38.0308 226.39 38.2921C226.475 38.5638 226.559 38.846 226.644 39.1491C226.696 39.4313 226.686 39.6716 226.601 39.8597C226.517 40.0583 226.306 40.0792 225.968 39.9434C225.345 39.7239 224.881 39.2745 224.585 38.5952C224.29 37.9159 224.068 37.3097 223.931 36.7454C223.899 36.6304 223.836 36.4423 223.72 36.1601C223.603 35.878 223.54 35.6794 223.508 35.5749C223.287 35.5226 223.012 35.5958 222.706 35.8048C222.4 36.0138 222.115 36.3065 221.883 36.6618C221.64 37.0276 221.482 37.4456 221.418 37.9263C221.344 38.4071 221.439 38.8774 221.693 39.3581C221.809 39.5253 221.967 39.7343 222.178 39.9643C222.389 40.2046 222.601 40.445 222.812 40.6958C223.023 40.9466 223.234 41.1975 223.445 41.4274C223.656 41.6573 223.836 41.8559 223.973 41.9917C224.142 42.1589 224.258 42.253 224.311 42.2634C224.363 42.2739 224.511 42.2425 224.733 42.1589C225.018 42.0231 225.451 41.835 226.031 41.6155C226.612 41.396 227.224 41.1661 227.858 40.9466C228.491 40.7272 229.103 40.5391 229.684 40.3823C230.264 40.2255 230.708 40.1524 231.025 40.1524C231.225 40.1524 231.362 40.2255 231.447 40.3614C231.531 40.445 231.521 40.56 231.405 40.6958C231.288 40.8317 231.141 40.978 230.961 41.1139C230.782 41.2497 230.581 41.3751 230.391 41.4901C230.191 41.605 230.064 41.6677 230.011 41.6991C229.526 41.9813 228.924 42.2948 228.185 42.6501C227.446 42.995 226.813 43.3399 226.274 43.6743C226.221 43.7266 226.116 43.7893 225.957 43.8415C225.799 43.8938 225.683 43.9565 225.599 44.0087C225.936 44.7612 226.179 45.4196 226.316 45.963C226.454 46.5065 226.506 47.029 226.464 47.5411C226.422 48.0428 226.316 48.5549 226.147 49.0774C225.979 49.6 225.746 50.1956 225.472 50.8645C225.071 51.5125 224.67 52.1291 224.258 52.7143C223.846 53.2996 223.392 53.8326 222.875 54.3133C222.368 54.794 221.809 55.1703 221.218 55.442C220.626 55.7242 219.972 55.86 219.265 55.86C218.864 55.86 218.484 55.8078 218.114 55.7137C217.745 55.6196 217.438 55.4106 217.185 55.1076C216.531 54.4073 216.172 53.6444 216.087 52.8188C216.003 51.9932 216.077 51.178 216.298 50.3629C216.467 49.8612 216.678 49.4014 216.932 48.9729C217.555 47.9069 218.241 47.0081 218.99 46.2661C219.75 45.5346 220.531 44.8239 221.355 44.1551ZM222.801 46.0467C222.484 46.3602 222.062 46.7991 221.524 47.3739C220.985 47.9487 220.489 48.5758 220.014 49.2446C219.55 49.9135 219.17 50.5823 218.874 51.2407C218.579 51.8991 218.505 52.4635 218.642 52.9442C219.212 52.6934 219.793 52.2754 220.384 51.7006C220.975 51.1258 221.503 50.4987 221.957 49.809C222.411 49.1192 222.727 48.4399 222.907 47.771C223.086 47.0917 223.054 46.5169 222.801 46.0467Z" fill="#ABABAB" stroke="#F9F9F9" stroke-width="0.708854" stroke-miterlimit="10"/>
<path d="M214.472 61.1689C201.265 61.1689 190.519 50.53 190.519 37.4559C190.519 24.3819 201.265 13.7429 214.472 13.7429C227.678 13.7429 238.424 24.3819 238.424 37.4559C238.424 50.53 227.678 61.1689 214.472 61.1689ZM214.472 14.788C201.846 14.788 191.575 24.9567 191.575 37.4559C191.575 49.9552 201.846 60.1239 214.472 60.1239C227.097 60.1239 237.368 49.9552 237.368 37.4559C237.368 24.9567 227.097 14.788 214.472 14.788Z" fill="#ABABAB"/>
</g>
<path d="M357.04 53.1148H337.207C333.948 53.1148 331.306 50.4998 331.306 47.2731V27.6386C331.306 24.412 333.948 21.797 337.207 21.797H357.04C360.299 21.797 362.94 24.412 362.94 27.6386V47.2731C362.94 50.4998 360.299 53.1148 357.04 53.1148Z" fill="#ABABAB"/>
<path d="M352.822 37.7441C353.386 38.4444 353.673 39.2599 353.673 40.1818C353.673 41.5381 353.216 42.6018 352.303 43.3553C351.389 44.1087 350.082 44.4988 348.381 44.4988H340.949V28.6759H348.202C349.831 28.6759 351.085 29.0305 351.971 29.7308C352.858 30.431 353.306 31.4327 353.306 32.7269C353.306 33.6843 353.046 34.4732 352.536 35.1114C352.025 35.7497 351.354 36.1574 350.521 36.3524C351.497 36.5829 352.258 37.0439 352.822 37.7441ZM344.808 35.1469H347.342C348.685 35.1469 349.357 34.5796 349.357 33.4449C349.357 32.3103 348.667 31.743 347.298 31.743H344.808V35.1469ZM349.715 39.65C349.715 39.0827 349.527 38.6394 349.151 38.3203C348.775 38.0012 348.238 37.8416 347.548 37.8416H344.817V41.3963H347.575C348.999 41.3874 349.715 40.8112 349.715 39.65Z" fill="#F9F9F9"/>
<path d="M381.269 44.4988L377.812 38.5242H376.935V44.4988H373.067V28.6759H379.666C380.928 28.6759 382.003 28.8887 382.871 29.323C383.749 29.7574 384.403 30.3513 384.841 31.1047C385.28 31.8582 385.495 32.7181 385.495 33.6931C385.495 34.8455 385.173 35.8206 384.537 36.6272C383.892 37.4339 382.97 37.9835 381.743 38.2849L385.54 44.5076H381.269V44.4988ZM376.935 35.9092H379.326C380.096 35.9092 380.66 35.7408 381.018 35.4039C381.376 35.0671 381.564 34.5707 381.564 33.9147C381.564 33.2854 381.376 32.7978 381.009 32.4344C380.642 32.0798 380.078 31.8937 379.326 31.8937H376.935V35.9092Z" fill="#ABABAB"/>
<path d="M402.991 41.6175H397.001L396.007 44.5073H391.942L397.798 28.7997H402.248L408.104 44.5073H403.994L402.991 41.6175ZM401.997 38.7012L400.009 32.8861L397.995 38.7012H401.997Z" fill="#ABABAB"/>
<path d="M429.441 44.4988H425.573L419.108 34.7834V44.4988H415.24V28.6759H419.108L425.573 38.4799V28.6759H429.441V44.4988Z" fill="#ABABAB"/>
<path d="M451.127 40.687C450.455 41.8837 449.488 42.8233 448.235 43.497C446.972 44.1707 445.495 44.5076 443.794 44.5076H437.759V28.6847H443.794C445.513 28.6847 446.999 29.0127 448.244 29.6686C449.497 30.3246 450.455 31.2465 451.127 32.4432C451.798 33.6399 452.13 35.005 452.13 36.5651C452.13 38.1075 451.79 39.4815 451.127 40.687ZM446.963 39.8892C447.796 39.1003 448.217 37.9834 448.217 36.5562C448.217 35.1202 447.796 34.0122 446.963 33.2232C446.131 32.4343 444.958 32.0354 443.445 32.0354H441.618V41.0771H443.445C444.958 41.0771 446.131 40.687 446.963 39.8892Z" fill="#ABABAB"/>
<path d="M546.099 27.7901L546.891 27.6229C547.091 27.6229 547.26 27.6647 547.376 27.7483C547.492 27.8319 547.556 27.9156 547.556 27.9887C547.556 28.0619 547.534 28.1768 547.503 28.3127C547.471 28.4485 547.176 29.849 546.627 32.493C546.078 35.1371 545.677 37.1123 545.423 38.4082C546.648 36.757 548.083 34.7295 549.72 32.3154C551.356 29.9012 552.317 28.3022 552.591 27.508C552.675 27.2572 552.792 27.069 552.929 26.9332C553.066 26.7973 553.193 26.7137 553.298 26.6928C553.404 26.6719 553.573 26.651 553.794 26.651C554.016 26.651 554.28 26.7033 554.586 26.7973C554.892 26.8914 555.051 27.0481 555.051 27.2781C555.051 27.6961 554.417 28.9188 553.161 30.9254C551.905 32.932 550.459 35.0639 548.833 37.3213C547.207 39.5787 545.856 41.3658 544.769 42.6826C544.579 42.9125 544.336 43.038 544.061 43.038C543.787 43.038 543.491 42.9857 543.185 42.8916C542.879 42.7976 542.721 42.6304 542.721 42.3795C542.721 41.5957 543.417 37.8125 544.811 31.0508C543.618 32.5766 542.172 34.7086 540.472 37.4363C538.699 40.258 537.696 42.0138 537.464 42.6826C537.337 43.0902 537.189 43.3306 537.02 43.3933C536.904 43.4455 536.777 43.4664 536.651 43.4664L535.796 43.5605C535.627 43.5605 535.479 43.5187 535.331 43.4246C535.194 43.3306 535.12 43.2365 535.12 43.132C535.12 42.8498 535.521 41.9929 536.313 40.5715C537.105 39.1502 538.044 37.6035 539.11 35.9314C540.177 34.2592 541.285 32.6393 542.446 31.0613C543.607 29.4832 544.505 28.4172 545.138 27.8842C545.265 27.7692 545.413 27.717 545.582 27.717L546.099 27.7901Z" fill="#ABABAB"/>
<path d="M558.788 34.8759C559.337 34.8759 559.611 35.0641 559.611 35.4298C559.611 35.6284 559.569 35.7747 559.474 35.8688C559.379 35.9628 559.178 36.2659 558.872 36.7989C558.566 37.3214 558.228 37.9903 557.859 38.8159C557.489 39.6311 557.246 40.3313 557.141 40.9061C557.12 40.9792 557.109 41.0733 557.109 41.2092C557.109 41.6063 557.215 41.7944 557.436 41.7944C557.658 41.7944 557.912 41.6899 558.207 41.4913C558.503 41.2823 558.767 41.0733 558.999 40.8329C559.231 40.603 559.453 40.3626 559.674 40.1223C559.896 39.8819 560.023 39.7356 560.065 39.7042C560.107 39.6729 560.171 39.652 560.255 39.652C560.392 39.652 560.477 39.7565 560.508 39.9655C560.54 40.1745 560.551 40.3835 560.551 40.6135C560.551 40.8434 560.53 40.9897 560.487 41.0733C560.276 41.4809 559.822 41.9721 559.104 42.5469C558.397 43.1217 557.743 43.4038 557.162 43.4038C556.581 43.4038 556.149 43.2262 555.885 42.8813C555.621 42.5364 555.473 42.1393 555.473 41.7213C555.473 41.2928 555.547 40.927 555.695 40.603C555.093 41.3764 554.407 42.0243 553.636 42.5678C552.855 43.1008 552.232 43.3725 551.736 43.3725C551.24 43.3725 550.849 43.2262 550.533 42.9336C550.131 42.5678 549.941 42.0661 549.941 41.4182C549.941 40.7702 550.089 40.1223 550.385 39.4639C550.68 38.8159 551.06 38.2098 551.535 37.6768C552.01 37.1333 552.538 36.6421 553.108 36.2032C554.301 35.2731 555.41 34.8132 556.423 34.8132C556.814 34.8132 557.13 34.8759 557.373 35.0013C557.616 35.1268 557.774 35.294 557.838 35.4821C558.007 35.2208 558.154 35.0641 558.281 34.9909C558.376 34.9073 558.555 34.8759 558.788 34.8759ZM557.352 36.0673C556.117 36.0673 554.84 36.7466 553.52 38.1053C553.056 38.5964 552.623 39.1712 552.222 39.8505C551.82 40.5299 551.63 40.9897 551.63 41.2405C551.63 41.4913 551.704 41.6167 551.852 41.6167C552.053 41.6167 552.612 41.2196 553.541 40.4358C554.47 39.652 555.082 39.0667 555.378 38.6905C555.716 38.2725 556.37 37.3946 557.352 36.0673Z" fill="#ABABAB"/>
<path d="M567 29.2119L567.444 29.3164C567.507 29.3164 567.57 29.3478 567.613 29.4105C567.665 29.4732 567.687 29.5359 567.687 29.5881C567.687 29.6404 567.613 29.7972 567.454 30.048C567.296 30.2988 567.127 30.581 566.916 30.8945C566.705 31.208 566.599 31.3857 566.589 31.417C567.148 31.3752 567.549 31.3543 567.782 31.3543C568.014 31.3543 568.172 31.3752 568.267 31.4066C568.352 31.4379 568.457 31.532 568.563 31.6783C568.679 31.8246 568.774 31.9396 568.869 32.0127C568.964 32.0859 569.006 32.2009 569.006 32.3472C569.006 32.4935 568.911 32.6293 568.732 32.7234C568.552 32.8279 568.352 32.8906 568.141 32.9115C566.462 33.0787 565.544 33.1623 565.375 33.1728C564.794 34.0611 563.971 35.4406 562.926 37.3113C561.881 39.182 561.321 40.363 561.258 40.8333C561.226 41.0527 561.215 41.22 561.215 41.3558C561.215 41.638 561.363 41.7739 561.659 41.7739C561.954 41.7739 562.282 41.6589 562.641 41.4394C563 41.2095 563.337 40.9691 563.633 40.7079C564.446 39.9972 564.879 39.6314 564.931 39.6314C565.121 39.6314 565.216 39.9554 565.216 40.5929C565.216 40.9378 565.058 41.2513 564.731 41.5335C564.002 42.1501 563.39 42.6204 562.894 42.9339C562.398 43.2474 561.902 43.4042 561.395 43.4042C561.289 43.4042 561.184 43.3937 561.089 43.3728C560.508 43.2683 560.086 43.0593 559.822 42.7458C559.548 42.4323 559.421 42.0142 559.421 41.4917C559.421 40.9691 559.579 40.3212 559.896 39.5687C560.213 38.8163 560.603 38.0115 561.078 37.165C561.859 35.7751 562.641 34.4791 563.411 33.2668L563 33.3191C562.166 33.4132 561.68 33.455 561.543 33.455H561.448C561.237 33.455 561.036 33.4132 560.846 33.3296C560.656 33.2459 560.55 33.1414 560.55 33.0265C560.55 32.9011 560.603 32.7861 560.709 32.6711C560.814 32.5562 560.878 32.4621 560.899 32.3994C560.952 32.2427 561.142 32.065 561.469 31.8769C561.796 31.6888 562.039 31.5843 562.208 31.5738C562.377 31.5634 562.535 31.5529 562.693 31.5425C562.852 31.532 563.021 31.532 563.211 31.5216C563.401 31.5111 563.548 31.5111 563.654 31.5007L564.625 31.4588C565.227 30.5601 565.649 29.9748 565.871 29.724C566.103 29.4627 566.23 29.3269 566.261 29.306C566.293 29.2851 566.367 29.2642 566.483 29.2642L567 29.2119Z" fill="#ABABAB"/>
<path d="M573.492 39.6519C573.63 39.6519 573.714 39.7564 573.746 39.9654C573.777 40.1744 573.788 40.3835 573.788 40.6134C573.788 40.8433 573.767 40.9896 573.725 41.0732C573.514 41.4703 573.06 41.9615 572.352 42.5363C571.645 43.1111 570.969 43.4038 570.336 43.4038C569.945 43.4038 569.587 43.2888 569.249 43.0589C568.921 42.829 568.753 42.4214 568.753 41.8466C568.753 41.2718 568.911 40.697 569.217 40.1431C567.422 42.3691 566.029 43.4769 565.005 43.4769C564.604 43.4769 564.277 43.3306 564.023 43.0484C563.77 42.7663 563.654 42.4736 563.654 42.1601C563.654 41.857 563.696 41.5435 563.78 41.2195C563.865 40.8956 563.96 40.6029 564.055 40.3417C564.15 40.0804 564.298 39.7669 564.488 39.3906C564.678 39.0144 564.826 38.7427 564.91 38.565C564.994 38.3873 565.153 38.1365 565.364 37.7916C565.575 37.4468 565.839 36.9765 566.177 36.3912C566.515 35.806 566.789 35.367 567.011 35.0849C567.232 34.8027 567.444 34.6564 567.655 34.6564C567.866 34.6564 568.045 34.74 568.204 34.9072C568.362 35.0744 568.446 35.2207 568.446 35.3252C568.446 35.4297 568.204 35.9105 567.718 36.7675C566.293 39.3279 565.575 40.8119 565.575 41.2404C565.575 41.3449 565.617 41.3972 565.691 41.3972C566.04 41.3972 566.905 40.6552 568.278 39.1712C569.65 37.6871 570.452 36.7361 570.674 36.3181C570.896 35.9 571.096 35.5447 571.307 35.2625C571.508 34.9804 571.666 34.8027 571.772 34.74C572.078 34.5414 572.479 34.4369 572.975 34.416C573.06 34.416 573.112 34.416 573.155 34.4265C573.197 34.4369 573.25 34.4996 573.302 34.6041C573.355 34.7086 573.387 34.8027 573.387 34.8759C573.323 35.0744 573.038 35.6074 572.521 36.4748C572.014 37.3423 571.729 37.8334 571.677 37.938C570.822 39.6832 570.399 40.8224 570.399 41.3449C570.399 41.648 570.515 41.7943 570.748 41.7943C571.17 41.7421 571.677 41.4076 572.268 40.8015C572.49 40.582 572.701 40.3521 572.912 40.1222C573.123 39.8923 573.26 39.7564 573.302 39.7251C573.355 39.6728 573.419 39.6519 573.492 39.6519Z" fill="#ABABAB"/>
<path d="M576.628 37.1754C578.328 35.2629 579.784 34.3014 580.977 34.3014C581.273 34.3014 581.516 34.385 581.706 34.5626C581.896 34.7403 581.991 34.9598 581.991 35.242C581.991 35.5241 581.79 35.984 581.389 36.6424C580.988 37.2903 580.618 37.8442 580.281 38.2936C580.101 38.5235 579.901 38.6385 579.668 38.6385C579.447 38.6385 579.267 38.5549 579.14 38.3877C579.014 38.2204 578.95 38.0323 578.95 37.8129C578.95 37.3217 579.214 36.7573 579.753 36.1407L579.732 36.1198C579.489 36.1407 578.908 36.611 577.958 37.5098C577.019 38.419 576.216 39.2342 575.551 39.9448C574.897 40.6659 574.179 41.5334 573.398 42.568C573.176 42.8711 572.986 43.0278 572.828 43.0278C572.669 43.0278 572.469 42.9756 572.215 42.8815C571.962 42.7875 571.804 42.7143 571.751 42.6725C571.698 42.6307 571.667 42.5576 571.667 42.453C571.667 42.359 571.698 42.2336 571.751 42.1082C571.804 41.9723 571.92 41.7842 572.068 41.5438C572.215 41.3035 572.458 40.9063 572.775 40.3629C573.092 39.8194 573.577 38.9938 574.242 37.8965C574.907 36.7991 575.298 36.1303 575.435 35.9004C575.71 35.4301 575.931 35.0852 576.111 34.8762C576.438 34.4686 576.987 34.27 577.758 34.27C577.926 34.27 578.021 34.3745 578.021 34.594C578.021 34.9284 577.705 35.5659 577.082 36.4856L576.628 37.1754Z" fill="#ABABAB"/>
<path d="M588.272 35.0021C588.272 35.4724 588.082 35.8904 587.691 36.2457C587.3 36.6011 586.868 36.7787 586.371 36.7787C586.213 36.7787 586.107 36.7369 586.055 36.6638C586.002 36.5906 585.981 36.4861 585.981 36.3711C585.981 36.2562 585.991 36.1308 586.023 36.0158C585.759 36.0994 585.474 36.2353 585.157 36.4129C584.841 36.5906 584.45 36.8519 583.986 37.2072C583.521 37.5625 583.289 37.8134 583.289 37.991C583.289 38.0433 583.373 38.0746 583.542 38.0746C583.711 38.0746 583.975 38.0119 584.323 37.897C584.672 37.782 584.925 37.7193 585.062 37.7193C585.2 37.7193 585.295 37.7298 585.337 37.7402C585.432 37.7925 585.527 37.897 585.643 38.0642C585.749 38.2314 585.801 38.3673 585.801 38.4613C585.801 38.5554 585.706 38.6808 585.516 38.8375C585.326 38.9943 585.115 39.1093 584.883 39.1929C584.64 39.2765 584.482 39.3392 584.408 39.381C582.888 40.2275 582.128 40.8023 582.128 41.1158C582.128 41.6697 582.603 41.9519 583.563 41.9519C584.176 41.9519 584.798 41.7638 585.411 41.3771C585.939 41.0531 586.414 40.7187 586.836 40.3738C587.258 40.0394 587.522 39.8304 587.638 39.7468C587.754 39.6632 587.839 39.6318 587.892 39.6318C588.082 39.6318 588.177 39.8408 588.177 40.2589C588.177 40.6769 588.155 40.9486 588.103 41.074C588.05 41.2099 587.913 41.3667 587.67 41.5652C586.129 42.8089 584.661 43.4359 583.289 43.4359C582.55 43.4359 581.969 43.3314 581.526 43.1329C580.713 42.7671 580.312 42.2132 580.312 41.4607C580.312 40.4783 580.998 39.7259 582.381 39.2242C582.107 39.0988 581.927 38.9525 581.853 38.7539C581.769 38.5658 581.737 38.2627 581.737 37.8447C581.737 37.4267 581.938 36.9877 582.328 36.5175C582.719 36.0472 583.204 35.6605 583.775 35.3679C585.041 34.6886 586.181 34.3541 587.174 34.3541C587.416 34.3541 587.649 34.4064 587.902 34.5213C588.155 34.6363 588.272 34.7931 588.272 35.0021Z" fill="#ABABAB"/>
<path d="M612.91 27.7278H613.047C613.09 27.7278 613.121 27.7278 613.132 27.7382C613.142 27.7487 613.153 27.7487 613.174 27.7591C613.195 27.7591 613.206 27.7696 613.227 27.7905C613.258 27.8218 613.311 27.8532 613.375 27.8845C613.459 27.9472 613.501 28.0204 613.501 28.104C613.501 28.1876 613.417 28.3653 613.248 28.637C613.079 28.9087 612.646 29.5671 611.939 30.6331C610.324 33.0786 608.878 35.3569 607.6 37.4471C605.394 41.084 604.275 42.9129 604.254 42.9338C604.233 42.9547 604.222 42.9756 604.212 42.9965C604.201 43.0383 604.18 43.0592 604.127 43.0592L603.979 43.0278L603.684 43.101L603.515 43.0696L603.335 43.101H603.272L602.67 43.1846C602.311 43.1846 602.132 43.0592 602.132 42.8188C602.132 42.7143 602.164 42.5889 602.227 42.4426C602.449 41.92 603.578 40.0284 605.605 36.7469C604.275 36.7782 602.955 36.7991 601.657 36.7991L599.335 36.7887C598.954 37.3948 598.427 38.2518 597.762 39.37C596.326 41.8051 595.566 43.0278 595.471 43.0487C595.376 43.0696 595.302 43.0905 595.239 43.0905C595.175 43.0905 595.123 43.0592 595.08 42.986C595.027 42.9233 594.996 42.8815 594.975 42.8815C594.954 42.8815 594.922 42.892 594.859 42.9233C594.806 42.9547 594.721 42.9651 594.605 42.9651L594.352 42.9547L594.257 42.892C594.246 42.892 594.236 42.9024 594.225 42.9233C594.215 42.9442 594.183 42.9547 594.141 42.9547C593.835 42.9547 593.676 42.8293 593.676 42.568C593.676 42.4008 593.74 42.1709 593.856 41.8887C593.982 41.6065 594.141 41.3034 594.341 40.9795C594.542 40.6555 595.049 39.8717 595.883 38.6489C596.706 37.4262 597.118 36.8096 597.118 36.7991C596.98 36.7887 596.822 36.7887 596.643 36.7782C596.273 36.7782 596.02 36.7678 595.861 36.7364C595.45 36.6633 595.165 36.3288 595.017 35.7331C594.932 35.4405 594.901 35.2524 594.911 35.1583C594.911 34.9702 594.996 34.8657 595.165 34.8657L595.45 34.9389C595.598 34.9493 595.935 34.9598 596.484 34.9911C597.033 35.0225 597.424 35.0329 597.667 35.0329L598.279 35.012C599.218 33.5594 600.337 31.9081 601.646 30.0688C600.696 30.8421 599.641 31.2288 598.479 31.2288C597.931 31.2288 597.455 31.1034 597.065 30.8421C596.664 30.5809 596.474 30.2464 596.474 29.8493C596.474 29.4522 596.622 29.1386 596.928 28.8983C597.234 28.6683 597.519 28.5534 597.793 28.5534C598.068 28.5534 598.205 28.5952 598.205 28.6788C598.205 28.7102 598.163 28.7415 598.089 28.7729C598.015 28.8147 597.973 28.846 597.973 28.8774C597.973 28.9923 598.099 29.0968 598.353 29.1804C598.606 29.264 598.891 29.3163 599.208 29.3163C599.525 29.3163 599.905 29.2222 600.369 29.0446C600.834 28.8669 601.309 28.6265 601.805 28.3444C602.501 27.9472 603.05 27.6128 603.452 27.3515C603.684 27.2366 603.895 27.1843 604.106 27.1843C604.317 27.1843 604.454 27.2052 604.549 27.2575C604.644 27.2993 604.708 27.3515 604.75 27.3933C604.792 27.4351 604.845 27.4979 604.887 27.571C604.94 27.6442 604.982 27.7069 605.035 27.7382C605.077 27.78 605.109 27.8218 605.109 27.8741C605.109 27.9263 605.077 27.9995 605.024 28.1145C604.972 28.219 604.697 28.6579 604.201 29.4208C603.705 30.1837 603.061 31.1557 602.28 32.3366C601.499 33.5175 600.929 34.385 600.57 34.9493C602.501 34.9493 604.581 34.918 606.819 34.8448C609.543 30.5913 610.978 28.3653 611.126 28.1563C611.274 27.9472 611.411 27.8114 611.538 27.7487C611.664 27.686 611.812 27.6546 611.992 27.6546L612.91 27.7278Z" fill="#ABABAB"/>
<path d="M616.436 34.8553C616.658 34.8553 616.88 34.9493 617.102 35.1479C617.334 35.3464 617.439 35.6391 617.439 36.0362C617.439 36.4333 617.302 36.9454 617.017 37.5829C616.732 38.21 616.352 38.8579 615.856 39.5163C615.37 40.1643 614.821 40.7809 614.241 41.3557C613.65 41.9305 613.016 42.4008 612.341 42.7666C611.654 43.1323 611.042 43.3205 610.483 43.3205C609.923 43.3205 609.48 43.1428 609.142 42.7979C608.804 42.453 608.635 41.9723 608.635 41.3557C608.635 40.7391 608.794 40.0493 609.1 39.3073C609.406 38.5549 609.796 37.8965 610.282 37.3217C610.768 36.7469 611.285 36.2348 611.855 35.7749C613.027 34.8343 614.061 34.3745 614.948 34.3745C615.349 34.3745 615.645 34.4686 615.845 34.6671C615.919 34.7298 615.951 34.7925 615.951 34.8344V34.8971C616.067 34.8553 616.225 34.8553 616.436 34.8553ZM615.349 36.2766H615.275C615.022 36.2766 614.895 36.0989 614.895 35.7331C614.367 35.9003 613.818 36.2034 613.238 36.6319C612.657 37.0604 612.14 37.5725 611.686 38.1577C610.757 39.3282 610.293 40.3211 610.282 41.1258C610.282 41.5229 610.43 41.7215 610.725 41.7215C611.021 41.7215 611.464 41.5229 612.045 41.1467C612.626 40.7704 613.206 40.2165 613.787 39.4954C614.357 38.7848 614.79 38.1577 615.075 37.6352C615.36 37.1126 615.507 36.7573 615.507 36.5587C615.497 36.3706 615.444 36.2766 615.349 36.2766Z" fill="#ABABAB"/>
<path d="M617.207 43.08L616.679 43.0591H616.489C616.415 43.0382 616.341 42.9964 616.257 42.9337C616.172 42.871 616.109 42.8187 616.067 42.7978C616.025 42.7769 616.003 42.7142 616.003 42.641C616.003 42.5679 616.035 42.432 616.088 42.2544C617.492 39.1923 618.854 36.7363 620.173 34.9074C620.321 34.7088 620.553 34.5521 620.87 34.4476C621.187 34.3431 621.503 34.2908 621.809 34.2908C621.989 34.2908 622.084 34.4267 622.084 34.7088C622.084 34.7924 622.052 34.897 621.999 35.0224C621.947 35.1582 621.799 35.3672 621.567 35.6703C621.334 35.9734 621.06 36.3183 620.743 36.6945C620.427 37.0707 620.247 37.3007 620.205 37.3634C621.197 36.3496 622.084 35.5972 622.886 35.0955C623.689 34.6043 624.259 34.3535 624.617 34.3535C624.976 34.3535 625.251 34.458 625.441 34.6566C625.631 34.8552 625.726 35.0746 625.726 35.3045C625.726 35.5345 625.705 35.733 625.673 35.8793C625.641 36.0361 625.578 36.1929 625.494 36.3601C625.409 36.5273 625.335 36.6736 625.272 36.7886C625.209 36.9035 625.103 37.0603 624.966 37.2484C624.818 37.4365 624.723 37.5724 624.67 37.6455C624.617 37.7187 624.501 37.8545 624.332 38.0531C624.164 38.2517 624.069 38.3666 624.058 38.3875C624.259 38.189 624.544 37.8964 624.902 37.4992C625.261 37.1021 625.568 36.7781 625.821 36.5168C626.074 36.2556 626.38 35.9525 626.76 35.6181C627.14 35.2836 627.489 35.0119 627.806 34.8133C628.587 34.3326 629.378 34.0818 630.181 34.0818C630.455 34.0818 630.687 34.1654 630.877 34.3431C631.067 34.5207 631.162 34.7193 631.162 34.9597C631.162 35.2 630.867 35.7748 630.286 36.6736C629.706 37.5724 629.115 38.4816 628.534 39.3908C627.953 40.3001 627.658 40.8748 627.658 41.1152C627.658 41.4392 627.721 41.6378 627.837 41.7005C627.964 41.7632 628.112 41.7841 628.281 41.7736C628.449 41.7632 628.703 41.6482 629.009 41.4392C629.326 41.2302 629.6 41.0212 629.843 40.7912C630.244 40.4359 630.603 40.091 630.951 39.7566C631.025 39.6939 631.099 39.6625 631.194 39.6625C631.331 39.6625 631.416 39.7671 631.447 39.9761C631.479 40.1851 631.49 40.3941 631.49 40.624C631.49 40.8539 631.469 41.0003 631.426 41.0839C631.215 41.481 630.751 41.9722 630.043 42.5574C629.326 43.1322 628.639 43.4249 627.985 43.4249C627.901 43.4249 627.848 43.4249 627.816 43.4144C627.077 43.3413 626.56 43.1427 626.275 42.8083C625.99 42.4738 625.853 42.0767 625.853 41.6273C625.853 41.1779 626.011 40.6136 626.328 39.9656C626.644 39.3177 626.982 38.722 627.362 38.1994C627.742 37.6769 628.08 37.1961 628.397 36.7677C628.713 36.3392 628.872 36.1093 628.872 36.0779C628.872 36.0465 628.84 36.0256 628.787 36.0256C628.566 36.0256 628.069 36.381 627.288 37.1021C625.969 38.3248 624.829 39.5058 623.868 40.6345C623.615 40.9376 623.013 41.69 622.073 42.9128C621.968 43.0591 621.788 43.1322 621.556 43.1322C621.324 43.1322 621.081 43.0904 620.828 42.9964C620.574 42.9023 620.448 42.7874 620.448 42.6515C620.448 42.5783 621.018 41.5751 622.168 39.6416C623.319 37.7082 623.889 36.6527 623.889 36.4855C623.889 36.3078 623.784 36.2242 623.572 36.2242C623.361 36.2242 622.918 36.5377 622.253 37.1648C620.427 38.8892 619.012 40.6136 618.009 42.3171C617.946 42.4216 617.819 42.5783 617.629 42.7874C617.439 42.9964 617.27 43.08 617.207 43.08Z" fill="#ABABAB"/>
<path d="M638.141 35.0021C638.141 35.4724 637.951 35.8904 637.56 36.2457C637.169 36.6011 636.737 36.7787 636.241 36.7787C636.082 36.7787 635.977 36.7369 635.924 36.6638C635.871 36.5906 635.85 36.4861 635.85 36.3711C635.85 36.2562 635.86 36.1308 635.892 36.0158C635.628 36.0994 635.343 36.2353 635.027 36.4129C634.71 36.5906 634.319 36.8519 633.855 37.2072C633.39 37.5625 633.158 37.8134 633.158 37.991C633.158 38.0433 633.243 38.0746 633.411 38.0746C633.58 38.0746 633.844 38.0119 634.193 37.897C634.541 37.782 634.794 37.7193 634.932 37.7193C635.069 37.7193 635.164 37.7298 635.206 37.7402C635.301 37.7925 635.396 37.897 635.512 38.0642C635.618 38.2314 635.67 38.3673 635.67 38.4613C635.67 38.5554 635.575 38.6808 635.385 38.8375C635.195 38.9943 634.984 39.1093 634.752 39.1929C634.509 39.2765 634.351 39.3392 634.277 39.381C632.757 40.2275 631.997 40.8023 631.997 41.1158C631.997 41.6697 632.472 41.9519 633.433 41.9519C634.045 41.9519 634.668 41.7638 635.28 41.3771C635.808 41.0531 636.283 40.7187 636.705 40.3738C637.127 40.0394 637.391 39.8304 637.507 39.7468C637.623 39.6632 637.708 39.6318 637.761 39.6318C637.951 39.6318 638.046 39.8408 638.046 40.2589C638.046 40.6769 638.025 40.9486 637.972 41.074C637.919 41.2099 637.782 41.3667 637.539 41.5652C635.998 42.8089 634.53 43.4359 633.158 43.4359C632.419 43.4359 631.839 43.3314 631.395 43.1329C630.582 42.7671 630.181 42.2132 630.181 41.4607C630.181 40.4783 630.867 39.7259 632.25 39.2242C631.976 39.0988 631.796 38.9525 631.722 38.7539C631.638 38.5658 631.606 38.2627 631.606 37.8447C631.606 37.4267 631.807 36.9877 632.197 36.5175C632.588 36.0472 633.074 35.6605 633.644 35.3679C634.91 34.6886 636.051 34.3541 637.043 34.3541C637.286 34.3541 637.518 34.4064 637.771 34.5213C638.025 34.6363 638.141 34.7931 638.141 35.0021Z" fill="#ABABAB"/>
<path d="M531.13 45.9743C533.906 47.1239 536.735 48.0122 539.617 48.6915C542.478 49.4022 545.392 49.9038 548.305 50.2173C549.762 50.4159 551.229 50.4368 552.676 50.5727C554.143 50.5831 555.6 50.6981 557.056 50.6145L559.242 50.5622C559.97 50.5518 560.698 50.4577 561.427 50.4159C562.155 50.3532 562.884 50.3218 563.601 50.2278L565.766 49.9247C568.669 49.6112 571.487 48.9423 574.295 48.1376C577.135 47.3643 579.816 46.3401 582.656 45.2741C585.559 44.2185 588.705 43.5288 591.893 43.8632C593.466 44.0618 595.049 44.5634 596.337 45.4831C597.635 46.3923 598.564 47.6882 599.155 49.0468C598.269 47.8345 597.16 46.8417 595.883 46.2251C594.606 45.6085 593.202 45.3577 591.808 45.3995C588.99 45.4413 586.213 46.3714 583.606 47.5419C580.956 48.8378 578.085 50.0083 575.192 50.9803C572.279 51.9104 569.27 52.6524 566.219 53.0286C560.149 53.8229 553.932 53.8333 547.936 52.6315C544.927 52.088 541.992 51.2415 539.153 50.1651C536.334 49.0468 533.579 47.7405 531.13 45.9743Z" fill="#ABABAB"/>
<path d="M632.081 28.5741C629.727 27.5813 627.33 26.8079 624.902 26.2018C622.485 25.5643 620.036 25.1149 617.576 24.8013C616.352 24.6132 615.106 24.5714 613.881 24.4251C612.646 24.3938 611.422 24.2684 610.187 24.3206C609.574 24.3311 608.952 24.3311 608.339 24.3206C607.727 24.3206 607.104 24.3833 606.492 24.4042C605.88 24.446 605.257 24.4565 604.645 24.5192L602.808 24.7386C600.348 24.9372 597.962 25.4388 595.577 26.0554C593.159 26.6302 590.868 27.4454 588.43 28.2606C585.928 29.0862 583.215 29.5878 580.491 29.2116C579.151 28.9921 577.8 28.5219 576.733 27.6858C575.646 26.8602 574.907 25.7315 574.453 24.5505C575.203 25.5852 576.132 26.4317 577.198 26.9542C578.264 27.4768 579.436 27.6962 580.608 27.6858C582.972 27.6858 585.316 26.9333 587.533 25.9927C589.792 24.9268 592.272 23.9862 594.743 23.2128C597.234 22.4708 599.831 21.9065 602.428 21.6347C607.611 21.0913 612.91 21.2167 617.988 22.4081C620.532 22.9411 623.013 23.7563 625.388 24.7595C627.774 25.7837 630.075 26.9751 632.081 28.5741Z" fill="#ABABAB"/>
<path d="M717.141 41.5736V20.1912H729.861V41.5632H717.141V41.5736ZM728.32 36.599L728.647 34.2371L727.465 34.1222L727.106 35.9406C726.367 36.3064 725.459 36.4841 724.372 36.4841C722.894 36.4841 721.722 36.0242 720.867 35.0941C720.001 34.164 719.579 32.9412 719.579 31.4154C719.579 29.9314 720.001 28.7086 720.835 27.7471C721.669 26.7857 722.767 26.3049 724.129 26.3049C724.826 26.3049 725.417 26.3885 725.892 26.5453C726.367 26.702 726.8 26.9111 727.211 27.1828L727.56 28.9803L728.763 28.8654L728.415 26.5035C727.908 26.075 727.306 25.7301 726.61 25.4584C725.913 25.1971 725.047 25.0613 724.023 25.0613C722.809 25.0613 721.764 25.3539 720.888 25.9496C720.012 26.5453 719.326 27.3291 718.84 28.301C718.355 29.2834 718.112 30.3389 718.112 31.4676C718.112 33.2547 718.671 34.7492 719.79 35.9406C720.909 37.132 722.366 37.7277 724.171 37.7277C725.945 37.7277 727.328 37.3515 728.32 36.599Z" fill="#ABABAB"/>
<path d="M734.179 41.5735V20.191H739.647V41.5631H734.179V41.5735ZM734.759 37.5395H739.077V36.463H737.588V24.5281H734.738V25.6046H736.248V36.463H734.759V37.5395Z" fill="#ABABAB"/>
<path d="M743.964 41.5735V20.191H753.571V41.5631H743.964V41.5735ZM745.706 29.764L745.4 31.7079L746.508 31.8438L746.836 30.3911C747.311 30.1612 747.849 30.0462 748.483 30.0462C749.243 30.0462 749.76 30.2343 750.024 30.6105C750.288 30.9868 750.414 31.478 750.414 32.0841V32.8366C750.182 32.8157 749.939 32.7948 749.675 32.7843C749.411 32.7739 749.158 32.7634 748.905 32.7634C747.955 32.7634 747.047 32.9306 746.202 33.2651C745.358 33.5995 744.936 34.2997 744.936 35.3552C744.936 36.254 745.221 36.8706 745.801 37.205C746.382 37.5499 746.952 37.7171 747.511 37.7171C748.197 37.7171 748.789 37.5395 749.274 37.1841C749.76 36.8288 750.14 36.4317 750.414 35.9718V36.0136C750.435 37.1528 750.953 37.7171 751.966 37.7171C752.357 37.7171 752.726 37.6231 753.075 37.435L753.053 36.5675C752.885 36.6407 752.695 36.6825 752.483 36.6825C751.998 36.6825 751.755 36.3794 751.755 35.7733V31.7706C751.755 29.8894 750.742 28.9489 748.715 28.9489C748.155 28.9489 747.627 29.0116 747.131 29.137C746.625 29.2728 746.15 29.4819 745.706 29.764ZM750.404 34.3833C750.351 35.0731 750.066 35.627 749.549 36.0241C749.031 36.4317 748.483 36.6302 747.891 36.6302C747.522 36.6302 747.163 36.5257 746.825 36.3272C746.477 36.1286 746.308 35.7524 746.308 35.2089C746.308 34.5505 746.572 34.1325 747.079 33.9339C747.596 33.7354 748.166 33.6413 748.81 33.6413C749.095 33.6413 749.369 33.6518 749.633 33.6831C749.897 33.704 750.161 33.7249 750.393 33.7354V34.3833H750.404Z" fill="#ABABAB"/>
<path d="M757.899 41.5735V20.191H766.629V41.5631H757.899V41.5735ZM765.711 35.1044C765.711 34.4356 765.531 33.9444 765.172 33.6204C764.813 33.2964 764.381 33.077 763.853 32.9515C763.325 32.8261 762.808 32.7216 762.29 32.638C761.773 32.5544 761.33 32.4185 760.971 32.2409C760.612 32.0632 760.432 31.7497 760.432 31.3003C760.432 30.8718 760.601 30.5583 760.95 30.3493C761.298 30.1403 761.731 30.0462 762.269 30.0462C762.892 30.0462 763.473 30.1821 764.011 30.4642L764.222 31.8229L765.331 31.687L765.12 29.7222C764.761 29.5028 764.328 29.3251 763.811 29.1788C763.293 29.0325 762.744 28.9489 762.153 28.9489C761.372 28.9489 760.654 29.137 759.989 29.5028C759.324 29.8685 758.997 30.4956 758.997 31.3944C758.997 32.0528 759.176 32.5335 759.535 32.8366C759.894 33.1501 760.337 33.3591 760.876 33.4845C761.414 33.6099 761.942 33.7145 762.47 33.8085C762.998 33.8921 763.441 34.0384 763.8 34.2265C764.159 34.4147 764.338 34.7386 764.338 35.2089C764.338 35.6897 764.106 36.045 763.642 36.2749C763.177 36.5048 762.649 36.6198 762.048 36.6198C761.372 36.6198 760.739 36.4839 760.158 36.2018L760.211 35.0835L759.145 34.9686L758.881 36.8811C759.25 37.1214 759.736 37.32 760.327 37.4768C760.918 37.6335 761.509 37.7171 762.111 37.7171C763.135 37.7171 763.99 37.4872 764.676 37.0169C765.362 36.5675 765.711 35.9196 765.711 35.1044Z" fill="#ABABAB"/>
<path d="M770.947 41.5735V20.191H779.677V41.5631H770.947V41.5735ZM778.758 35.1044C778.758 34.4356 778.579 33.9444 778.22 33.6204C777.861 33.2964 777.428 33.077 776.9 32.9515C776.372 32.8261 775.855 32.7216 775.338 32.638C774.821 32.5544 774.377 32.4185 774.018 32.2409C773.66 32.0632 773.48 31.7497 773.48 31.3003C773.48 30.8718 773.649 30.5583 773.997 30.3493C774.346 30.1403 774.778 30.0462 775.317 30.0462C775.94 30.0462 776.52 30.1821 777.059 30.4642L777.27 31.8229L778.378 31.687L778.167 29.7222C777.808 29.5028 777.375 29.3251 776.858 29.1788C776.341 29.0325 775.792 28.9489 775.201 28.9489C774.42 28.9489 773.702 29.137 773.037 29.5028C772.372 29.8685 772.044 30.4956 772.044 31.3944C772.044 32.0528 772.224 32.5335 772.583 32.8366C772.942 33.1501 773.385 33.3591 773.923 33.4845C774.462 33.6099 774.99 33.7145 775.517 33.8085C776.045 33.8921 776.489 34.0384 776.848 34.2265C777.206 34.4147 777.386 34.7386 777.386 35.2089C777.386 35.6897 777.154 36.045 776.689 36.2749C776.225 36.5048 775.697 36.6198 775.095 36.6198C774.42 36.6198 773.786 36.4839 773.206 36.2018L773.258 35.0835L772.192 34.9686L771.928 36.8811C772.298 37.1214 772.783 37.32 773.374 37.4768C773.966 37.6335 774.557 37.7171 775.159 37.7171C776.183 37.7171 777.038 37.4872 777.724 37.0169C778.41 36.5675 778.758 35.9196 778.758 35.1044Z" fill="#ABABAB"/>
<path d="M783.994 41.5735V20.191H789.748V41.5631H783.994V41.5735ZM784.839 37.5395H789.156V36.463H787.668V29.1265H784.807V30.203H786.338V36.463H784.849V37.5395H784.839ZM786.19 25.2284V26.9527H787.647V25.2284H786.19Z" fill="#ABABAB"/>
<path d="M794.065 41.5735V20.191H803.26V41.5631H794.065V41.5735ZM802.436 34.7073L801.286 34.4565C801.032 35.8778 800.262 36.5884 798.995 36.5884C798.151 36.5884 797.507 36.3063 797.063 35.7419C796.62 35.1776 796.398 34.3833 796.398 33.38C796.398 32.4708 796.599 31.6974 796.989 31.0495C797.38 30.4015 798.034 30.088 798.942 30.088C799.639 30.088 800.251 30.2448 800.758 30.5583L801.085 31.9796L802.194 31.8438L801.866 29.8163C801.434 29.4923 800.98 29.2624 800.505 29.137C800.03 29.0116 799.512 28.9489 798.953 28.9489C797.633 28.9489 796.63 29.4087 795.976 30.3284C795.311 31.2481 794.984 32.2931 794.984 33.4532C794.984 34.8013 795.332 35.8569 796.039 36.5989C796.736 37.3514 797.676 37.7276 798.847 37.7276C800.019 37.7276 800.885 37.4036 801.434 36.7661C801.983 36.1182 802.32 35.4388 802.436 34.7073Z" fill="#ABABAB"/>
<path d="M722.64 53.2478C722.398 53.6868 722.039 54.0317 721.574 54.272C721.099 54.5124 720.54 54.6378 719.885 54.6378H717.996V48.7435H719.885C720.54 48.7435 721.11 48.8585 721.574 49.0989C722.039 49.3392 722.398 49.6737 722.64 50.123C722.883 50.5724 722.999 51.0845 722.999 51.6907C722.999 52.2864 722.883 52.8089 722.64 53.2478ZM721.595 53.3628C722.007 52.9657 722.208 52.4118 722.208 51.6907C722.208 50.9696 722.007 50.4157 721.595 50.0185C721.184 49.6214 720.592 49.4228 719.811 49.4228H718.745V53.9585H719.811C720.592 53.9585 721.184 53.7599 721.595 53.3628Z" fill="#ABABAB"/>
<path d="M726.916 49.3601V51.3771H729.175V51.9624H726.916V54.0212H729.428V54.6378H726.145V48.7435H729.428V49.3601H726.916Z" fill="#ABABAB"/>
<path d="M736.1 53.8846C735.963 54.125 735.762 54.3235 735.488 54.4698C735.213 54.6161 734.875 54.6998 734.464 54.6998C734.073 54.6998 733.714 54.6266 733.408 54.4907C733.102 54.3444 732.859 54.1563 732.669 53.9055C732.49 53.6547 732.384 53.3725 732.352 53.059H733.176C733.197 53.2262 733.25 53.3934 733.345 53.5502C733.44 53.7069 733.587 53.8428 733.767 53.9473C733.946 54.0518 734.168 54.1041 734.432 54.1041C734.77 54.1041 735.034 54.0204 735.213 53.8323C735.393 53.6442 735.488 53.4247 735.488 53.1426C735.488 52.9022 735.424 52.7036 735.298 52.5573C735.171 52.411 735.013 52.2856 734.833 52.202C734.654 52.1184 734.39 52.0243 734.073 51.9198C733.693 51.7944 733.397 51.6795 733.165 51.5749C732.933 51.4704 732.743 51.3032 732.585 51.0838C732.426 50.8643 732.342 50.5821 732.342 50.2268C732.342 49.9237 732.416 49.652 732.563 49.4116C732.711 49.1817 732.922 48.9936 733.207 48.8682C733.482 48.7428 733.82 48.6801 734.189 48.6801C734.77 48.6801 735.245 48.8159 735.583 49.0981C735.931 49.3803 736.121 49.7356 736.184 50.1745H735.361C735.319 49.9446 735.192 49.7356 735.002 49.5579C734.801 49.3803 734.538 49.2862 734.2 49.2862C733.894 49.2862 733.64 49.3698 733.461 49.5266C733.271 49.6833 733.186 49.9133 733.186 50.1954C733.186 50.4253 733.25 50.6135 733.366 50.7493C733.492 50.8956 733.64 51.0001 733.82 51.0838C733.999 51.1674 734.252 51.251 734.559 51.3555C734.939 51.4809 735.245 51.5958 735.488 51.7108C735.72 51.8258 735.92 51.993 736.079 52.2124C736.237 52.4319 736.322 52.735 736.322 53.1112C736.3 53.3829 736.237 53.6442 736.1 53.8846Z" fill="#ABABAB"/>
<path d="M740.217 48.7435V54.6378H739.446V48.7435H740.217Z" fill="#ABABAB"/>
<path d="M748.008 49.1921C748.483 49.537 748.799 49.9968 748.958 50.582H748.145C748.008 50.2267 747.765 49.9341 747.438 49.7251C747.11 49.5056 746.72 49.4011 746.266 49.4011C745.865 49.4011 745.495 49.4952 745.178 49.6833C744.862 49.8714 744.608 50.1327 744.418 50.4775C744.239 50.8224 744.144 51.23 744.144 51.7003C744.144 52.181 744.239 52.5991 744.418 52.9439C744.598 53.2888 744.862 53.5605 745.189 53.7487C745.516 53.9368 745.896 54.0308 746.329 54.0308C746.699 54.0308 747.026 53.9472 747.332 53.8009C747.638 53.6441 747.881 53.4142 748.081 53.1216C748.282 52.829 748.388 52.4737 748.43 52.0765H746.086V51.5122H749.074V52.2124C749.021 52.6827 748.873 53.1007 748.63 53.4874C748.388 53.8741 748.06 54.1667 747.649 54.3862C747.237 54.6056 746.772 54.7206 746.245 54.7206C745.675 54.7206 745.168 54.5952 744.725 54.3444C744.281 54.0935 743.943 53.7382 743.701 53.2784C743.458 52.829 743.331 52.3064 743.331 51.7212C743.331 51.1359 743.458 50.6134 743.701 50.164C743.943 49.7146 744.292 49.3488 744.725 49.098C745.157 48.8472 745.664 48.7113 746.234 48.7113C746.952 48.6904 747.533 48.8577 748.008 49.1921Z" fill="#ABABAB"/>
<path d="M756.864 54.6378H756.094L753.001 49.9767V54.6378H752.23V48.7435H753.001L756.094 53.4046V48.7435H756.864V54.6378Z" fill="#ABABAB"/>
<path d="M767.97 53.8846C767.832 54.125 767.632 54.3235 767.357 54.4698C767.083 54.6161 766.745 54.6998 766.333 54.6998C765.943 54.6998 765.584 54.6266 765.278 54.4907C764.971 54.3444 764.729 54.1563 764.539 53.9055C764.359 53.6547 764.254 53.3725 764.222 53.059H765.045C765.066 53.2262 765.119 53.3934 765.214 53.5502C765.309 53.7069 765.457 53.8428 765.637 53.9473C765.816 54.0518 766.038 54.1041 766.302 54.1041C766.639 54.1041 766.903 54.0204 767.083 53.8323C767.262 53.6442 767.357 53.4247 767.357 53.1426C767.357 52.9022 767.294 52.7036 767.167 52.5573C767.041 52.411 766.882 52.2856 766.703 52.202C766.523 52.1184 766.259 52.0243 765.943 51.9198C765.563 51.7944 765.267 51.6795 765.035 51.5749C764.803 51.4704 764.613 51.3032 764.454 51.0838C764.296 50.8643 764.211 50.5821 764.211 50.2268C764.211 49.9237 764.285 49.652 764.433 49.4116C764.581 49.1817 764.792 48.9936 765.077 48.8682C765.352 48.7428 765.689 48.6801 766.059 48.6801C766.639 48.6801 767.114 48.8159 767.452 49.0981C767.801 49.3803 767.991 49.7356 768.054 50.1745H767.231C767.188 49.9446 767.062 49.7356 766.872 49.5579C766.671 49.3803 766.407 49.2862 766.069 49.2862C765.763 49.2862 765.51 49.3698 765.33 49.5266C765.14 49.6833 765.056 49.9133 765.056 50.1954C765.056 50.4253 765.119 50.6135 765.235 50.7493C765.362 50.8956 765.51 51.0001 765.689 51.0838C765.869 51.1674 766.122 51.251 766.428 51.3555C766.808 51.4809 767.114 51.5958 767.357 51.7108C767.589 51.8258 767.79 51.993 767.948 52.2124C768.107 52.4319 768.191 52.735 768.191 53.1112C768.17 53.3829 768.107 53.6442 767.97 53.8846Z" fill="#ABABAB"/>
<path d="M774.968 48.7435V49.3601H773.29V54.6378H772.509V49.3601H770.83V48.7435H774.968Z" fill="#ABABAB"/>
<path d="M778.558 48.7435V52.2759C778.558 52.8507 778.685 53.2792 778.949 53.5614C779.213 53.8331 779.561 53.9794 780.025 53.9794C780.479 53.9794 780.828 53.8436 781.081 53.5614C781.334 53.2792 781.461 52.8612 781.461 52.2864V48.754H782.232V52.2864C782.232 53.0911 782.031 53.6972 781.63 54.0944C781.229 54.502 780.69 54.7005 780.015 54.7005C779.35 54.7005 778.811 54.502 778.41 54.0944C778.009 53.6868 777.809 53.0911 777.809 52.2864V48.754H778.558V48.7435Z" fill="#ABABAB"/>
<path d="M790.18 53.2478C789.937 53.6868 789.578 54.0317 789.114 54.272C788.639 54.5124 788.079 54.6378 787.425 54.6378H785.535V48.7435H787.425C788.079 48.7435 788.649 48.8585 789.114 49.0989C789.578 49.3392 789.937 49.6737 790.18 50.123C790.423 50.5724 790.539 51.0845 790.539 51.6907C790.539 52.2864 790.423 52.8089 790.18 53.2478ZM789.146 53.3628C789.557 52.9657 789.758 52.4118 789.758 51.6907C789.758 50.9696 789.557 50.4157 789.146 50.0185C788.734 49.6214 788.143 49.4228 787.362 49.4228H786.295V53.9585H787.362C788.132 53.9585 788.734 53.7599 789.146 53.3628Z" fill="#ABABAB"/>
<path d="M794.466 48.7435V54.6378H793.696V48.7435H794.466Z" fill="#ABABAB"/>
<path d="M802.025 49.0566C802.468 49.3179 802.816 49.6732 803.07 50.133C803.323 50.5929 803.45 51.1154 803.45 51.6902C803.45 52.265 803.323 52.7876 803.07 53.2474C802.816 53.7072 802.468 54.0626 802.025 54.3238C801.581 54.5851 801.085 54.7105 800.536 54.7105C799.987 54.7105 799.481 54.5851 799.037 54.3238C798.594 54.0626 798.235 53.7072 797.982 53.2474C797.728 52.7876 797.602 52.265 797.602 51.6902C797.602 51.1154 797.728 50.5929 797.982 50.133C798.235 49.6732 798.583 49.3179 799.037 49.0566C799.491 48.7953 799.987 48.6699 800.536 48.6699C801.085 48.6699 801.581 48.7953 802.025 49.0566ZM799.428 49.6628C799.101 49.8509 798.847 50.1121 798.668 50.4675C798.488 50.8123 798.393 51.2199 798.393 51.6902C798.393 52.1501 798.488 52.5576 798.668 52.913C798.847 53.2683 799.101 53.5296 799.428 53.7177C799.755 53.9058 800.114 53.9999 800.526 53.9999C800.927 53.9999 801.296 53.9058 801.624 53.7177C801.951 53.5296 802.204 53.2578 802.384 52.913C802.563 52.5681 802.658 52.1605 802.658 51.7007C802.658 51.2304 802.563 50.8228 802.384 50.4779C802.204 50.133 801.951 49.8613 801.624 49.6732C801.296 49.4851 800.937 49.391 800.526 49.391C800.125 49.3806 799.755 49.4746 799.428 49.6628Z" fill="#ABABAB"/>
</svg>
