<svg width="40" height="42" viewBox="0 0 40 42" fill="none" xmlns="http://www.w3.org/2000/svg">
<path d="M26.5461 21.6548C26.5461 25.0421 23.8001 27.788 20.4128 27.788C17.0255 27.788 14.2796 25.0421 14.2796 21.6548C14.2796 18.2675 17.0255 15.5215 20.4128 15.5215C23.8001 15.5215 26.5461 18.2675 26.5461 21.6548Z" stroke="#5956E9" stroke-width="2.12656"/>
<line x1="6.56191" y1="7.27891" x2="16.4859" y2="17.2029" stroke="#5956E9" stroke-width="2.12656"/>
<line x1="17.5396" y1="27.0512" x2="15.2073" y2="32.2393" stroke="#5956E9" stroke-width="2.12656"/>
<line x1="24.8831" y1="19.0517" x2="29.9111" y2="15.3525" stroke="#5956E9" stroke-width="2.12656"/>
<circle cx="7.14922" cy="6.9937" r="6.37969" fill="#38D4FF"/>
<path d="M38.3906 12.5133C38.3906 14.9745 36.3954 16.9697 33.9342 16.9697C31.473 16.9697 29.4778 14.9745 29.4778 12.5133C29.4778 10.0521 31.473 8.05693 33.9342 8.05693C36.3954 8.05693 38.3906 10.0521 38.3906 12.5133Z" stroke="#E541ED" stroke-width="2.12656"/>
<path d="M17.834 35.9055C17.834 38.3667 15.8388 40.3619 13.3776 40.3619C10.9164 40.3619 8.92119 38.3667 8.92119 35.9055C8.92119 33.4443 10.9164 31.4491 13.3776 31.4491C15.8388 31.4491 17.834 33.4443 17.834 35.9055Z" stroke="#E541ED" stroke-width="2.12656"/>
</svg>
