<svg width="1220" height="260" viewBox="0 0 1220 260" fill="none" xmlns="http://www.w3.org/2000/svg">
<path d="M247 130C248.657 130 250.004 131.344 249.963 133C249.235 162.117 237.936 190.018 218.119 211.456C197.622 233.63 169.518 247.261 139.415 249.63C109.312 251.999 79.4223 242.932 55.7087 224.238C31.9952 205.544 16.2011 178.597 11.4774 148.772C6.75368 118.948 13.4476 88.4388 30.2236 63.3316C46.9997 38.2244 72.6247 20.3648 101.987 13.3156C131.348 6.26646 162.289 10.546 188.635 25.3005C214.107 39.5657 233.474 62.6088 243.164 90.0765C243.715 91.6389 242.849 93.333 241.274 93.845C239.698 94.357 238.009 93.4928 237.456 91.9311C228.234 65.8992 209.858 44.0629 185.703 30.5355C160.674 16.5187 131.281 12.4531 103.387 19.1498C75.4935 25.8465 51.1497 42.8132 35.2125 66.665C19.2752 90.5168 12.916 119.5 17.4035 147.834C21.8911 176.167 36.8954 201.767 59.4233 219.526C81.9512 237.286 110.346 245.899 138.944 243.649C167.542 241.398 194.24 228.448 213.713 207.383C232.505 187.054 243.234 160.607 243.961 133C244.004 131.344 245.343 130 247 130Z" fill="url(#paint0_radial_14_3970)"/>
<path d="M567 130C568.657 130 570.004 131.344 569.963 133C569.235 162.117 557.936 190.018 538.119 211.456C517.622 233.63 489.518 247.261 459.415 249.63C429.312 251.999 399.422 242.932 375.709 224.238C351.995 205.544 336.201 178.597 331.477 148.772C326.754 118.948 333.448 88.4388 350.224 63.3316C367 38.2244 392.625 20.3648 421.987 13.3156C451.348 6.26646 482.289 10.546 508.635 25.3005C534.107 39.5657 553.474 62.6088 563.164 90.0765C563.715 91.6389 562.849 93.333 561.274 93.845C559.698 94.357 558.009 93.4928 557.456 91.9311C548.234 65.8992 529.858 44.0629 505.703 30.5355C480.674 16.5187 451.281 12.4531 423.387 19.1498C395.493 25.8465 371.15 42.8132 355.212 66.665C339.275 90.5168 332.916 119.5 337.404 147.834C341.891 176.167 356.895 201.767 379.423 219.526C401.951 237.286 430.346 245.899 458.944 243.649C487.542 241.398 514.24 228.448 533.713 207.383C552.505 187.054 563.234 160.607 563.961 133C564.004 131.344 565.343 130 567 130Z" fill="url(#paint1_radial_14_3970)"/>
<path d="M887 130C888.657 130 890.004 131.344 889.963 133C889.235 162.117 877.936 190.018 858.119 211.456C837.622 233.63 809.518 247.261 779.415 249.63C749.312 251.999 719.422 242.932 695.709 224.238C671.995 205.544 656.201 178.597 651.477 148.772C646.754 118.948 653.448 88.4388 670.224 63.3316C687 38.2244 712.625 20.3648 741.987 13.3156C771.348 6.26646 802.289 10.546 828.635 25.3005C854.107 39.5657 873.474 62.6088 883.164 90.0765C883.715 91.6389 882.849 93.333 881.274 93.845C879.698 94.357 878.009 93.4928 877.456 91.9311C868.234 65.8992 849.858 44.0629 825.703 30.5355C800.674 16.5187 771.281 12.4531 743.387 19.1498C715.493 25.8465 691.15 42.8132 675.212 66.665C659.275 90.5168 652.916 119.5 657.404 147.834C661.891 176.167 676.895 201.767 699.423 219.526C721.951 237.286 750.346 245.899 778.944 243.649C807.542 241.398 834.24 228.448 853.713 207.383C872.505 187.054 883.234 160.607 883.961 133C884.004 131.344 885.343 130 887 130Z" fill="url(#paint2_radial_14_3970)"/>
<path d="M1207 130C1208.66 130 1210 131.344 1209.96 133C1209.24 162.117 1197.94 190.018 1178.12 211.456C1157.62 233.63 1129.52 247.261 1099.42 249.63C1069.31 251.999 1039.42 242.932 1015.71 224.238C991.995 205.544 976.201 178.597 971.477 148.772C966.754 118.948 973.448 88.4388 990.224 63.3316C1007 38.2244 1032.62 20.3648 1061.99 13.3156C1091.35 6.26646 1122.29 10.546 1148.63 25.3005C1174.11 39.5657 1193.47 62.6088 1203.16 90.0765C1203.72 91.6389 1202.85 93.333 1201.27 93.845C1199.7 94.357 1198.01 93.4928 1197.46 91.9311C1188.23 65.8992 1169.86 44.0629 1145.7 30.5355C1120.67 16.5187 1091.28 12.4531 1063.39 19.1498C1035.49 25.8465 1011.15 42.8132 995.212 66.665C979.275 90.5168 972.916 119.5 977.404 147.834C981.891 176.167 996.895 201.767 1019.42 219.526C1041.95 237.286 1070.35 245.899 1098.94 243.649C1127.54 241.398 1154.24 228.448 1173.71 207.383C1192.51 187.054 1203.23 160.607 1203.96 133C1204 131.344 1205.34 130 1207 130Z" fill="url(#paint3_radial_14_3970)"/>
<path d="M60.6293 144V139.463H66.3001V123.62H68.8874L61.2318 128.086V122.912L67.895 119.013H71.8291V139.463H77.1456V144H60.6293ZM88.9341 144.39C85.9333 144.39 83.6177 143.268 81.9874 141.023C80.3806 138.754 79.5773 135.565 79.5773 131.453C79.5773 127.271 80.3806 124.093 81.9874 121.919C83.6177 119.722 85.9333 118.623 88.9341 118.623C91.9586 118.623 94.2742 119.722 95.8809 121.919C97.4876 124.093 98.291 127.259 98.291 131.418C98.291 135.553 97.4876 138.754 95.8809 141.023C94.2742 143.268 91.9586 144.39 88.9341 144.39ZM88.9341 139.924C90.3046 139.924 91.3206 139.251 91.9822 137.904C92.6674 136.533 93.01 134.371 93.01 131.418C93.01 128.464 92.6674 126.338 91.9822 125.038C91.3206 123.739 90.3046 123.089 88.9341 123.089C87.5637 123.089 86.5358 123.739 85.8506 125.038C85.189 126.338 84.8582 128.452 84.8582 131.382C84.8582 134.36 85.2008 136.533 85.8861 137.904C86.5713 139.251 87.5873 139.924 88.9341 139.924ZM111.576 152.045L110.336 147.863C111.446 147.651 112.38 147.402 113.136 147.119C113.915 146.835 114.553 146.457 115.05 145.985C115.546 145.536 115.947 144.945 116.255 144.213L117.141 142.122L116.999 144.177L109.202 126.031H114.837L119.976 139.038H118.877L124.087 126.031H129.404L121.288 144.709C120.697 146.056 120.059 147.166 119.374 148.04C118.712 148.938 117.991 149.647 117.212 150.167C116.432 150.687 115.569 151.089 114.624 151.372C113.703 151.656 112.687 151.88 111.576 152.045ZM139.863 144.39C136.744 144.39 134.31 143.551 132.561 141.873C130.813 140.196 129.939 137.916 129.939 135.033C129.939 133.166 130.305 131.536 131.037 130.142C131.793 128.748 132.833 127.661 134.156 126.881C135.503 126.078 137.074 125.676 138.87 125.676C140.642 125.676 142.119 126.054 143.3 126.81C144.506 127.566 145.403 128.63 145.994 130C146.608 131.347 146.916 132.918 146.916 134.714V135.955H134.333V133.296H143.017L142.414 133.793C142.414 132.304 142.107 131.182 141.493 130.425C140.902 129.646 140.04 129.256 138.906 129.256C137.653 129.256 136.684 129.717 135.999 130.638C135.338 131.56 135.007 132.883 135.007 134.608V135.175C135.007 136.923 135.432 138.223 136.283 139.073C137.157 139.924 138.409 140.349 140.04 140.349C141.009 140.349 141.918 140.231 142.769 139.995C143.643 139.735 144.47 139.333 145.25 138.79L146.738 142.334C145.841 142.996 144.801 143.504 143.619 143.858C142.462 144.213 141.209 144.39 139.863 144.39ZM157.293 144.39C155.734 144.39 154.363 144.012 153.182 143.256C152.001 142.5 151.079 141.424 150.418 140.03C149.756 138.636 149.425 136.959 149.425 134.998C149.425 133.06 149.756 131.394 150.418 130C151.079 128.606 152.001 127.543 153.182 126.81C154.363 126.054 155.734 125.676 157.293 125.676C158.735 125.676 160.022 126.031 161.157 126.739C162.314 127.425 163.071 128.358 163.425 129.539H163.035L163.46 126.031H168.6C168.529 126.81 168.458 127.602 168.387 128.405C168.34 129.185 168.316 129.953 168.316 130.709V144H163L162.964 140.633H163.39C163.011 141.767 162.255 142.677 161.121 143.362C159.987 144.047 158.711 144.39 157.293 144.39ZM158.924 140.349C160.152 140.349 161.145 139.912 161.901 139.038C162.657 138.164 163.035 136.817 163.035 134.998C163.035 133.178 162.657 131.843 161.901 130.993C161.145 130.142 160.152 129.717 158.924 129.717C157.695 129.717 156.703 130.142 155.947 130.993C155.19 131.843 154.812 133.178 154.812 134.998C154.812 136.817 155.179 138.164 155.911 139.038C156.667 139.912 157.671 140.349 158.924 140.349ZM172.67 144V130.78C172.67 130 172.646 129.209 172.599 128.405C172.575 127.602 172.516 126.81 172.422 126.031H177.561L178.163 131.276H177.348C177.584 130 177.963 128.949 178.482 128.122C179.026 127.295 179.687 126.68 180.467 126.279C181.27 125.877 182.18 125.676 183.196 125.676C183.645 125.676 184 125.7 184.259 125.747C184.519 125.771 184.779 125.83 185.039 125.924L185.004 130.638C184.508 130.425 184.082 130.295 183.728 130.248C183.397 130.177 182.972 130.142 182.452 130.142C181.46 130.142 180.633 130.331 179.971 130.709C179.333 131.087 178.849 131.642 178.518 132.375C178.211 133.107 178.057 133.993 178.057 135.033V144H172.67ZM193.732 144.39C192.125 144.39 190.66 144.213 189.337 143.858C188.013 143.504 186.891 143.008 185.97 142.37L187.352 138.825C188.273 139.392 189.289 139.841 190.4 140.172C191.534 140.503 192.656 140.668 193.767 140.668C194.807 140.668 195.575 140.503 196.071 140.172C196.567 139.841 196.815 139.392 196.815 138.825C196.815 138.353 196.65 137.987 196.319 137.727C196.012 137.467 195.527 137.278 194.866 137.16L191.215 136.486C189.679 136.179 188.51 135.612 187.706 134.785C186.903 133.958 186.501 132.883 186.501 131.56C186.501 130.402 186.808 129.386 187.423 128.512C188.061 127.614 188.97 126.917 190.152 126.42C191.333 125.924 192.716 125.676 194.299 125.676C195.645 125.676 196.921 125.842 198.126 126.172C199.331 126.503 200.359 127.011 201.21 127.696L199.757 131.134C199.024 130.591 198.174 130.154 197.205 129.823C196.26 129.492 195.35 129.327 194.476 129.327C193.342 129.327 192.527 129.516 192.03 129.894C191.534 130.248 191.286 130.709 191.286 131.276C191.286 131.701 191.428 132.056 191.711 132.339C192.018 132.623 192.479 132.836 193.094 132.977L196.78 133.651C198.363 133.934 199.568 134.466 200.395 135.246C201.222 136.025 201.635 137.1 201.635 138.471C201.635 139.723 201.304 140.787 200.643 141.661C199.981 142.535 199.048 143.208 197.843 143.681C196.661 144.154 195.291 144.39 193.732 144.39Z" fill="#43E785"/>
<path d="M380.629 144V139.463H386.3V123.62H388.887L381.232 128.086V122.912L387.895 119.013H391.829V139.463H397.146V144H380.629ZM408.934 144.39C405.933 144.39 403.618 143.268 401.987 141.023C400.381 138.754 399.577 135.565 399.577 131.453C399.577 127.271 400.381 124.093 401.987 121.919C403.618 119.722 405.933 118.623 408.934 118.623C411.959 118.623 414.274 119.722 415.881 121.919C417.488 124.093 418.291 127.259 418.291 131.418C418.291 135.553 417.488 138.754 415.881 141.023C414.274 143.268 411.959 144.39 408.934 144.39ZM408.934 139.924C410.305 139.924 411.321 139.251 411.982 137.904C412.667 136.533 413.01 134.371 413.01 131.418C413.01 128.464 412.667 126.338 411.982 125.038C411.321 123.739 410.305 123.089 408.934 123.089C407.564 123.089 406.536 123.739 405.851 125.038C405.189 126.338 404.858 128.452 404.858 131.382C404.858 134.36 405.201 136.533 405.886 137.904C406.571 139.251 407.587 139.924 408.934 139.924ZM431.576 152.045L430.336 147.863C431.446 147.651 432.38 147.402 433.136 147.119C433.915 146.835 434.553 146.457 435.05 145.985C435.546 145.536 435.947 144.945 436.255 144.213L437.141 142.122L436.999 144.177L429.202 126.031H434.837L439.976 139.038H438.877L444.087 126.031H449.404L441.288 144.709C440.697 146.056 440.059 147.166 439.374 148.04C438.712 148.938 437.991 149.647 437.212 150.167C436.432 150.687 435.569 151.089 434.624 151.372C433.703 151.656 432.687 151.88 431.576 152.045ZM459.863 144.39C456.744 144.39 454.31 143.551 452.561 141.873C450.813 140.196 449.939 137.916 449.939 135.033C449.939 133.166 450.305 131.536 451.037 130.142C451.793 128.748 452.833 127.661 454.156 126.881C455.503 126.078 457.074 125.676 458.87 125.676C460.642 125.676 462.119 126.054 463.3 126.81C464.506 127.566 465.403 128.63 465.994 130C466.608 131.347 466.916 132.918 466.916 134.714V135.955H454.333V133.296H463.017L462.414 133.793C462.414 132.304 462.107 131.182 461.493 130.425C460.902 129.646 460.04 129.256 458.906 129.256C457.653 129.256 456.684 129.717 455.999 130.638C455.338 131.56 455.007 132.883 455.007 134.608V135.175C455.007 136.923 455.432 138.223 456.283 139.073C457.157 139.924 458.409 140.349 460.04 140.349C461.009 140.349 461.918 140.231 462.769 139.995C463.643 139.735 464.47 139.333 465.25 138.79L466.738 142.334C465.841 142.996 464.801 143.504 463.619 143.858C462.462 144.213 461.209 144.39 459.863 144.39ZM477.293 144.39C475.734 144.39 474.363 144.012 473.182 143.256C472.001 142.5 471.079 141.424 470.418 140.03C469.756 138.636 469.425 136.959 469.425 134.998C469.425 133.06 469.756 131.394 470.418 130C471.079 128.606 472.001 127.543 473.182 126.81C474.363 126.054 475.734 125.676 477.293 125.676C478.735 125.676 480.022 126.031 481.157 126.739C482.314 127.425 483.071 128.358 483.425 129.539H483.035L483.46 126.031H488.6C488.529 126.81 488.458 127.602 488.387 128.405C488.34 129.185 488.316 129.953 488.316 130.709V144H483L482.964 140.633H483.39C483.011 141.767 482.255 142.677 481.121 143.362C479.987 144.047 478.711 144.39 477.293 144.39ZM478.924 140.349C480.152 140.349 481.145 139.912 481.901 139.038C482.657 138.164 483.035 136.817 483.035 134.998C483.035 133.178 482.657 131.843 481.901 130.993C481.145 130.142 480.152 129.717 478.924 129.717C477.695 129.717 476.703 130.142 475.947 130.993C475.19 131.843 474.812 133.178 474.812 134.998C474.812 136.817 475.179 138.164 475.911 139.038C476.667 139.912 477.671 140.349 478.924 140.349ZM492.67 144V130.78C492.67 130 492.646 129.209 492.599 128.405C492.575 127.602 492.516 126.81 492.422 126.031H497.561L498.163 131.276H497.348C497.584 130 497.963 128.949 498.482 128.122C499.026 127.295 499.687 126.68 500.467 126.279C501.27 125.877 502.18 125.676 503.196 125.676C503.645 125.676 504 125.7 504.259 125.747C504.519 125.771 504.779 125.83 505.039 125.924L505.004 130.638C504.508 130.425 504.082 130.295 503.728 130.248C503.397 130.177 502.972 130.142 502.452 130.142C501.46 130.142 500.633 130.331 499.971 130.709C499.333 131.087 498.849 131.642 498.518 132.375C498.211 133.107 498.057 133.993 498.057 135.033V144H492.67ZM513.732 144.39C512.125 144.39 510.66 144.213 509.337 143.858C508.013 143.504 506.891 143.008 505.97 142.37L507.352 138.825C508.273 139.392 509.289 139.841 510.4 140.172C511.534 140.503 512.656 140.668 513.767 140.668C514.807 140.668 515.575 140.503 516.071 140.172C516.567 139.841 516.815 139.392 516.815 138.825C516.815 138.353 516.65 137.987 516.319 137.727C516.012 137.467 515.527 137.278 514.866 137.16L511.215 136.486C509.679 136.179 508.51 135.612 507.706 134.785C506.903 133.958 506.501 132.883 506.501 131.56C506.501 130.402 506.808 129.386 507.423 128.512C508.061 127.614 508.97 126.917 510.152 126.42C511.333 125.924 512.716 125.676 514.299 125.676C515.645 125.676 516.921 125.842 518.126 126.172C519.331 126.503 520.359 127.011 521.21 127.696L519.757 131.134C519.024 130.591 518.174 130.154 517.205 129.823C516.26 129.492 515.35 129.327 514.476 129.327C513.342 129.327 512.527 129.516 512.03 129.894C511.534 130.248 511.286 130.709 511.286 131.276C511.286 131.701 511.428 132.056 511.711 132.339C512.018 132.623 512.479 132.836 513.094 132.977L516.78 133.651C518.363 133.934 519.568 134.466 520.395 135.246C521.222 136.025 521.635 137.1 521.635 138.471C521.635 139.723 521.304 140.787 520.643 141.661C519.981 142.535 519.048 143.208 517.843 143.681C516.661 144.154 515.291 144.39 513.732 144.39Z" fill="#C9B335"/>
<path d="M380.629 144V139.463H386.3V123.62H388.887L381.232 128.086V122.912L387.895 119.013H391.829V139.463H397.146V144H380.629ZM408.934 144.39C405.933 144.39 403.618 143.268 401.987 141.023C400.381 138.754 399.577 135.565 399.577 131.453C399.577 127.271 400.381 124.093 401.987 121.919C403.618 119.722 405.933 118.623 408.934 118.623C411.959 118.623 414.274 119.722 415.881 121.919C417.488 124.093 418.291 127.259 418.291 131.418C418.291 135.553 417.488 138.754 415.881 141.023C414.274 143.268 411.959 144.39 408.934 144.39ZM408.934 139.924C410.305 139.924 411.321 139.251 411.982 137.904C412.667 136.533 413.01 134.371 413.01 131.418C413.01 128.464 412.667 126.338 411.982 125.038C411.321 123.739 410.305 123.089 408.934 123.089C407.564 123.089 406.536 123.739 405.851 125.038C405.189 126.338 404.858 128.452 404.858 131.382C404.858 134.36 405.201 136.533 405.886 137.904C406.571 139.251 407.587 139.924 408.934 139.924ZM431.576 152.045L430.336 147.863C431.446 147.651 432.38 147.402 433.136 147.119C433.915 146.835 434.553 146.457 435.05 145.985C435.546 145.536 435.947 144.945 436.255 144.213L437.141 142.122L436.999 144.177L429.202 126.031H434.837L439.976 139.038H438.877L444.087 126.031H449.404L441.288 144.709C440.697 146.056 440.059 147.166 439.374 148.04C438.712 148.938 437.991 149.647 437.212 150.167C436.432 150.687 435.569 151.089 434.624 151.372C433.703 151.656 432.687 151.88 431.576 152.045ZM459.863 144.39C456.744 144.39 454.31 143.551 452.561 141.873C450.813 140.196 449.939 137.916 449.939 135.033C449.939 133.166 450.305 131.536 451.037 130.142C451.793 128.748 452.833 127.661 454.156 126.881C455.503 126.078 457.074 125.676 458.87 125.676C460.642 125.676 462.119 126.054 463.3 126.81C464.506 127.566 465.403 128.63 465.994 130C466.608 131.347 466.916 132.918 466.916 134.714V135.955H454.333V133.296H463.017L462.414 133.793C462.414 132.304 462.107 131.182 461.493 130.425C460.902 129.646 460.04 129.256 458.906 129.256C457.653 129.256 456.684 129.717 455.999 130.638C455.338 131.56 455.007 132.883 455.007 134.608V135.175C455.007 136.923 455.432 138.223 456.283 139.073C457.157 139.924 458.409 140.349 460.04 140.349C461.009 140.349 461.918 140.231 462.769 139.995C463.643 139.735 464.47 139.333 465.25 138.79L466.738 142.334C465.841 142.996 464.801 143.504 463.619 143.858C462.462 144.213 461.209 144.39 459.863 144.39ZM477.293 144.39C475.734 144.39 474.363 144.012 473.182 143.256C472.001 142.5 471.079 141.424 470.418 140.03C469.756 138.636 469.425 136.959 469.425 134.998C469.425 133.06 469.756 131.394 470.418 130C471.079 128.606 472.001 127.543 473.182 126.81C474.363 126.054 475.734 125.676 477.293 125.676C478.735 125.676 480.022 126.031 481.157 126.739C482.314 127.425 483.071 128.358 483.425 129.539H483.035L483.46 126.031H488.6C488.529 126.81 488.458 127.602 488.387 128.405C488.34 129.185 488.316 129.953 488.316 130.709V144H483L482.964 140.633H483.39C483.011 141.767 482.255 142.677 481.121 143.362C479.987 144.047 478.711 144.39 477.293 144.39ZM478.924 140.349C480.152 140.349 481.145 139.912 481.901 139.038C482.657 138.164 483.035 136.817 483.035 134.998C483.035 133.178 482.657 131.843 481.901 130.993C481.145 130.142 480.152 129.717 478.924 129.717C477.695 129.717 476.703 130.142 475.947 130.993C475.19 131.843 474.812 133.178 474.812 134.998C474.812 136.817 475.179 138.164 475.911 139.038C476.667 139.912 477.671 140.349 478.924 140.349ZM492.67 144V130.78C492.67 130 492.646 129.209 492.599 128.405C492.575 127.602 492.516 126.81 492.422 126.031H497.561L498.163 131.276H497.348C497.584 130 497.963 128.949 498.482 128.122C499.026 127.295 499.687 126.68 500.467 126.279C501.27 125.877 502.18 125.676 503.196 125.676C503.645 125.676 504 125.7 504.259 125.747C504.519 125.771 504.779 125.83 505.039 125.924L505.004 130.638C504.508 130.425 504.082 130.295 503.728 130.248C503.397 130.177 502.972 130.142 502.452 130.142C501.46 130.142 500.633 130.331 499.971 130.709C499.333 131.087 498.849 131.642 498.518 132.375C498.211 133.107 498.057 133.993 498.057 135.033V144H492.67ZM513.732 144.39C512.125 144.39 510.66 144.213 509.337 143.858C508.013 143.504 506.891 143.008 505.97 142.37L507.352 138.825C508.273 139.392 509.289 139.841 510.4 140.172C511.534 140.503 512.656 140.668 513.767 140.668C514.807 140.668 515.575 140.503 516.071 140.172C516.567 139.841 516.815 139.392 516.815 138.825C516.815 138.353 516.65 137.987 516.319 137.727C516.012 137.467 515.527 137.278 514.866 137.16L511.215 136.486C509.679 136.179 508.51 135.612 507.706 134.785C506.903 133.958 506.501 132.883 506.501 131.56C506.501 130.402 506.808 129.386 507.423 128.512C508.061 127.614 508.97 126.917 510.152 126.42C511.333 125.924 512.716 125.676 514.299 125.676C515.645 125.676 516.921 125.842 518.126 126.172C519.331 126.503 520.359 127.011 521.21 127.696L519.757 131.134C519.024 130.591 518.174 130.154 517.205 129.823C516.26 129.492 515.35 129.327 514.476 129.327C513.342 129.327 512.527 129.516 512.03 129.894C511.534 130.248 511.286 130.709 511.286 131.276C511.286 131.701 511.428 132.056 511.711 132.339C512.018 132.623 512.479 132.836 513.094 132.977L516.78 133.651C518.363 133.934 519.568 134.466 520.395 135.246C521.222 136.025 521.635 137.1 521.635 138.471C521.635 139.723 521.304 140.787 520.643 141.661C519.981 142.535 519.048 143.208 517.843 143.681C516.661 144.154 515.291 144.39 513.732 144.39Z" fill="#C9B335"/>
<path d="M700.629 144V139.463H706.3V123.62H708.887L701.232 128.086V122.912L707.895 119.013H711.829V139.463H717.146V144H700.629ZM728.934 144.39C725.933 144.39 723.618 143.268 721.987 141.023C720.381 138.754 719.577 135.565 719.577 131.453C719.577 127.271 720.381 124.093 721.987 121.919C723.618 119.722 725.933 118.623 728.934 118.623C731.959 118.623 734.274 119.722 735.881 121.919C737.488 124.093 738.291 127.259 738.291 131.418C738.291 135.553 737.488 138.754 735.881 141.023C734.274 143.268 731.959 144.39 728.934 144.39ZM728.934 139.924C730.305 139.924 731.321 139.251 731.982 137.904C732.667 136.533 733.01 134.371 733.01 131.418C733.01 128.464 732.667 126.338 731.982 125.038C731.321 123.739 730.305 123.089 728.934 123.089C727.564 123.089 726.536 123.739 725.851 125.038C725.189 126.338 724.858 128.452 724.858 131.382C724.858 134.36 725.201 136.533 725.886 137.904C726.571 139.251 727.587 139.924 728.934 139.924ZM751.576 152.045L750.336 147.863C751.446 147.651 752.38 147.402 753.136 147.119C753.915 146.835 754.553 146.457 755.05 145.985C755.546 145.536 755.947 144.945 756.255 144.213L757.141 142.122L756.999 144.177L749.202 126.031H754.837L759.976 139.038H758.877L764.087 126.031H769.404L761.288 144.709C760.697 146.056 760.059 147.166 759.374 148.04C758.712 148.938 757.991 149.647 757.212 150.167C756.432 150.687 755.569 151.089 754.624 151.372C753.703 151.656 752.687 151.88 751.576 152.045ZM779.863 144.39C776.744 144.39 774.31 143.551 772.561 141.873C770.813 140.196 769.939 137.916 769.939 135.033C769.939 133.166 770.305 131.536 771.037 130.142C771.793 128.748 772.833 127.661 774.156 126.881C775.503 126.078 777.074 125.676 778.87 125.676C780.642 125.676 782.119 126.054 783.3 126.81C784.506 127.566 785.403 128.63 785.994 130C786.608 131.347 786.916 132.918 786.916 134.714V135.955H774.333V133.296H783.017L782.414 133.793C782.414 132.304 782.107 131.182 781.493 130.425C780.902 129.646 780.04 129.256 778.906 129.256C777.653 129.256 776.684 129.717 775.999 130.638C775.338 131.56 775.007 132.883 775.007 134.608V135.175C775.007 136.923 775.432 138.223 776.283 139.073C777.157 139.924 778.409 140.349 780.04 140.349C781.009 140.349 781.918 140.231 782.769 139.995C783.643 139.735 784.47 139.333 785.25 138.79L786.738 142.334C785.841 142.996 784.801 143.504 783.619 143.858C782.462 144.213 781.209 144.39 779.863 144.39ZM797.293 144.39C795.734 144.39 794.363 144.012 793.182 143.256C792.001 142.5 791.079 141.424 790.418 140.03C789.756 138.636 789.425 136.959 789.425 134.998C789.425 133.06 789.756 131.394 790.418 130C791.079 128.606 792.001 127.543 793.182 126.81C794.363 126.054 795.734 125.676 797.293 125.676C798.735 125.676 800.022 126.031 801.157 126.739C802.314 127.425 803.071 128.358 803.425 129.539H803.035L803.46 126.031H808.6C808.529 126.81 808.458 127.602 808.387 128.405C808.34 129.185 808.316 129.953 808.316 130.709V144H803L802.964 140.633H803.39C803.011 141.767 802.255 142.677 801.121 143.362C799.987 144.047 798.711 144.39 797.293 144.39ZM798.924 140.349C800.152 140.349 801.145 139.912 801.901 139.038C802.657 138.164 803.035 136.817 803.035 134.998C803.035 133.178 802.657 131.843 801.901 130.993C801.145 130.142 800.152 129.717 798.924 129.717C797.695 129.717 796.703 130.142 795.947 130.993C795.19 131.843 794.812 133.178 794.812 134.998C794.812 136.817 795.179 138.164 795.911 139.038C796.667 139.912 797.671 140.349 798.924 140.349ZM812.67 144V130.78C812.67 130 812.646 129.209 812.599 128.405C812.575 127.602 812.516 126.81 812.422 126.031H817.561L818.163 131.276H817.348C817.584 130 817.963 128.949 818.482 128.122C819.026 127.295 819.687 126.68 820.467 126.279C821.27 125.877 822.18 125.676 823.196 125.676C823.645 125.676 824 125.7 824.259 125.747C824.519 125.771 824.779 125.83 825.039 125.924L825.004 130.638C824.508 130.425 824.082 130.295 823.728 130.248C823.397 130.177 822.972 130.142 822.452 130.142C821.46 130.142 820.633 130.331 819.971 130.709C819.333 131.087 818.849 131.642 818.518 132.375C818.211 133.107 818.057 133.993 818.057 135.033V144H812.67ZM833.732 144.39C832.125 144.39 830.66 144.213 829.337 143.858C828.013 143.504 826.891 143.008 825.97 142.37L827.352 138.825C828.273 139.392 829.289 139.841 830.4 140.172C831.534 140.503 832.656 140.668 833.767 140.668C834.807 140.668 835.575 140.503 836.071 140.172C836.567 139.841 836.815 139.392 836.815 138.825C836.815 138.353 836.65 137.987 836.319 137.727C836.012 137.467 835.527 137.278 834.866 137.16L831.215 136.486C829.679 136.179 828.51 135.612 827.706 134.785C826.903 133.958 826.501 132.883 826.501 131.56C826.501 130.402 826.808 129.386 827.423 128.512C828.061 127.614 828.97 126.917 830.152 126.42C831.333 125.924 832.716 125.676 834.299 125.676C835.645 125.676 836.921 125.842 838.126 126.172C839.331 126.503 840.359 127.011 841.21 127.696L839.757 131.134C839.024 130.591 838.174 130.154 837.205 129.823C836.26 129.492 835.35 129.327 834.476 129.327C833.342 129.327 832.527 129.516 832.03 129.894C831.534 130.248 831.286 130.709 831.286 131.276C831.286 131.701 831.428 132.056 831.711 132.339C832.018 132.623 832.479 132.836 833.094 132.977L836.78 133.651C838.363 133.934 839.568 134.466 840.395 135.246C841.222 136.025 841.635 137.1 841.635 138.471C841.635 139.723 841.304 140.787 840.643 141.661C839.981 142.535 839.048 143.208 837.843 143.681C836.661 144.154 835.291 144.39 833.732 144.39Z" fill="#C9B335"/>
<path d="M700.629 144V139.463H706.3V123.62H708.887L701.232 128.086V122.912L707.895 119.013H711.829V139.463H717.146V144H700.629ZM728.934 144.39C725.933 144.39 723.618 143.268 721.987 141.023C720.381 138.754 719.577 135.565 719.577 131.453C719.577 127.271 720.381 124.093 721.987 121.919C723.618 119.722 725.933 118.623 728.934 118.623C731.959 118.623 734.274 119.722 735.881 121.919C737.488 124.093 738.291 127.259 738.291 131.418C738.291 135.553 737.488 138.754 735.881 141.023C734.274 143.268 731.959 144.39 728.934 144.39ZM728.934 139.924C730.305 139.924 731.321 139.251 731.982 137.904C732.667 136.533 733.01 134.371 733.01 131.418C733.01 128.464 732.667 126.338 731.982 125.038C731.321 123.739 730.305 123.089 728.934 123.089C727.564 123.089 726.536 123.739 725.851 125.038C725.189 126.338 724.858 128.452 724.858 131.382C724.858 134.36 725.201 136.533 725.886 137.904C726.571 139.251 727.587 139.924 728.934 139.924ZM751.576 152.045L750.336 147.863C751.446 147.651 752.38 147.402 753.136 147.119C753.915 146.835 754.553 146.457 755.05 145.985C755.546 145.536 755.947 144.945 756.255 144.213L757.141 142.122L756.999 144.177L749.202 126.031H754.837L759.976 139.038H758.877L764.087 126.031H769.404L761.288 144.709C760.697 146.056 760.059 147.166 759.374 148.04C758.712 148.938 757.991 149.647 757.212 150.167C756.432 150.687 755.569 151.089 754.624 151.372C753.703 151.656 752.687 151.88 751.576 152.045ZM779.863 144.39C776.744 144.39 774.31 143.551 772.561 141.873C770.813 140.196 769.939 137.916 769.939 135.033C769.939 133.166 770.305 131.536 771.037 130.142C771.793 128.748 772.833 127.661 774.156 126.881C775.503 126.078 777.074 125.676 778.87 125.676C780.642 125.676 782.119 126.054 783.3 126.81C784.506 127.566 785.403 128.63 785.994 130C786.608 131.347 786.916 132.918 786.916 134.714V135.955H774.333V133.296H783.017L782.414 133.793C782.414 132.304 782.107 131.182 781.493 130.425C780.902 129.646 780.04 129.256 778.906 129.256C777.653 129.256 776.684 129.717 775.999 130.638C775.338 131.56 775.007 132.883 775.007 134.608V135.175C775.007 136.923 775.432 138.223 776.283 139.073C777.157 139.924 778.409 140.349 780.04 140.349C781.009 140.349 781.918 140.231 782.769 139.995C783.643 139.735 784.47 139.333 785.25 138.79L786.738 142.334C785.841 142.996 784.801 143.504 783.619 143.858C782.462 144.213 781.209 144.39 779.863 144.39ZM797.293 144.39C795.734 144.39 794.363 144.012 793.182 143.256C792.001 142.5 791.079 141.424 790.418 140.03C789.756 138.636 789.425 136.959 789.425 134.998C789.425 133.06 789.756 131.394 790.418 130C791.079 128.606 792.001 127.543 793.182 126.81C794.363 126.054 795.734 125.676 797.293 125.676C798.735 125.676 800.022 126.031 801.157 126.739C802.314 127.425 803.071 128.358 803.425 129.539H803.035L803.46 126.031H808.6C808.529 126.81 808.458 127.602 808.387 128.405C808.34 129.185 808.316 129.953 808.316 130.709V144H803L802.964 140.633H803.39C803.011 141.767 802.255 142.677 801.121 143.362C799.987 144.047 798.711 144.39 797.293 144.39ZM798.924 140.349C800.152 140.349 801.145 139.912 801.901 139.038C802.657 138.164 803.035 136.817 803.035 134.998C803.035 133.178 802.657 131.843 801.901 130.993C801.145 130.142 800.152 129.717 798.924 129.717C797.695 129.717 796.703 130.142 795.947 130.993C795.19 131.843 794.812 133.178 794.812 134.998C794.812 136.817 795.179 138.164 795.911 139.038C796.667 139.912 797.671 140.349 798.924 140.349ZM812.67 144V130.78C812.67 130 812.646 129.209 812.599 128.405C812.575 127.602 812.516 126.81 812.422 126.031H817.561L818.163 131.276H817.348C817.584 130 817.963 128.949 818.482 128.122C819.026 127.295 819.687 126.68 820.467 126.279C821.27 125.877 822.18 125.676 823.196 125.676C823.645 125.676 824 125.7 824.259 125.747C824.519 125.771 824.779 125.83 825.039 125.924L825.004 130.638C824.508 130.425 824.082 130.295 823.728 130.248C823.397 130.177 822.972 130.142 822.452 130.142C821.46 130.142 820.633 130.331 819.971 130.709C819.333 131.087 818.849 131.642 818.518 132.375C818.211 133.107 818.057 133.993 818.057 135.033V144H812.67ZM833.732 144.39C832.125 144.39 830.66 144.213 829.337 143.858C828.013 143.504 826.891 143.008 825.97 142.37L827.352 138.825C828.273 139.392 829.289 139.841 830.4 140.172C831.534 140.503 832.656 140.668 833.767 140.668C834.807 140.668 835.575 140.503 836.071 140.172C836.567 139.841 836.815 139.392 836.815 138.825C836.815 138.353 836.65 137.987 836.319 137.727C836.012 137.467 835.527 137.278 834.866 137.16L831.215 136.486C829.679 136.179 828.51 135.612 827.706 134.785C826.903 133.958 826.501 132.883 826.501 131.56C826.501 130.402 826.808 129.386 827.423 128.512C828.061 127.614 828.97 126.917 830.152 126.42C831.333 125.924 832.716 125.676 834.299 125.676C835.645 125.676 836.921 125.842 838.126 126.172C839.331 126.503 840.359 127.011 841.21 127.696L839.757 131.134C839.024 130.591 838.174 130.154 837.205 129.823C836.26 129.492 835.35 129.327 834.476 129.327C833.342 129.327 832.527 129.516 832.03 129.894C831.534 130.248 831.286 130.709 831.286 131.276C831.286 131.701 831.428 132.056 831.711 132.339C832.018 132.623 832.479 132.836 833.094 132.977L836.78 133.651C838.363 133.934 839.568 134.466 840.395 135.246C841.222 136.025 841.635 137.1 841.635 138.471C841.635 139.723 841.304 140.787 840.643 141.661C839.981 142.535 839.048 143.208 837.843 143.681C836.661 144.154 835.291 144.39 833.732 144.39Z" fill="#E37B44"/>
<path d="M1020.63 144V139.463H1026.3V123.62H1028.89L1021.23 128.086V122.912L1027.9 119.013H1031.83V139.463H1037.15V144H1020.63ZM1048.93 144.39C1045.93 144.39 1043.62 143.268 1041.99 141.023C1040.38 138.754 1039.58 135.565 1039.58 131.453C1039.58 127.271 1040.38 124.093 1041.99 121.919C1043.62 119.722 1045.93 118.623 1048.93 118.623C1051.96 118.623 1054.27 119.722 1055.88 121.919C1057.49 124.093 1058.29 127.259 1058.29 131.418C1058.29 135.553 1057.49 138.754 1055.88 141.023C1054.27 143.268 1051.96 144.39 1048.93 144.39ZM1048.93 139.924C1050.3 139.924 1051.32 139.251 1051.98 137.904C1052.67 136.533 1053.01 134.371 1053.01 131.418C1053.01 128.464 1052.67 126.338 1051.98 125.038C1051.32 123.739 1050.3 123.089 1048.93 123.089C1047.56 123.089 1046.54 123.739 1045.85 125.038C1045.19 126.338 1044.86 128.452 1044.86 131.382C1044.86 134.36 1045.2 136.533 1045.89 137.904C1046.57 139.251 1047.59 139.924 1048.93 139.924ZM1071.58 152.045L1070.34 147.863C1071.45 147.651 1072.38 147.402 1073.14 147.119C1073.92 146.835 1074.55 146.457 1075.05 145.985C1075.55 145.536 1075.95 144.945 1076.25 144.213L1077.14 142.122L1077 144.177L1069.2 126.031H1074.84L1079.98 139.038H1078.88L1084.09 126.031H1089.4L1081.29 144.709C1080.7 146.056 1080.06 147.166 1079.37 148.04C1078.71 148.938 1077.99 149.647 1077.21 150.167C1076.43 150.687 1075.57 151.089 1074.62 151.372C1073.7 151.656 1072.69 151.88 1071.58 152.045ZM1099.86 144.39C1096.74 144.39 1094.31 143.551 1092.56 141.873C1090.81 140.196 1089.94 137.916 1089.94 135.033C1089.94 133.166 1090.3 131.536 1091.04 130.142C1091.79 128.748 1092.83 127.661 1094.16 126.881C1095.5 126.078 1097.07 125.676 1098.87 125.676C1100.64 125.676 1102.12 126.054 1103.3 126.81C1104.51 127.566 1105.4 128.63 1105.99 130C1106.61 131.347 1106.92 132.918 1106.92 134.714V135.955H1094.33V133.296H1103.02L1102.41 133.793C1102.41 132.304 1102.11 131.182 1101.49 130.425C1100.9 129.646 1100.04 129.256 1098.91 129.256C1097.65 129.256 1096.68 129.717 1096 130.638C1095.34 131.56 1095.01 132.883 1095.01 134.608V135.175C1095.01 136.923 1095.43 138.223 1096.28 139.073C1097.16 139.924 1098.41 140.349 1100.04 140.349C1101.01 140.349 1101.92 140.231 1102.77 139.995C1103.64 139.735 1104.47 139.333 1105.25 138.79L1106.74 142.334C1105.84 142.996 1104.8 143.504 1103.62 143.858C1102.46 144.213 1101.21 144.39 1099.86 144.39ZM1117.29 144.39C1115.73 144.39 1114.36 144.012 1113.18 143.256C1112 142.5 1111.08 141.424 1110.42 140.03C1109.76 138.636 1109.43 136.959 1109.43 134.998C1109.43 133.06 1109.76 131.394 1110.42 130C1111.08 128.606 1112 127.543 1113.18 126.81C1114.36 126.054 1115.73 125.676 1117.29 125.676C1118.73 125.676 1120.02 126.031 1121.16 126.739C1122.31 127.425 1123.07 128.358 1123.42 129.539H1123.04L1123.46 126.031H1128.6C1128.53 126.81 1128.46 127.602 1128.39 128.405C1128.34 129.185 1128.32 129.953 1128.32 130.709V144H1123L1122.96 140.633H1123.39C1123.01 141.767 1122.26 142.677 1121.12 143.362C1119.99 144.047 1118.71 144.39 1117.29 144.39ZM1118.92 140.349C1120.15 140.349 1121.14 139.912 1121.9 139.038C1122.66 138.164 1123.04 136.817 1123.04 134.998C1123.04 133.178 1122.66 131.843 1121.9 130.993C1121.14 130.142 1120.15 129.717 1118.92 129.717C1117.7 129.717 1116.7 130.142 1115.95 130.993C1115.19 131.843 1114.81 133.178 1114.81 134.998C1114.81 136.817 1115.18 138.164 1115.91 139.038C1116.67 139.912 1117.67 140.349 1118.92 140.349ZM1132.67 144V130.78C1132.67 130 1132.65 129.209 1132.6 128.405C1132.58 127.602 1132.52 126.81 1132.42 126.031H1137.56L1138.16 131.276H1137.35C1137.58 130 1137.96 128.949 1138.48 128.122C1139.03 127.295 1139.69 126.68 1140.47 126.279C1141.27 125.877 1142.18 125.676 1143.2 125.676C1143.65 125.676 1144 125.7 1144.26 125.747C1144.52 125.771 1144.78 125.83 1145.04 125.924L1145 130.638C1144.51 130.425 1144.08 130.295 1143.73 130.248C1143.4 130.177 1142.97 130.142 1142.45 130.142C1141.46 130.142 1140.63 130.331 1139.97 130.709C1139.33 131.087 1138.85 131.642 1138.52 132.375C1138.21 133.107 1138.06 133.993 1138.06 135.033V144H1132.67ZM1153.73 144.39C1152.12 144.39 1150.66 144.213 1149.34 143.858C1148.01 143.504 1146.89 143.008 1145.97 142.37L1147.35 138.825C1148.27 139.392 1149.29 139.841 1150.4 140.172C1151.53 140.503 1152.66 140.668 1153.77 140.668C1154.81 140.668 1155.57 140.503 1156.07 140.172C1156.57 139.841 1156.82 139.392 1156.82 138.825C1156.82 138.353 1156.65 137.987 1156.32 137.727C1156.01 137.467 1155.53 137.278 1154.87 137.16L1151.22 136.486C1149.68 136.179 1148.51 135.612 1147.71 134.785C1146.9 133.958 1146.5 132.883 1146.5 131.56C1146.5 130.402 1146.81 129.386 1147.42 128.512C1148.06 127.614 1148.97 126.917 1150.15 126.42C1151.33 125.924 1152.72 125.676 1154.3 125.676C1155.65 125.676 1156.92 125.842 1158.13 126.172C1159.33 126.503 1160.36 127.011 1161.21 127.696L1159.76 131.134C1159.02 130.591 1158.17 130.154 1157.2 129.823C1156.26 129.492 1155.35 129.327 1154.48 129.327C1153.34 129.327 1152.53 129.516 1152.03 129.894C1151.53 130.248 1151.29 130.709 1151.29 131.276C1151.29 131.701 1151.43 132.056 1151.71 132.339C1152.02 132.623 1152.48 132.836 1153.09 132.977L1156.78 133.651C1158.36 133.934 1159.57 134.466 1160.39 135.246C1161.22 136.025 1161.64 137.1 1161.64 138.471C1161.64 139.723 1161.3 140.787 1160.64 141.661C1159.98 142.535 1159.05 143.208 1157.84 143.681C1156.66 144.154 1155.29 144.39 1153.73 144.39Z" fill="#C9B335"/>
<path d="M1020.63 144V139.463H1026.3V123.62H1028.89L1021.23 128.086V122.912L1027.9 119.013H1031.83V139.463H1037.15V144H1020.63ZM1048.93 144.39C1045.93 144.39 1043.62 143.268 1041.99 141.023C1040.38 138.754 1039.58 135.565 1039.58 131.453C1039.58 127.271 1040.38 124.093 1041.99 121.919C1043.62 119.722 1045.93 118.623 1048.93 118.623C1051.96 118.623 1054.27 119.722 1055.88 121.919C1057.49 124.093 1058.29 127.259 1058.29 131.418C1058.29 135.553 1057.49 138.754 1055.88 141.023C1054.27 143.268 1051.96 144.39 1048.93 144.39ZM1048.93 139.924C1050.3 139.924 1051.32 139.251 1051.98 137.904C1052.67 136.533 1053.01 134.371 1053.01 131.418C1053.01 128.464 1052.67 126.338 1051.98 125.038C1051.32 123.739 1050.3 123.089 1048.93 123.089C1047.56 123.089 1046.54 123.739 1045.85 125.038C1045.19 126.338 1044.86 128.452 1044.86 131.382C1044.86 134.36 1045.2 136.533 1045.89 137.904C1046.57 139.251 1047.59 139.924 1048.93 139.924ZM1071.58 152.045L1070.34 147.863C1071.45 147.651 1072.38 147.402 1073.14 147.119C1073.92 146.835 1074.55 146.457 1075.05 145.985C1075.55 145.536 1075.95 144.945 1076.25 144.213L1077.14 142.122L1077 144.177L1069.2 126.031H1074.84L1079.98 139.038H1078.88L1084.09 126.031H1089.4L1081.29 144.709C1080.7 146.056 1080.06 147.166 1079.37 148.04C1078.71 148.938 1077.99 149.647 1077.21 150.167C1076.43 150.687 1075.57 151.089 1074.62 151.372C1073.7 151.656 1072.69 151.88 1071.58 152.045ZM1099.86 144.39C1096.74 144.39 1094.31 143.551 1092.56 141.873C1090.81 140.196 1089.94 137.916 1089.94 135.033C1089.94 133.166 1090.3 131.536 1091.04 130.142C1091.79 128.748 1092.83 127.661 1094.16 126.881C1095.5 126.078 1097.07 125.676 1098.87 125.676C1100.64 125.676 1102.12 126.054 1103.3 126.81C1104.51 127.566 1105.4 128.63 1105.99 130C1106.61 131.347 1106.92 132.918 1106.92 134.714V135.955H1094.33V133.296H1103.02L1102.41 133.793C1102.41 132.304 1102.11 131.182 1101.49 130.425C1100.9 129.646 1100.04 129.256 1098.91 129.256C1097.65 129.256 1096.68 129.717 1096 130.638C1095.34 131.56 1095.01 132.883 1095.01 134.608V135.175C1095.01 136.923 1095.43 138.223 1096.28 139.073C1097.16 139.924 1098.41 140.349 1100.04 140.349C1101.01 140.349 1101.92 140.231 1102.77 139.995C1103.64 139.735 1104.47 139.333 1105.25 138.79L1106.74 142.334C1105.84 142.996 1104.8 143.504 1103.62 143.858C1102.46 144.213 1101.21 144.39 1099.86 144.39ZM1117.29 144.39C1115.73 144.39 1114.36 144.012 1113.18 143.256C1112 142.5 1111.08 141.424 1110.42 140.03C1109.76 138.636 1109.43 136.959 1109.43 134.998C1109.43 133.06 1109.76 131.394 1110.42 130C1111.08 128.606 1112 127.543 1113.18 126.81C1114.36 126.054 1115.73 125.676 1117.29 125.676C1118.73 125.676 1120.02 126.031 1121.16 126.739C1122.31 127.425 1123.07 128.358 1123.42 129.539H1123.04L1123.46 126.031H1128.6C1128.53 126.81 1128.46 127.602 1128.39 128.405C1128.34 129.185 1128.32 129.953 1128.32 130.709V144H1123L1122.96 140.633H1123.39C1123.01 141.767 1122.26 142.677 1121.12 143.362C1119.99 144.047 1118.71 144.39 1117.29 144.39ZM1118.92 140.349C1120.15 140.349 1121.14 139.912 1121.9 139.038C1122.66 138.164 1123.04 136.817 1123.04 134.998C1123.04 133.178 1122.66 131.843 1121.9 130.993C1121.14 130.142 1120.15 129.717 1118.92 129.717C1117.7 129.717 1116.7 130.142 1115.95 130.993C1115.19 131.843 1114.81 133.178 1114.81 134.998C1114.81 136.817 1115.18 138.164 1115.91 139.038C1116.67 139.912 1117.67 140.349 1118.92 140.349ZM1132.67 144V130.78C1132.67 130 1132.65 129.209 1132.6 128.405C1132.58 127.602 1132.52 126.81 1132.42 126.031H1137.56L1138.16 131.276H1137.35C1137.58 130 1137.96 128.949 1138.48 128.122C1139.03 127.295 1139.69 126.68 1140.47 126.279C1141.27 125.877 1142.18 125.676 1143.2 125.676C1143.65 125.676 1144 125.7 1144.26 125.747C1144.52 125.771 1144.78 125.83 1145.04 125.924L1145 130.638C1144.51 130.425 1144.08 130.295 1143.73 130.248C1143.4 130.177 1142.97 130.142 1142.45 130.142C1141.46 130.142 1140.63 130.331 1139.97 130.709C1139.33 131.087 1138.85 131.642 1138.52 132.375C1138.21 133.107 1138.06 133.993 1138.06 135.033V144H1132.67ZM1153.73 144.39C1152.12 144.39 1150.66 144.213 1149.34 143.858C1148.01 143.504 1146.89 143.008 1145.97 142.37L1147.35 138.825C1148.27 139.392 1149.29 139.841 1150.4 140.172C1151.53 140.503 1152.66 140.668 1153.77 140.668C1154.81 140.668 1155.57 140.503 1156.07 140.172C1156.57 139.841 1156.82 139.392 1156.82 138.825C1156.82 138.353 1156.65 137.987 1156.32 137.727C1156.01 137.467 1155.53 137.278 1154.87 137.16L1151.22 136.486C1149.68 136.179 1148.51 135.612 1147.71 134.785C1146.9 133.958 1146.5 132.883 1146.5 131.56C1146.5 130.402 1146.81 129.386 1147.42 128.512C1148.06 127.614 1148.97 126.917 1150.15 126.42C1151.33 125.924 1152.72 125.676 1154.3 125.676C1155.65 125.676 1156.92 125.842 1158.13 126.172C1159.33 126.503 1160.36 127.011 1161.21 127.696L1159.76 131.134C1159.02 130.591 1158.17 130.154 1157.2 129.823C1156.26 129.492 1155.35 129.327 1154.48 129.327C1153.34 129.327 1152.53 129.516 1152.03 129.894C1151.53 130.248 1151.29 130.709 1151.29 131.276C1151.29 131.701 1151.43 132.056 1151.71 132.339C1152.02 132.623 1152.48 132.836 1153.09 132.977L1156.78 133.651C1158.36 133.934 1159.57 134.466 1160.39 135.246C1161.22 136.025 1161.64 137.1 1161.64 138.471C1161.64 139.723 1161.3 140.787 1160.64 141.661C1159.98 142.535 1159.05 143.208 1157.84 143.681C1156.66 144.154 1155.29 144.39 1153.73 144.39Z" fill="#F05353"/>
<defs>
<radialGradient id="paint0_radial_14_3970" cx="0" cy="0" r="1" gradientUnits="userSpaceOnUse" gradientTransform="translate(130 134) rotate(90) scale(133.5)">
<stop offset="0.76847" stop-color="#408C25"/>
<stop offset="1" stop-color="#40F247"/>
</radialGradient>
<radialGradient id="paint1_radial_14_3970" cx="0" cy="0" r="1" gradientUnits="userSpaceOnUse" gradientTransform="translate(450 134) rotate(90) scale(133.5)">
<stop offset="0.76847" stop-color="#848C25"/>
<stop offset="1" stop-color="#F2CB40"/>
</radialGradient>
<radialGradient id="paint2_radial_14_3970" cx="0" cy="0" r="1" gradientUnits="userSpaceOnUse" gradientTransform="translate(770 134) rotate(90) scale(133.5)">
<stop offset="0.76847" stop-color="#8C5625"/>
<stop offset="1" stop-color="#F27540"/>
</radialGradient>
<radialGradient id="paint3_radial_14_3970" cx="0" cy="0" r="1" gradientUnits="userSpaceOnUse" gradientTransform="translate(1090 134) rotate(90) scale(133.5)">
<stop offset="0.76847" stop-color="#8C2525"/>
<stop offset="1" stop-color="#F24040"/>
</radialGradient>
</defs>
</svg>
