<svg width="18" height="18" viewBox="0 0 18 18" fill="none" xmlns="http://www.w3.org/2000/svg">
<path d="M13.5417 5.89285C13.7935 5.59309 13.7547 5.14595 13.4549 4.89415C13.1551 4.64235 12.708 4.68123 12.4562 4.98099L13.5417 5.89285ZM7.39945 12.103L6.87256 12.5772C7.00982 12.7297 7.20641 12.8153 7.41155 12.8118C7.6167 12.8083 7.81026 12.716 7.94222 12.5589L7.39945 12.103ZM5.52654 8.96238C5.26465 8.67139 4.81645 8.6478 4.52546 8.90969C4.23447 9.17159 4.21088 9.61979 4.47277 9.91078L5.52654 8.96238ZM17.7075 8.77006C17.7075 3.96229 13.8071 0.0618978 8.99931 0.0618978V1.47961C13.0241 1.47961 16.2898 4.74527 16.2898 8.77006H17.7075ZM8.99931 0.0618978C4.19154 0.0618978 0.291146 3.96229 0.291146 8.77006H1.70885C1.70885 4.74527 4.97451 1.47961 8.99931 1.47961V0.0618978ZM0.291146 8.77006C0.291146 13.5778 4.19154 17.4782 8.99931 17.4782V16.0605C4.97451 16.0605 1.70885 12.7949 1.70885 8.77006H0.291146ZM8.99931 17.4782C13.8071 17.4782 17.7075 13.5778 17.7075 8.77006H16.2898C16.2898 12.7949 13.0241 16.0605 8.99931 16.0605V17.4782ZM12.4562 4.98099L6.85668 11.6471L7.94222 12.5589L13.5417 5.89285L12.4562 4.98099ZM7.92634 11.6288L5.52654 8.96238L4.47277 9.91078L6.87256 12.5772L7.92634 11.6288Z" fill="#31C65B"/>
</svg>
