<svg width="1377" height="982" viewBox="0 0 1377 982" fill="none" xmlns="http://www.w3.org/2000/svg">
<g opacity="0.25" filter="url(#filter0_f_21_870)">
<path d="M1368.51 1264.34H1366V379.991C1366 219.468 1235.36 88.8678 1074.8 88.8678C914.238 88.8678 783.572 219.468 783.572 379.991V1221.98H781.058V379.991C781.058 218.08 912.816 86.355 1074.77 86.355C1236.72 86.355 1368.48 218.08 1368.48 379.991V1221.98L1368.51 1264.34Z" fill="#A5A5A5"/>
<path d="M1325.85 1264.34H1323.33V379.991C1323.33 242.976 1211.85 131.486 1074.77 131.486C937.686 131.486 826.235 242.976 826.235 379.991V1261.56H823.721V379.991C823.721 241.588 936.363 128.974 1074.8 128.974C1213.24 128.974 1325.88 241.588 1325.88 379.991V1221.98L1325.85 1264.34Z" fill="#A5A5A5"/>
<path d="M1283.22 1265.73H1280.71V379.991C1280.71 266.484 1188.34 174.138 1074.8 174.138C961.266 174.138 868.897 266.484 868.897 379.991V1221.98H866.384V379.991C866.384 265.096 959.877 171.625 1074.83 171.625C1189.79 171.625 1283.29 265.096 1283.29 379.991V1221.98L1283.22 1265.73Z" fill="#A5A5A5"/>
<path d="M1240.59 1221.98H1238.07V379.991C1238.07 289.992 1164.82 216.757 1074.8 216.757C984.779 216.757 911.525 289.992 911.525 379.991V1221.98H909.012V379.991C909.012 288.604 983.39 214.244 1074.8 214.244C1166.21 214.244 1240.59 288.604 1240.59 379.991V1221.98Z" fill="#A5A5A5"/>
<path d="M1197.93 1221.98H1195.41V379.991C1195.41 313.5 1141.31 259.409 1074.8 259.409C1008.29 259.409 954.188 313.5 954.188 379.991V1221.98H951.675V379.991C951.675 312.112 1006.9 256.863 1074.83 256.863C1142.76 256.863 1197.99 312.079 1197.99 379.991V1221.98H1197.93Z" fill="#A5A5A5"/>
<path d="M188.35 2.42822H181.504V9.27235H188.35V2.42822Z" fill="#A5A5A5"/>
<path d="M188.35 43.7905H181.504V50.6347H188.35V43.7905Z" fill="#A5A5A5"/>
<path d="M188.35 85.1528H181.504V91.997H188.35V85.1528Z" fill="#A5A5A5"/>
<path d="M188.35 126.548H181.504V133.392H188.35V126.548Z" fill="#A5A5A5"/>
<path d="M188.35 167.911H181.504V174.755H188.35V167.911Z" fill="#A5A5A5"/>
<path d="M188.35 209.273H181.504V216.117H188.35V209.273Z" fill="#A5A5A5"/>
<path d="M188.35 250.668H181.504V257.513H188.35V250.668Z" fill="#A5A5A5"/>
<path d="M188.35 292.031H181.504V298.875H188.35V292.031Z" fill="#A5A5A5"/>
<path d="M188.35 333.393H181.504V340.237H188.35V333.393Z" fill="#A5A5A5"/>
<path d="M188.35 374.755H181.504V381.6H188.35V374.755Z" fill="#A5A5A5"/>
<path d="M188.35 416.151H181.504V422.995H188.35V416.151Z" fill="#A5A5A5"/>
<path d="M225.82 2.42822H218.974V9.27235H225.82V2.42822Z" fill="#A5A5A5"/>
<path d="M225.82 43.7905H218.974V50.6347H225.82V43.7905Z" fill="#A5A5A5"/>
<path d="M225.82 85.1528H218.974V91.997H225.82V85.1528Z" fill="#A5A5A5"/>
<path d="M225.82 126.548H218.974V133.392H225.82V126.548Z" fill="#A5A5A5"/>
<path d="M225.82 167.911H218.974V174.755H225.82V167.911Z" fill="#A5A5A5"/>
<path d="M225.82 209.273H218.974V216.117H225.82V209.273Z" fill="#A5A5A5"/>
<path d="M225.82 250.668H218.974V257.513H225.82V250.668Z" fill="#A5A5A5"/>
<path d="M225.82 292.031H218.974V298.875H225.82V292.031Z" fill="#A5A5A5"/>
<path d="M225.82 333.393H218.974V340.237H225.82V333.393Z" fill="#A5A5A5"/>
<path d="M225.82 374.755H218.974V381.6H225.82V374.755Z" fill="#A5A5A5"/>
<path d="M225.82 416.151H218.974V422.995H225.82V416.151Z" fill="#A5A5A5"/>
<path d="M263.258 2.42822H256.412V9.27235H263.258V2.42822Z" fill="#A5A5A5"/>
<path d="M263.258 43.7905H256.412V50.6347H263.258V43.7905Z" fill="#A5A5A5"/>
<path d="M263.258 85.1528H256.412V91.997H263.258V85.1528Z" fill="#A5A5A5"/>
<path d="M263.258 126.548H256.412V133.392H263.258V126.548Z" fill="#A5A5A5"/>
<path d="M263.258 167.911H256.412V174.755H263.258V167.911Z" fill="#A5A5A5"/>
<path d="M263.258 209.273H256.412V216.117H263.258V209.273Z" fill="#A5A5A5"/>
<path d="M263.258 250.668H256.412V257.513H263.258V250.668Z" fill="#A5A5A5"/>
<path d="M263.258 292.031H256.412V298.875H263.258V292.031Z" fill="#A5A5A5"/>
<path d="M263.258 333.393H256.412V340.237H263.258V333.393Z" fill="#A5A5A5"/>
<path d="M263.258 374.755H256.412V381.6H263.258V374.755Z" fill="#A5A5A5"/>
<path d="M263.258 416.151H256.412V422.995H263.258V416.151Z" fill="#A5A5A5"/>
<path d="M300.727 2.42822H293.881V9.27235H300.727V2.42822Z" fill="#A5A5A5"/>
<path d="M300.727 43.7905H293.881V50.6347H300.727V43.7905Z" fill="#A5A5A5"/>
<path d="M300.727 85.1528H293.881V91.997H300.727V85.1528Z" fill="#A5A5A5"/>
<path d="M300.727 126.548H293.881V133.392H300.727V126.548Z" fill="#A5A5A5"/>
<path d="M300.727 167.911H293.881V174.755H300.727V167.911Z" fill="#A5A5A5"/>
<path d="M300.727 209.273H293.881V216.117H300.727V209.273Z" fill="#A5A5A5"/>
<path d="M300.727 250.668H293.881V257.513H300.727V250.668Z" fill="#A5A5A5"/>
<path d="M300.727 292.031H293.881V298.875H300.727V292.031Z" fill="#A5A5A5"/>
<path d="M300.727 333.393H293.881V340.237H300.727V333.393Z" fill="#A5A5A5"/>
<path d="M300.727 374.755H293.881V381.6H300.727V374.755Z" fill="#A5A5A5"/>
<path d="M300.727 416.151H293.881V422.995H300.727V416.151Z" fill="#A5A5A5"/>
<path d="M338.197 2.42822H331.351V9.27235H338.197V2.42822Z" fill="#A5A5A5"/>
<path d="M338.197 43.7905H331.351V50.6347H338.197V43.7905Z" fill="#A5A5A5"/>
<path d="M338.197 85.1528H331.351V91.997H338.197V85.1528Z" fill="#A5A5A5"/>
<path d="M338.197 126.548H331.351V133.392H338.197V126.548Z" fill="#A5A5A5"/>
<path d="M338.197 167.911H331.351V174.755H338.197V167.911Z" fill="#A5A5A5"/>
<path d="M338.197 209.273H331.351V216.117H338.197V209.273Z" fill="#A5A5A5"/>
<path d="M338.197 250.668H331.351V257.513H338.197V250.668Z" fill="#A5A5A5"/>
<path d="M338.197 292.031H331.351V298.875H338.197V292.031Z" fill="#A5A5A5"/>
<path d="M338.197 333.393H331.351V340.237H338.197V333.393Z" fill="#A5A5A5"/>
<path d="M338.197 374.755H331.351V381.6H338.197V374.755Z" fill="#A5A5A5"/>
<path d="M338.197 416.151H331.351V422.995H338.197V416.151Z" fill="#A5A5A5"/>
<path d="M375.667 2.42822H368.821V9.27235H375.667V2.42822Z" fill="#A5A5A5"/>
<path d="M375.667 43.7905H368.821V50.6347H375.667V43.7905Z" fill="#A5A5A5"/>
<path d="M375.667 85.1528H368.821V91.997H375.667V85.1528Z" fill="#A5A5A5"/>
<path d="M375.667 126.548H368.821V133.392H375.667V126.548Z" fill="#A5A5A5"/>
<path d="M375.667 167.911H368.821V174.755H375.667V167.911Z" fill="#A5A5A5"/>
<path d="M375.667 209.273H368.821V216.117H375.667V209.273Z" fill="#A5A5A5"/>
<path d="M375.667 250.668H368.821V257.513H375.667V250.668Z" fill="#A5A5A5"/>
<path d="M375.667 292.031H368.821V298.875H375.667V292.031Z" fill="#A5A5A5"/>
<path d="M375.667 333.393H368.821V340.237H375.667V333.393Z" fill="#A5A5A5"/>
<path d="M375.667 374.755H368.821V381.6H375.667V374.755Z" fill="#A5A5A5"/>
<path d="M375.667 416.151H368.821V422.995H375.667V416.151Z" fill="#A5A5A5"/>
<path d="M413.138 2.42822H406.292V9.27235H413.138V2.42822Z" fill="#A5A5A5"/>
<path d="M413.138 43.7905H406.292V50.6347H413.138V43.7905Z" fill="#A5A5A5"/>
<path d="M413.138 85.1528H406.292V91.997H413.138V85.1528Z" fill="#A5A5A5"/>
<path d="M413.138 126.548H406.292V133.392H413.138V126.548Z" fill="#A5A5A5"/>
<path d="M413.138 167.911H406.292V174.755H413.138V167.911Z" fill="#A5A5A5"/>
<path d="M413.138 209.273H406.292V216.117H413.138V209.273Z" fill="#A5A5A5"/>
<path d="M413.138 250.668H406.292V257.513H413.138V250.668Z" fill="#A5A5A5"/>
<path d="M413.138 292.031H406.292V298.875H413.138V292.031Z" fill="#A5A5A5"/>
<path d="M413.138 333.393H406.292V340.237H413.138V333.393Z" fill="#A5A5A5"/>
<path d="M413.138 374.755H406.292V381.6H413.138V374.755Z" fill="#A5A5A5"/>
<path d="M413.138 416.151H406.292V422.995H413.138V416.151Z" fill="#A5A5A5"/>
<path d="M450.608 2.42822H443.762V9.27235H450.608V2.42822Z" fill="#A5A5A5"/>
<path d="M450.608 43.7905H443.762V50.6347H450.608V43.7905Z" fill="#A5A5A5"/>
<path d="M450.608 85.1528H443.762V91.997H450.608V85.1528Z" fill="#A5A5A5"/>
<path d="M450.608 126.548H443.762V133.392H450.608V126.548Z" fill="#A5A5A5"/>
<path d="M450.608 167.911H443.762V174.755H450.608V167.911Z" fill="#A5A5A5"/>
<path d="M450.608 209.273H443.762V216.117H450.608V209.273Z" fill="#A5A5A5"/>
<path d="M450.608 250.668H443.762V257.513H450.608V250.668Z" fill="#A5A5A5"/>
<path d="M450.608 292.031H443.762V298.875H450.608V292.031Z" fill="#A5A5A5"/>
<path d="M450.608 333.393H443.762V340.237H450.608V333.393Z" fill="#A5A5A5"/>
<path d="M450.608 374.755H443.762V381.6H450.608V374.755Z" fill="#A5A5A5"/>
<path d="M450.608 416.151H443.762V422.995H450.608V416.151Z" fill="#A5A5A5"/>
<path d="M488.079 2.42822H481.233V9.27235H488.079V2.42822Z" fill="#A5A5A5"/>
<path d="M488.079 43.7905H481.233V50.6347H488.079V43.7905Z" fill="#A5A5A5"/>
<path d="M488.079 85.1528H481.233V91.997H488.079V85.1528Z" fill="#A5A5A5"/>
<path d="M488.079 126.548H481.233V133.392H488.079V126.548Z" fill="#A5A5A5"/>
<path d="M488.079 167.911H481.233V174.755H488.079V167.911Z" fill="#A5A5A5"/>
<path d="M488.079 209.273H481.233V216.117H488.079V209.273Z" fill="#A5A5A5"/>
<path d="M488.079 250.668H481.233V257.513H488.079V250.668Z" fill="#A5A5A5"/>
<path d="M488.079 292.031H481.233V298.875H488.079V292.031Z" fill="#A5A5A5"/>
<path d="M488.079 333.393H481.233V340.237H488.079V333.393Z" fill="#A5A5A5"/>
<path d="M488.079 374.755H481.233V381.6H488.079V374.755Z" fill="#A5A5A5"/>
<path d="M488.079 416.151H481.233V422.995H488.079V416.151Z" fill="#A5A5A5"/>
<path d="M525.548 2.42822H518.703V9.27235H525.548V2.42822Z" fill="#A5A5A5"/>
<path d="M525.548 43.7905H518.703V50.6347H525.548V43.7905Z" fill="#A5A5A5"/>
<path d="M525.548 85.1528H518.703V91.997H525.548V85.1528Z" fill="#A5A5A5"/>
<path d="M525.548 126.548H518.703V133.392H525.548V126.548Z" fill="#A5A5A5"/>
<path d="M525.548 167.911H518.703V174.755H525.548V167.911Z" fill="#A5A5A5"/>
<path d="M525.548 209.273H518.703V216.117H525.548V209.273Z" fill="#A5A5A5"/>
<path d="M525.548 250.668H518.703V257.513H525.548V250.668Z" fill="#A5A5A5"/>
<path d="M525.548 292.031H518.703V298.875H525.548V292.031Z" fill="#A5A5A5"/>
<path d="M525.548 333.393H518.703V340.237H525.548V333.393Z" fill="#A5A5A5"/>
<path d="M525.548 374.755H518.703V381.6H525.548V374.755Z" fill="#A5A5A5"/>
<path d="M525.548 416.151H518.703V422.995H525.548V416.151Z" fill="#A5A5A5"/>
<path d="M563.017 2.42822H556.171V9.27235H563.017V2.42822Z" fill="#A5A5A5"/>
<path d="M563.017 43.7905H556.171V50.6347H563.017V43.7905Z" fill="#A5A5A5"/>
<path d="M563.017 85.1528H556.171V91.997H563.017V85.1528Z" fill="#A5A5A5"/>
<path d="M563.017 126.548H556.171V133.392H563.017V126.548Z" fill="#A5A5A5"/>
<path d="M563.017 167.911H556.171V174.755H563.017V167.911Z" fill="#A5A5A5"/>
<path d="M563.017 209.273H556.171V216.117H563.017V209.273Z" fill="#A5A5A5"/>
<path d="M563.017 250.668H556.171V257.513H563.017V250.668Z" fill="#A5A5A5"/>
<path d="M563.017 292.031H556.171V298.875H563.017V292.031Z" fill="#A5A5A5"/>
<path d="M563.017 333.393H556.171V340.237H563.017V333.393Z" fill="#A5A5A5"/>
<path d="M563.017 374.755H556.171V381.6H563.017V374.755Z" fill="#A5A5A5"/>
<path d="M563.017 416.151H556.171V422.995H563.017V416.151Z" fill="#A5A5A5"/>
<path d="M2.05736 946.158C2.05736 950.886 -1.77894 954.721 -6.50818 954.721C-11.2374 954.721 -15.0737 950.886 -15.0737 946.158C-15.0737 941.43 -11.2374 937.594 -6.50818 937.594C-1.77894 937.594 2.05736 941.43 2.05736 946.158Z" fill="#A5A5A5"/>
<path d="M113.774 946.158C113.774 950.886 109.937 954.721 105.208 954.721C100.479 954.721 96.6426 950.886 96.6426 946.158C96.6426 941.43 100.479 937.594 105.208 937.594C109.937 937.594 113.774 941.43 113.774 946.158Z" fill="#A5A5A5"/>
</g>
<defs>
<filter id="filter0_f_21_870" x="-246.84" y="-5.97178" width="1623.75" height="1382.37" filterUnits="userSpaceOnUse" color-interpolation-filters="sRGB">
<feFlood flood-opacity="0" result="BackgroundImageFix"/>
<feBlend mode="normal" in="SourceGraphic" in2="BackgroundImageFix" result="shape"/>
<feGaussianBlur stdDeviation="4.2" result="effect1_foregroundBlur_21_870"/>
</filter>
</defs>
</svg>
