<svg width="36" height="35" viewBox="0 0 36 35" fill="none" xmlns="http://www.w3.org/2000/svg">
<rect x="29.6255" y="30.2593" width="5.54979" height="2.48291" fill="#38D4FF"/>
<path d="M32.0776 3.34943L29.8151 8.3426C29.6901 8.61833 29.6255 8.91756 29.6255 9.22028V31.9453C29.6255 32.7282 30.2602 33.363 31.0432 33.363H33.7576C34.5405 33.363 35.1753 32.7282 35.1753 31.9453V9.22029C35.1753 8.91757 35.1106 8.61833 34.9857 8.3426L32.7232 3.34943C32.5975 3.0719 32.2033 3.0719 32.0776 3.34943Z" stroke="#5956E9" stroke-width="1.41771"/>
<path d="M29.6255 9.15417H32.7472H35.1753" stroke="#5956E9" stroke-width="1.41771"/>
<path d="M29.6255 30.2593H35.1753" stroke="#5956E9" stroke-width="1.41771"/>
<path d="M16.7601 6.94825L16.4918 2.48696C16.4666 2.06864 16.8079 1.71993 17.2267 1.73608L18.0574 1.7681C18.2332 1.77488 18.4001 1.84675 18.5258 1.96976L24.6767 7.98806C25.0451 8.34853 24.9179 8.96918 24.4374 9.1556L22.9864 9.71848C22.8898 9.75596 22.7861 9.7718 22.6827 9.76488L18.8218 9.5065C18.6141 9.49261 18.4231 9.38819 18.2993 9.22092L16.8979 7.32739C16.8162 7.21702 16.7684 7.08531 16.7601 6.94825Z" fill="#38D4FF"/>
<path d="M1.18311 6.04682V28.5545C1.18311 31.2949 3.40466 33.5165 6.14508 33.5165H20.6795C23.4199 33.5165 25.6415 31.2949 25.6415 28.5545V10.3488C25.6415 8.93999 25.0426 7.59757 23.9942 6.65643L19.2021 2.35443C18.2915 1.53699 17.111 1.08484 15.8874 1.08484H6.14508C3.40466 1.08484 1.18311 3.30639 1.18311 6.04682Z" stroke="#5956E9" stroke-width="1.77214"/>
<path d="M4.65137 18.7757C4.65137 18.2615 5.21043 17.8446 5.90007 17.8446H20.052C20.7417 17.8446 21.3007 18.2615 21.3007 18.7757C21.3007 19.2899 20.7417 19.7068 20.052 19.7068H5.90007C5.21043 19.7068 4.65137 19.2899 4.65137 18.7757Z" fill="#E541ED"/>
<path d="M4.65137 14.4305C4.65137 13.9163 5.21043 13.4994 5.90007 13.4994H20.052C20.7417 13.4994 21.3007 13.9163 21.3007 14.4305C21.3007 14.9447 20.7417 15.3616 20.052 15.3616H5.90007C5.21043 15.3616 4.65137 14.9447 4.65137 14.4305Z" fill="#E541ED"/>
<path d="M4.65137 23.1209C4.65137 22.6067 5.21043 22.1898 5.90007 22.1898H20.052C20.7417 22.1898 21.3007 22.6067 21.3007 23.1209C21.3007 23.6351 20.7417 24.052 20.052 24.052H5.90007C5.21043 24.052 4.65137 23.6351 4.65137 23.1209Z" fill="#E541ED"/>
<path d="M4.65137 27.4654C4.65137 26.9512 5.21709 26.5343 5.91494 26.5343H15.1811C15.879 26.5343 16.4447 26.9512 16.4447 27.4654C16.4447 27.9796 15.879 28.3965 15.1811 28.3965H5.91494C5.21709 28.3965 4.65137 27.9796 4.65137 27.4654Z" fill="#E541ED"/>
<path d="M16.3589 1.21619V6.68643C16.3589 8.25239 17.6283 9.52185 19.1943 9.52185H25.0519" stroke="#5956E9" stroke-width="1.77214" stroke-linecap="round"/>
</svg>
