<svg width="49" height="37" viewBox="0 0 49 37" fill="none" xmlns="http://www.w3.org/2000/svg">
<path d="M17.5089 1.06859C17.6105 1.05641 17.7118 1.04427 17.8137 1.03214V4.46078C17.3372 4.51432 16.8522 4.56771 16.3282 4.62109L16.301 4.62386L16.2743 4.62931C16.1323 4.65824 15.969 4.67397 15.7679 4.69259L15.7542 4.69386C15.5704 4.71086 15.3523 4.73105 15.1471 4.77259C13.8878 5.01397 12.7107 5.7329 11.9217 6.77558C11.2879 7.58444 10.9061 8.61283 10.7541 9.61967L10.7519 9.63378L10.7505 9.64798C10.7141 10.0196 10.6718 10.3932 10.6295 10.7678C10.5125 11.803 10.3946 12.846 10.3946 13.8765V14.425H10.9431H38.0051H38.5536V13.8765C38.5536 13.1799 38.4866 12.4616 38.4226 11.7746C38.3919 11.4456 38.3619 11.1237 38.3403 10.8149L38.3393 10.8006L38.3375 10.7865C38.3153 10.6049 38.3012 10.4322 38.2861 10.2477C38.2781 10.1493 38.2698 10.0475 38.2598 9.93923C38.2326 9.64316 38.1945 9.32462 38.1147 8.99829C37.7257 7.33794 36.5599 5.81391 34.9618 5.16269L34.9619 5.16257L34.9506 5.15825C34.3471 4.9277 33.7395 4.77246 33.1283 4.69464L33.1169 4.69319L33.1055 4.69222C32.4403 4.63575 31.8186 4.57927 31.2052 4.52269V1.08611C31.4842 1.11369 31.7617 1.14508 32.0435 1.17697L32.0483 1.17752C32.5214 1.23107 33.0067 1.286 33.5114 1.32279C35.1673 1.45819 36.6924 2.06479 38.0254 3.08327C39.0934 3.89927 40.0237 4.98443 40.6188 6.19445C41.1556 7.35813 41.4867 8.57905 41.5548 9.78924C41.556 10.1055 41.5941 10.4159 41.6278 10.6901L41.6295 10.7041C41.6656 10.9978 41.6961 11.2523 41.6961 11.5011V11.5255L41.6983 11.5498C41.7323 11.9308 41.7495 12.3318 41.7672 12.7482L41.7675 12.755C41.785 13.1643 41.8031 13.5887 41.8396 13.9972L41.8842 14.4969H42.3859H46.2721C46.5442 14.4969 46.7942 14.5505 47.0459 14.7044L47.0748 14.7221L47.1057 14.736C47.5506 14.9375 47.7977 15.3379 47.8474 15.7428L48.3918 15.676L47.8474 15.7428C47.8959 16.1382 47.7528 16.5518 47.4351 16.8753C47.2411 17.073 47.05 17.1816 46.7601 17.3031C46.621 17.3213 46.4718 17.3218 46.3052 17.3145C46.2525 17.3121 46.1911 17.3084 46.1257 17.3045C45.9891 17.2962 45.835 17.2869 45.7068 17.2869H2.11089C2.03711 17.2869 1.97569 17.2865 1.91917 17.2808C1.89235 17.278 1.87368 17.2747 1.86196 17.2719C1.86006 17.2714 1.85853 17.271 1.85733 17.2707L1.81919 17.2512L1.76957 17.2368C1.39346 17.1273 1.05388 16.8596 0.920677 16.543L0.914501 16.5283L0.907485 16.514C0.699666 16.0906 0.699666 15.6213 0.907485 15.1979L0.91291 15.1868L0.917833 15.1755C1.09812 14.7623 1.51672 14.4883 2.06973 14.425H6.56234H7.06406L7.10866 13.9252C7.13541 13.6255 7.15192 13.3448 7.16785 13.0739C7.19764 12.5675 7.2254 12.0954 7.31427 11.5975L7.31755 11.5791L7.31957 11.5606L7.53155 9.61708L7.53254 9.608L7.53322 9.5989C7.59953 8.72072 7.79871 7.83367 8.06854 7.00609C8.67528 5.43239 9.60735 4.08969 10.8485 3.15807L10.8485 3.15814L10.8563 3.1521C11.9991 2.26178 13.3962 1.59017 14.767 1.39068L14.7955 1.38653L14.8234 1.37943C15.0618 1.31871 15.3263 1.28568 15.6278 1.25935C15.7234 1.251 15.8265 1.24311 15.9334 1.23492C16.1446 1.21874 16.371 1.2014 16.5868 1.17697C16.9065 1.14078 17.2083 1.10462 17.5081 1.06869L17.5089 1.06859ZM10.6804 25.8848L10.6804 25.8848L10.6813 25.8921L10.7873 26.7559L10.8921 27.6099C11.0514 29.4351 12.1384 31.1825 13.7897 32.0655C14.6289 32.531 15.5631 32.7791 16.5155 32.7106C16.9836 32.7636 17.4543 32.8167 17.955 32.8699V32.8716V32.8805V32.8893V32.8982V32.907V32.9159V32.9247V32.9336V32.9425V32.9513V32.9602V32.969V32.9779V32.9867V32.9956V33.0045V33.0133V33.0222V33.031V33.0399V33.0487V33.0576V33.0665V33.0753V33.0842V33.093V33.1019V33.1107V33.1196V33.1285V33.1373V33.1462V33.155V33.1639V33.1727V33.1816V33.1905V33.1993V33.2082V33.217V33.2259V33.2347V33.2436V33.2525V33.2613V33.2702V33.279V33.2879V33.2967V33.3056V33.3145V33.3233V33.3322V33.341V33.3499V33.3587V33.3676V33.3765V33.3853V33.3942V33.403V33.4119V33.4207V33.4296V33.4385V33.4473V33.4562V33.465V33.4739V33.4827V33.4916V33.5005V33.5093V33.5182V33.527V33.5359V33.5447V33.5536V33.5625V33.5713V33.5802V33.589V33.5979V33.6067V33.6156V33.6245V33.6333V33.6422V33.651V33.6599V33.6687V33.6776V33.6865V33.6953V33.7042V33.713V33.7219V33.7307V33.7396V33.7485V33.7573V33.7662V33.775V33.7839V33.7927V33.8016V33.8105V33.8193V33.8282V33.837V33.8459V33.8547V33.8636V33.8724V33.8813V33.8902V33.899V33.9079V33.9167V33.9256V33.9344V33.9433V33.9522V33.961V33.9699V33.9787V33.9876V33.9964V34.0053V34.0142V34.023V34.0319V34.0407V34.0496V34.0584V34.0673V34.0762V34.085V34.0939V34.1027V34.1116V34.1204V34.1293V34.1382V34.147V34.1559V34.1647V34.1736V34.1824V34.1913V34.2002V34.209V34.2179V34.2267V34.2356V34.2444V34.2533V34.2622V34.271V34.2799V34.2887V34.2976V34.3064V34.3153V34.3242V34.333V34.3419V34.3507V34.3596V34.3684V34.3773V34.3862V34.395V34.4039V34.4127V34.4216V34.4304V34.4393V34.4482V34.457V34.4659V34.4747V34.4836V34.4924V34.5013V34.5102V34.519V34.5279V34.5367V34.5456V34.5544V34.5633V34.5722V34.581V34.5899V34.5987V34.6076V34.6164V34.6253V34.6342V34.643V34.6519V34.6607V34.6696V34.6784V34.6873V34.6962V34.705V34.7139V34.7227V34.7316V34.7404V34.7493V34.7582V34.767V34.7759V34.7847V34.7936V34.8024V34.8113V34.8202V34.829V34.8379V34.8467V34.8556V34.8644V34.8733V34.8822V34.891V34.8999V34.9087V34.9176V34.9264V34.9353V34.9442V34.953V34.9619V34.9707V34.9796V34.9884V34.9973V35.0061V35.015V35.0239V35.0327V35.0416V35.0504V35.0593V35.0681V35.077V35.0859V35.0947V35.1036V35.1124V35.1213V35.1301V35.139V35.1479V35.1567V35.1656V35.1744V35.1833V35.1921V35.201V35.2099V35.2187V35.2276V35.2364V35.2453V35.2541V35.263V35.2719V35.2807V35.2896V35.2984V35.3073V35.3161V35.325V35.3339V35.3427V35.3516V35.3604V35.3693V35.3781V35.387V35.3959V35.4047V35.4136V35.4224V35.4313V35.4401V35.449V35.4579V35.4667V35.4756V35.4844V35.4933V35.5021V35.511V35.5199V35.5287V35.5376V35.5464V35.5553V35.5641V35.573V35.5819V35.5907V35.5996V35.6084V35.6173V35.6261V35.635V35.6439V35.6527V35.6616V35.6704V35.6793V35.6881V35.697V35.7059V35.7147V35.7236V35.7324V35.7413V35.7501V35.759V35.7679V35.7767V35.7856V35.7944V35.8033V35.8121V35.821V35.8299V35.8387V35.8476V35.8564V35.8653V35.8741V35.883V35.8919V35.9007V35.9096V35.9184V35.9273V35.9361V35.945V35.9539V35.9627V35.9716V35.9804V35.9893V35.9981V36.007V36.0159V36.0247V36.0336V36.0424V36.0513V36.0601V36.069V36.0779V36.0867V36.0956V36.1044V36.1133V36.1221V36.131V36.1399V36.1487V36.1576V36.1664V36.1753V36.1841V36.193V36.2019V36.2107V36.2196V36.2284V36.2373V36.2461V36.255V36.2639V36.2727V36.2816V36.2904V36.2993V36.3017C17.8151 36.2869 17.6764 36.272 17.5374 36.2571L17.537 36.257C17.21 36.222 16.8814 36.1867 16.5361 36.1515C16.1446 36.0746 15.824 36.074 15.4902 36.074C13.2504 35.8654 11.0654 34.6496 9.67707 32.8986L9.67669 32.8981C8.53901 31.4665 7.80732 29.6985 7.67458 27.873L7.6746 27.873L7.6742 27.8681C7.63785 27.4236 7.58351 26.9993 7.53095 26.5888L7.53027 26.5835C7.47705 26.1678 7.42571 25.7662 7.39157 25.3487L7.38906 25.318L7.38312 25.2878C7.21374 24.425 7.13734 23.5093 7.07552 22.5588H7.08282H7.09151H7.10021H7.1089H7.11759H7.12629H7.13498H7.14368H7.15237H7.16107H7.16976H7.17845H7.18715H7.19584H7.20454H7.21323H7.22193H7.23062H7.23931H7.24801H7.2567H7.2654H7.27409H7.28278H7.29148H7.30017H7.30887H7.31756H7.32626H7.33495H7.34364H7.35234H7.36103H7.36973H7.37842H7.38712H7.39581H7.4045H7.4132H7.42189H7.43059H7.43928H7.44798H7.45667H7.46536H7.47406H7.48275H7.49145H7.50014H7.50883H7.51753H7.52622H7.53492H7.54361H7.55231H7.561H7.56969H7.57839H7.58708H7.59578H7.60447H7.61317H7.62186H7.63055H7.63925H7.64794H7.65664H7.66533H7.67403H7.68272H7.69141H7.70011H7.7088H7.7175H7.72619H7.73488H7.74358H7.75227H7.76097H7.76966H7.77836H7.78705H7.79574H7.80444H7.81313H7.82183H7.83052H7.83922H7.84791H7.8566H7.8653H7.87399H7.88269H7.89138H7.90008H7.90877H7.91746H7.92616H7.93485H7.94355H7.95224H7.96093H7.96963H7.97832H7.98702H7.99571H8.00441H8.0131H8.02179H8.03049H8.03918H8.04788H8.05657H8.06527H8.07396H8.08265H8.09135H8.10004H8.10874H8.11743H8.12613H8.13482H8.14351H8.15221H8.1609H8.1696H8.17829H8.18699H8.19568H8.20437H8.21307H8.22176H8.23046H8.23915H8.24784H8.25654H8.26523H8.27393H8.28262H8.29132H8.30001H8.3087H8.3174H8.32609H8.33479H8.34348H8.35218H8.36087H8.36956H8.37826H8.38695H8.39565H8.40434H8.41304H8.42173H8.43042H8.43912H8.44781H8.45651H8.4652H8.4739H8.48259H8.49128H8.49998H8.50867H8.51737H8.52606H8.53475H8.54345H8.55214H8.56084H8.56953H8.57823H8.58692H8.59561H8.60431H8.613H8.6217H8.63039H8.63908H8.64778H8.65647H8.66517H8.67386H8.68256H8.69125H8.69994H8.70864H8.71733H8.72603H8.73472H8.74342H8.75211H8.7608H8.7695H8.77819H8.78689H8.79558H8.80428H8.81297H8.82166H8.83036H8.83905H8.84775H8.85644H8.86514H8.87383H8.88252H8.89122H8.89991H8.90861H8.9173H8.92599H8.93469H8.94338H8.95208H8.96077H8.96947H8.97816H8.98685H8.99555H9.00424H9.01294H9.02163H9.03033H9.03902H9.04771H9.05641H9.0651H9.0738H9.08249H9.09119H9.09988H9.10857H9.11727H9.12596H9.13466H9.14335H9.15205H9.16074H9.16943H9.17813H9.18682H9.19552H9.20421H9.2129H9.2216H9.23029H9.23899H9.24768H9.25638H9.26507H9.27376H9.28246H9.29115H9.29985H9.30854H9.31723H9.32593H9.33462H9.34332H9.35201H9.36071H9.3694H9.37809H9.38679H9.39548H9.40418H9.41287H9.42157H9.43026H9.43895H9.44765H9.45634H9.46504H9.47373H9.48243H9.49112H9.49981H9.50851H9.5172H9.5259H9.53459H9.54329H9.55198H9.56067H9.56937H9.57806H9.58676H9.59545H9.60415H9.61284H9.62153H9.63023H9.63892H9.64762H9.65631H9.665H9.6737H9.68239H9.69109H9.69978H9.70848H9.71717H9.72586H9.73456H9.74325H9.75195H9.76064H9.76934H9.77803H9.78672H9.79542H9.80411H9.81281H9.8215H9.8302H9.83889H9.84758H9.85628H9.86497H9.87367H9.88236H9.89106H9.89975H9.90844H9.91714H9.92583H9.93453H9.94322H9.95191H9.96061H9.9693H9.978H9.98669H9.99539H10.0041H10.0128H10.0215H10.0302H10.0389H10.0476H10.0562H10.0649H10.0736H10.0823H10.091H10.0997H10.1084H10.1171H10.1258H10.1345H10.1432H10.1519H10.1606H10.1693H10.178H10.1867H10.1954H10.204H10.2127H10.2214H10.2301H10.2388H10.2475H10.2562H10.2649H10.2736H10.2823H10.291H10.2997H10.3084H10.3171H10.3258H10.3345H10.3432H10.3518H10.3605H10.3692H10.3779H10.3866H10.3953H10.404H10.4127H10.4214H10.424C10.4864 23.6689 10.5565 24.7488 10.6804 25.8848ZM38.6902 23.5666H42.0181C41.9569 24.6491 41.8885 25.6864 41.7699 26.7736L41.7699 26.7736L41.7693 26.7795C41.7419 27.0589 41.7252 27.317 41.7093 27.5643C41.6799 28.0204 41.6528 28.4396 41.565 28.8868L41.5649 28.8868L41.563 28.8978C41.2308 30.7927 40.3009 32.4893 38.8953 33.8532C37.5742 35.1316 35.7817 35.9458 33.9181 36.1492L33.9018 36.151L33.8858 36.1537C33.5148 36.2167 33.137 36.2179 32.7057 36.2179H32.6748L32.644 36.2214C32.328 36.2572 31.994 36.293 31.658 36.329C31.5306 36.3427 31.4028 36.3564 31.2758 36.3701V32.9361C31.4223 32.9188 31.5666 32.9015 31.7104 32.8843L31.7111 32.8842L31.712 32.8841C32.0025 32.8493 32.2911 32.8147 32.5954 32.7801H32.5955H32.5967H32.5979H32.5992H32.6004H32.6017H32.6029H32.6041H32.6054H32.6066H32.6079H32.6091H32.6103H32.6116H32.6128H32.6141H32.6153H32.6165H32.6178H32.619H32.6203H32.6215H32.6227H32.624H32.6252H32.6264H32.6277H32.6289H32.6302H32.6314H32.6326H32.6339H32.6351H32.6363H32.6376H32.6388H32.6401H32.6413H32.6425H32.6438H32.645H32.6462H32.6475H32.6487H32.6499H32.6512H32.6524H32.6536H32.6549H32.6561H32.6573H32.6586H32.6598H32.661H32.6623H32.6635H32.6647H32.666H32.6672H32.6684H32.6697H32.6709H32.6721H32.6734H32.6746H32.6758H32.677H32.6783H32.6795H32.6807H32.682H32.6832H32.6844H32.6856H32.6869H32.6881H32.6893H32.6905H32.6918H32.693H32.6942H32.6954H32.6967H32.6979H32.6991H32.7003H32.7016H32.7028H32.704H32.7052H32.7064H32.7077H32.7089H32.7101H32.7113H32.7125H32.7138H32.715H32.7162H32.7174H32.7186H32.7199H32.7211H32.7223H32.7235H32.7247H32.7259H32.7271H32.7284H32.7296H32.7308H32.732H32.7332H32.7344H32.7356H32.7369H32.7381H32.7393H32.7405H32.7417H32.7429H32.7441H32.7453H32.7465H32.7477H32.7489H32.7501H32.7514H32.7526H32.7538H32.755H32.7562H32.7574H32.7586H32.7598H32.761H32.7622H32.7634H32.7646H32.7658H32.767H32.7682H32.7694H32.7706H32.7718H32.773H32.7742H32.7754H32.7766H32.7778H32.7789H32.7801H32.7813H32.7825H32.7837H32.7849H32.7861H32.7873H32.7885H32.7897H32.7909H32.792H32.7932H32.7944H32.7956H32.7968H32.798H32.7992H32.8003H32.8015H32.8027H32.8039H32.8051H32.8063H32.8074H32.8086H32.8098H32.811H32.8121H32.8133H32.8145H32.8157H32.8168H32.818H32.8192H32.8204H32.8215H32.8227H32.8239H32.8251H32.8262H32.8274H32.8286H32.8297H32.8309H32.8321H32.8332H32.8344H32.8355H32.8367H32.8379H32.839H32.8402H32.8414H32.8425H32.8437H32.8448H32.846H32.8471H32.8483H32.8495H32.8506H32.8518H32.8529H32.8541H32.8552H32.8564H32.8575H32.8587H32.8598H32.861H32.8621H32.8633H32.8644H32.8656H32.8667H32.8678H32.869H32.8701H32.8713H32.8724H32.8735H32.8747H32.8758H32.877H32.8781H32.8792H32.8804H32.8815H32.8826H32.8838H32.8849H32.886H32.8871H32.8883H32.8894H32.8905H32.8917H32.8928H32.8939H32.895H32.8961H32.8973H32.8984H32.8995H32.9006H32.9017H32.9029H32.904H32.9051H32.9062H32.9073H32.9084H32.9095H32.9107H32.9118H32.9129H32.914H32.9151H32.9162H32.9173H32.9184H32.9195H32.9206H32.9217H32.9228H32.9239H32.925H32.9261H32.9272H32.9283H32.9294H32.9305H32.9316H32.9327H32.9338H32.9348H32.9359H32.937H32.9381H32.9392H32.9403H32.9414H32.9425H32.9435H32.9446H32.9457H32.9468H32.9478H32.9489H32.95H32.9511H32.9522H32.9532H32.9543H32.9554H32.9564H32.9575H32.9586H32.9596H32.9607H32.9618H32.9628H32.9639H32.965H32.966H32.9671H32.9681H32.9692H32.9702H32.9713H32.9724H32.9734H32.9745H32.9755H32.9766H32.9776H32.9786H32.9797H32.9807H32.9818H32.9828H32.9839H32.9849H32.9859H32.987H32.988H32.9891H32.9901H32.9911H32.9922H32.9932H32.9942H32.9952H32.9963H32.9973H32.9983H32.9993H33.0004H33.0014H33.0024H33.0034H33.0045H33.0055H33.0065H33.0075H33.0085H33.0095H33.0105H33.0115H33.0126H33.0136H33.0146H33.0156H33.0166H33.0176H33.0186H33.0196H33.0206H33.0216H33.0226H33.0236H33.0246H33.0256H33.0265H33.0275H33.0285H33.0295H33.0305H33.0315H33.0325H33.0334H33.0344H33.0354H33.0364H33.0374H33.0383H33.0393H33.0403H33.0413H33.0422H33.0432H33.0442H33.0451H33.0461H33.0471H33.048H33.049H33.0499H33.0509H33.0519H33.0528H33.0538H33.0547H33.0557H33.0566H33.0576H33.0585H33.0595H33.0604H33.0614H33.0623H33.0632H33.0642H33.0651H33.0661H33.067H33.0679H33.0689H33.0698H33.0707H33.0717H33.0726H33.0735H33.0744H33.0754H33.0763H33.0772H33.0781H33.079H33.0799H33.0809H33.0818H33.0827H33.0836H33.0845H33.0854H33.0863H33.0872H33.0881H33.089H33.0899H33.0908H33.0917H33.0926H33.0935H33.0944H33.0953H33.0962H33.0971H33.098H33.0988H33.0997H33.1006H33.1015H33.1024H33.1032H33.1041H33.105H33.1059H33.1067H33.1076H33.1085H33.1093H33.1102H33.1111H33.1119H33.1128H33.1137H33.1145H33.1154H33.1162H33.1171H33.1179H33.1188H33.1196H33.1205H33.1213H33.1222H33.123H33.1238H33.1247H33.1255H33.1264H33.1272H33.128H33.1288H33.1297H33.1496L33.1695 32.7787C34.2562 32.6996 35.354 32.3052 36.2275 31.5807C37.161 30.8643 37.8611 29.8357 38.1768 28.7198C38.3585 28.1585 38.4027 27.5775 38.4434 27.0417C38.4548 26.8922 38.4659 26.7462 38.4797 26.6052C38.6019 25.6068 38.672 24.6087 38.6902 23.5666Z" fill="url(#paint0_linear_18_5000)" stroke="white" stroke-width="1.09699"/>
<defs>
<linearGradient id="paint0_linear_18_5000" x1="24.3042" y1="0.416016" x2="24.3042" y2="36.9824" gradientUnits="userSpaceOnUse">
<stop stop-color="#90D4BF"/>
<stop offset="1" stop-color="#4DA092"/>
</linearGradient>
</defs>
</svg>
