<svg width="136" height="22" viewBox="0 0 136 22" fill="none" xmlns="http://www.w3.org/2000/svg">
<path d="M3.62193 21.6492V10.6208H0.842886V6.78866H5.08458L3.62193 8.1343V6.11584C3.62193 4.06812 4.15824 2.53721 5.23085 1.5231C6.30346 0.508998 7.92213 0.00194415 10.0869 0.00194415C10.5744 0.00194415 11.0912 0.0311969 11.6373 0.0897023C12.1833 0.148209 12.6709 0.265221 13.0999 0.44074V4.41916C12.8269 4.32165 12.5149 4.25339 12.1638 4.21439C11.8128 4.15588 11.4715 4.12663 11.14 4.12663C10.7499 4.12663 10.3696 4.19489 9.9991 4.3314C9.64807 4.44841 9.35554 4.66294 9.12151 4.97497C8.90699 5.287 8.79973 5.71605 8.79973 6.2621V7.57849L8.0684 6.78866H12.3979V10.6208H8.82898V21.6492H3.62193ZM19.8988 21.971C18.6116 21.971 17.4805 21.6687 16.5054 21.0642C15.5303 20.4401 14.76 19.543 14.1944 18.3729C13.6484 17.2028 13.3753 15.8181 13.3753 14.2189C13.3753 12.6003 13.6484 11.2156 14.1944 10.065C14.76 8.89488 15.5303 8.00754 16.5054 7.40298C17.4805 6.77891 18.6116 6.46688 19.8988 6.46688C21.0494 6.46688 22.083 6.7399 22.9996 7.28596C23.9357 7.83202 24.55 8.54385 24.8425 9.42144H24.55L24.8718 6.78866H29.8741C29.8156 7.45173 29.7571 8.12455 29.6985 8.80712C29.6595 9.4897 29.64 10.1625 29.64 10.8256V21.6492H24.4915L24.433 19.1335H24.784C24.4915 19.9916 23.8772 20.6839 22.9411 21.2104C22.0245 21.7175 21.0104 21.971 19.8988 21.971ZM21.5662 18.1096C22.4438 18.1096 23.1556 17.8073 23.7017 17.2028C24.2477 16.5787 24.5207 15.5841 24.5207 14.2189C24.5207 12.8538 24.2477 11.8689 23.7017 11.2644C23.1556 10.6403 22.4438 10.3283 21.5662 10.3283C20.6886 10.3283 19.9768 10.6403 19.4307 11.2644C18.8847 11.8689 18.6116 12.8538 18.6116 14.2189C18.6116 15.5841 18.8749 16.5787 19.4015 17.2028C19.9475 17.8073 20.6691 18.1096 21.5662 18.1096ZM40.3922 21.971C38.754 21.971 37.3206 21.659 36.0919 21.0349C34.8633 20.4109 33.9077 19.5235 33.2251 18.3729C32.5426 17.2028 32.2013 15.8084 32.2013 14.1897C32.2013 12.571 32.5426 11.1864 33.2251 10.0358C33.9077 8.88513 34.8633 8.00754 36.0919 7.40298C37.3206 6.77891 38.754 6.46688 40.3922 6.46688C41.4063 6.46688 42.4009 6.60339 43.376 6.87642C44.3511 7.14945 45.1409 7.53949 45.7455 8.04654L44.2828 11.5862C43.8148 11.1961 43.2785 10.9036 42.6739 10.7086C42.0888 10.4941 41.5135 10.3868 40.948 10.3868C39.8753 10.3868 39.0368 10.7086 38.4322 11.3521C37.8471 11.9957 37.5546 12.9416 37.5546 14.1897C37.5546 15.4378 37.8471 16.3934 38.4322 17.0565C39.0368 17.7001 39.8753 18.0218 40.948 18.0218C41.494 18.0218 42.0693 17.9243 42.6739 17.7293C43.2785 17.5148 43.8148 17.2223 44.2828 16.8517L45.7455 20.3913C45.1214 20.8789 44.3218 21.2689 43.3467 21.5615C42.3911 21.8345 41.4063 21.971 40.3922 21.971ZM55.4547 21.971C52.7635 21.971 50.667 21.2787 49.1653 19.894C47.6832 18.5094 46.9421 16.6079 46.9421 14.1897C46.9421 12.688 47.2541 11.3521 47.8782 10.182C48.5023 9.0119 49.3799 8.10505 50.511 7.46148C51.6421 6.79841 52.9682 6.46688 54.4894 6.46688C55.9911 6.46688 57.2392 6.79841 58.2338 7.46148C59.2479 8.10505 60.0085 9.00214 60.5155 10.1528C61.0226 11.2839 61.2761 12.6003 61.2761 14.1019V15.2136H51.3008V12.7563H57.444L56.9467 13.1658C56.9467 12.0542 56.7321 11.2351 56.3031 10.7086C55.8935 10.1625 55.3085 9.88949 54.5479 9.88949C53.6703 9.88949 52.9975 10.221 52.5294 10.8841C52.0809 11.5277 51.8566 12.5028 51.8566 13.8094V14.336C51.8566 15.6426 52.1784 16.5982 52.822 17.2028C53.4655 17.8073 54.3919 18.1096 55.601 18.1096C56.3811 18.1096 57.1124 18.0218 57.795 17.8463C58.4971 17.6708 59.1601 17.388 59.7842 16.998L61.1298 20.3913C60.3888 20.8984 59.5307 21.2884 58.5556 21.5615C57.5805 21.8345 56.5469 21.971 55.4547 21.971ZM73.4968 21.971C72.3657 21.971 71.3321 21.698 70.396 21.1519C69.4794 20.6059 68.8748 19.8843 68.5823 18.9872H68.9041V21.6492H63.7555V0.118955H68.9626V9.30443H68.6116C68.9431 8.44634 69.5574 7.76376 70.4545 7.25671C71.3711 6.73015 72.3852 6.46688 73.4968 6.46688C74.784 6.46688 75.9151 6.77891 76.8902 7.40298C77.8848 8.02704 78.6551 8.92414 79.2012 10.0943C79.7667 11.2644 80.0495 12.649 80.0495 14.2482C80.0495 15.8669 79.7667 17.2515 79.2012 18.4021C78.6551 19.5528 77.8848 20.4401 76.8902 21.0642C75.9151 21.6687 74.784 21.971 73.4968 21.971ZM71.8586 18.1096C72.7167 18.1096 73.4188 17.8073 73.9649 17.2028C74.5304 16.5982 74.8132 15.6133 74.8132 14.2482C74.8132 12.8831 74.5304 11.8884 73.9649 11.2644C73.4188 10.6403 72.7167 10.3283 71.8586 10.3283C70.9811 10.3283 70.2692 10.6403 69.7232 11.2644C69.1771 11.8689 68.9041 12.8538 68.9041 14.2189C68.9041 15.5841 69.1771 16.5787 69.7232 17.2028C70.2692 17.8073 70.9811 18.1096 71.8586 18.1096ZM90.0118 21.971C88.3541 21.971 86.9207 21.659 85.7116 21.0349C84.5025 20.4109 83.5664 19.5235 82.9033 18.3729C82.2402 17.2028 81.9087 15.8181 81.9087 14.2189C81.9087 12.6003 82.2402 11.2156 82.9033 10.065C83.5664 8.91439 84.5025 8.02704 85.7116 7.40298C86.9207 6.77891 88.3541 6.46688 90.0118 6.46688C91.65 6.46688 93.0736 6.77891 94.2827 7.40298C95.4919 8.02704 96.428 8.92414 97.091 10.0943C97.7541 11.2449 98.0856 12.6198 98.0856 14.2189C98.0856 15.7986 97.7541 17.1735 97.091 18.3436C96.428 19.5138 95.4919 20.4109 94.2827 21.0349C93.0736 21.659 91.65 21.971 90.0118 21.971ZM90.0118 18.1096C90.8699 18.1096 91.5525 17.8073 92.0595 17.2028C92.5666 16.5787 92.8201 15.5841 92.8201 14.2189C92.8201 12.8538 92.5666 11.8689 92.0595 11.2644C91.5525 10.6403 90.8699 10.3283 90.0118 10.3283C89.1342 10.3283 88.4419 10.6403 87.9348 11.2644C87.4278 11.8689 87.1742 12.8538 87.1742 14.2189C87.1742 15.5841 87.4278 16.5787 87.9348 17.2028C88.4419 17.8073 89.1342 18.1096 90.0118 18.1096ZM108.066 21.971C106.409 21.971 104.975 21.659 103.766 21.0349C102.557 20.4109 101.621 19.5235 100.958 18.3729C100.295 17.2028 99.9633 15.8181 99.9633 14.2189C99.9633 12.6003 100.295 11.2156 100.958 10.065C101.621 8.91439 102.557 8.02704 103.766 7.40298C104.975 6.77891 106.409 6.46688 108.066 6.46688C109.705 6.46688 111.128 6.77891 112.337 7.40298C113.547 8.02704 114.483 8.92414 115.146 10.0943C115.809 11.2449 116.14 12.6198 116.14 14.2189C116.14 15.7986 115.809 17.1735 115.146 18.3436C114.483 19.5138 113.547 20.4109 112.337 21.0349C111.128 21.659 109.705 21.971 108.066 21.971ZM108.066 18.1096C108.925 18.1096 109.607 17.8073 110.114 17.2028C110.621 16.5787 110.875 15.5841 110.875 14.2189C110.875 12.8538 110.621 11.8689 110.114 11.2644C109.607 10.6403 108.925 10.3283 108.066 10.3283C107.189 10.3283 106.497 10.6403 105.989 11.2644C105.482 11.8689 105.229 12.8538 105.229 14.2189C105.229 15.5841 105.482 16.5787 105.989 17.2028C106.497 17.8073 107.189 18.1096 108.066 18.1096ZM118.691 21.6492V0.118955H123.898V12.7855H123.956L128.929 6.78866H135.073L128.344 14.7455V12.9611L135.336 21.6492H129.046L123.956 15.4183H123.898V21.6492H118.691Z" fill="#5571FF"/>
</svg>
