<svg width="100" height="29" viewBox="0 0 100 29" fill="none" xmlns="http://www.w3.org/2000/svg">
<path d="M11.1877 22.6098C8.78894 22.6098 6.76072 22.171 5.10305 21.2934C3.46487 20.4158 2.21674 19.1872 1.35865 17.6075C0.520063 16.0278 0.100769 14.1849 0.100769 12.0787C0.100769 9.89443 0.559068 8.00273 1.47566 6.40357C2.41176 4.78489 3.74765 3.53676 5.48334 2.65917C7.21902 1.78158 9.30574 1.34278 11.7435 1.34278C13.2452 1.34278 14.5713 1.5183 15.7219 1.86934C16.892 2.22037 17.8964 2.72743 18.735 3.3905L17.0676 7.51518C16.463 7.10564 15.8877 6.79361 15.3416 6.57909C14.8151 6.34506 14.269 6.17929 13.7035 6.08178C13.1574 5.98427 12.5236 5.93552 11.802 5.93552C9.77379 5.93552 8.25263 6.46207 7.23852 7.51518C6.24392 8.54879 5.74662 10.07 5.74662 12.0787C5.74662 14.0679 6.20491 15.5695 7.12151 16.5836C8.03811 17.5977 9.49101 18.1048 11.4802 18.1048C12.0848 18.1048 12.7381 18.0463 13.4402 17.9293C14.1618 17.8123 14.8931 17.6368 15.6342 17.4027L14.6688 19.3334V14.4189H10.3979V10.6745H19.086V21.0009C17.9744 21.5274 16.7263 21.9272 15.3416 22.2002C13.9765 22.4733 12.5918 22.6098 11.1877 22.6098ZM65.6972 28.8407C64.215 28.8407 62.9084 28.7042 61.7773 28.4311C60.6656 28.1776 59.6613 27.7778 58.7642 27.2318L59.671 23.5459C60.1976 23.8579 60.7729 24.1212 61.397 24.3357C62.021 24.5502 62.6646 24.7062 63.3277 24.8038C64.0102 24.9208 64.6538 24.9793 65.2584 24.9793C66.5065 24.9793 67.4329 24.6867 68.0374 24.1017C68.642 23.5361 68.9443 22.7268 68.9443 21.6737V19.0702H69.2368C68.9248 19.9282 68.3104 20.6206 67.3938 21.1471C66.4773 21.6542 65.4631 21.9077 64.3515 21.9077C63.0254 21.9077 61.865 21.6152 60.8704 21.0301C59.8953 20.4255 59.125 19.5675 58.5594 18.4558C58.0134 17.3442 57.7403 16.0278 57.7403 14.5067C57.7403 12.9855 58.0134 11.6691 58.5594 10.5575C59.125 9.44589 59.8953 8.59755 60.8704 8.01249C61.865 7.40792 63.0254 7.10564 64.3515 7.10564C65.5021 7.10564 66.5163 7.35917 67.3938 7.86622C68.2714 8.37327 68.8663 9.0461 69.1783 9.88468L68.9443 9.82618L69.266 7.42742H74.2683C74.1903 8.09049 74.1318 8.76332 74.0928 9.44589C74.0538 10.1285 74.0343 10.8013 74.0343 11.4644V21.0886C74.0343 23.5849 73.3225 25.4961 71.8988 26.8222C70.4752 28.1679 68.408 28.8407 65.6972 28.8407ZM65.9604 18.0463C66.8575 18.0463 67.5694 17.744 68.0959 17.1395C68.6225 16.5349 68.8858 15.6573 68.8858 14.5067C68.8858 13.3365 68.6225 12.459 68.0959 11.8739C67.5694 11.2693 66.8575 10.967 65.9604 10.967C65.0439 10.967 64.3223 11.2693 63.7957 11.8739C63.2692 12.459 63.0059 13.3365 63.0059 14.5067C63.0059 15.6573 63.2692 16.5349 63.7957 17.1395C64.3223 17.744 65.0439 18.0463 65.9604 18.0463Z" fill="#4285F4"/>
<path d="M29.7341 22.6098C28.0765 22.6098 26.6431 22.2977 25.4339 21.6737C24.2248 21.0496 23.2887 20.1623 22.6256 19.0116C21.9626 17.8415 21.631 16.4569 21.631 14.8577C21.631 13.239 21.9626 11.8544 22.6256 10.7038C23.2887 9.55315 24.2248 8.66581 25.4339 8.04174C26.6431 7.41767 28.0765 7.10564 29.7341 7.10564C31.3723 7.10564 32.796 7.41767 34.0051 8.04174C35.2142 8.66581 36.1503 9.5629 36.8134 10.733C37.4765 11.8836 37.808 13.2585 37.808 14.8577C37.808 16.4374 37.4765 17.8123 36.8134 18.9824C36.1503 20.1525 35.2142 21.0496 34.0051 21.6737C32.796 22.2977 31.3723 22.6098 29.7341 22.6098ZM29.7341 18.7484C30.5922 18.7484 31.2748 18.4461 31.7819 17.8415C32.2889 17.2175 32.5424 16.2229 32.5424 14.8577C32.5424 13.4926 32.2889 12.5077 31.7819 11.9031C31.2748 11.2791 30.5922 10.967 29.7341 10.967C28.8566 10.967 28.1642 11.2791 27.6572 11.9031C27.1501 12.5077 26.8966 13.4926 26.8966 14.8577C26.8966 16.2229 27.1501 17.2175 27.6572 17.8415C28.1642 18.4461 28.8566 18.7484 29.7341 18.7484ZM93.5063 22.6098C90.8151 22.6098 88.7186 21.9175 87.2169 20.5328C85.7348 19.1482 84.9937 17.2467 84.9937 14.8285C84.9937 13.3268 85.3057 11.9909 85.9298 10.8208C86.5539 9.65066 87.4315 8.74381 88.5626 8.10025C89.6937 7.43717 91.0198 7.10564 92.541 7.10564C94.0426 7.10564 95.2908 7.43717 96.2854 8.10025C97.2995 8.74381 98.0601 9.64091 98.5671 10.7915C99.0742 11.9226 99.3277 13.239 99.3277 14.7407V15.8523H89.3524V13.3951H95.4956L94.9983 13.8046C94.9983 12.693 94.7837 11.8739 94.3547 11.3473C93.9451 10.8013 93.3601 10.5283 92.5995 10.5283C91.7219 10.5283 91.0491 10.8598 90.581 11.5229C90.1325 12.1664 89.9082 13.1415 89.9082 14.4482V14.9747C89.9082 16.2814 90.23 17.237 90.8736 17.8415C91.5171 18.4461 92.4435 18.7484 93.6526 18.7484C94.4327 18.7484 95.164 18.6606 95.8466 18.4851C96.5487 18.3096 97.2117 18.0268 97.8358 17.6368L99.1814 21.0301C98.4404 21.5372 97.5823 21.9272 96.6072 22.2002C95.6321 22.4733 94.5985 22.6098 93.5063 22.6098Z" fill="#EA4335"/>
<path d="M47.7888 22.6098C46.1311 22.6098 44.6977 22.2977 43.4886 21.6737C42.2795 21.0496 41.3434 20.1623 40.6803 19.0116C40.0172 17.8415 39.6857 16.4569 39.6857 14.8577C39.6857 13.239 40.0172 11.8544 40.6803 10.7038C41.3434 9.55315 42.2795 8.66581 43.4886 8.04174C44.6977 7.41767 46.1311 7.10564 47.7888 7.10564C49.427 7.10564 50.8506 7.41767 52.0597 8.04174C53.2689 8.66581 54.205 9.5629 54.868 10.733C55.5311 11.8836 55.8626 13.2585 55.8626 14.8577C55.8626 16.4374 55.5311 17.8123 54.868 18.9824C54.205 20.1525 53.2689 21.0496 52.0597 21.6737C50.8506 22.2977 49.427 22.6098 47.7888 22.6098ZM47.7888 18.7484C48.6469 18.7484 49.3295 18.4461 49.8365 17.8415C50.3436 17.2175 50.5971 16.2229 50.5971 14.8577C50.5971 13.4926 50.3436 12.5077 49.8365 11.9031C49.3295 11.2791 48.6469 10.967 47.7888 10.967C46.9112 10.967 46.2189 11.2791 45.7118 11.9031C45.2048 12.5077 44.9512 13.4926 44.9512 14.8577C44.9512 16.2229 45.2048 17.2175 45.7118 17.8415C46.2189 18.4461 46.9112 18.7484 47.7888 18.7484Z" fill="#FBBC03"/>
<path d="M77.2391 22.288V0.757718H82.4462V22.288H77.2391Z" fill="#31C65B"/>
</svg>
