<svg width="113" height="22" viewBox="0 0 113 22" fill="none" xmlns="http://www.w3.org/2000/svg">
<path d="M0.0490236 18.6492V0.603729H4.78437V18.6492H0.0490236ZM8.12291 18.6492V0.603729H11.604L20.742 11.943H19.9997V0.603729H24.3767V18.6492H20.8955L11.8088 7.31H12.5511V18.6492H8.12291ZM27.6952 18.6492V0.603729H32.4305V18.6492H27.6952ZM50.9886 18.6492V4.4176H45.5109V0.603729H61.2016V4.4176H55.7239V18.6492H50.9886ZM63.1903 18.6492V0.603729H76.1421V4.21283H67.7209V7.66835H75.5278V11.303H67.7209V15.0145H76.1421V18.6492H63.1903ZM87.7243 18.9308C85.7619 18.9308 84.064 18.5468 82.6306 17.779C81.2142 17.0111 80.1136 15.9275 79.3286 14.5282C78.5608 13.1289 78.1768 11.4908 78.1768 9.61368C78.1768 7.73661 78.5608 6.10697 79.3286 4.72476C80.1136 3.32549 81.2142 2.2419 82.6306 1.47401C84.064 0.706116 85.7619 0.322169 87.7243 0.322169C88.97 0.322169 90.1048 0.492812 91.1286 0.834098C92.1525 1.15832 93.0142 1.62759 93.7139 2.2419L92.306 5.95339C91.5211 5.39027 90.7959 4.99779 90.1303 4.77595C89.4819 4.53705 88.7396 4.4176 87.9035 4.4176C86.3677 4.4176 85.1817 4.86981 84.3455 5.77421C83.5265 6.66156 83.1169 7.94138 83.1169 9.61368C83.1169 11.303 83.5265 12.5999 84.3455 13.5043C85.1817 14.3917 86.3677 14.8354 87.9035 14.8354C88.7396 14.8354 89.4819 14.7244 90.1303 14.5026C90.7959 14.2637 91.5211 13.8627 92.306 13.2996L93.7139 17.0111C93.0142 17.6254 92.1525 18.1032 91.1286 18.4445C90.1048 18.7687 88.97 18.9308 87.7243 18.9308ZM96.1857 18.6492V0.603729H100.921V7.56597H108.19V0.603729H112.926V18.6492H108.19V11.431H100.921V18.6492H96.1857Z" fill="#DBDBDB"/>
<path d="M34.5404 21.2345V18.6492H46.5964V21.2345H34.5404Z" fill="#5571FF"/>
</svg>
