<svg width="55" height="55" viewBox="0 0 55 55" fill="none" xmlns="http://www.w3.org/2000/svg">
<rect width="46.8049" height="46.8049" rx="10.9699" transform="matrix(1 0 0 -1 0.246338 47.3313)" fill="url(#paint0_linear_14_3248)"/>
<g filter="url(#filter0_b_14_3248)">
<rect width="46.8049" height="46.8049" rx="10.9699" transform="matrix(1 0 0 -1 7.55957 54.6445)" fill="#EEEEEE" fill-opacity="0.61"/>
<rect x="0.365664" y="-0.365664" width="46.0736" height="46.0736" rx="10.6042" transform="matrix(1 0 0 -1 7.55957 53.9132)" stroke="white" stroke-width="0.731327"/>
</g>
<path d="M39.4413 27.2767C39.5855 27.723 39.9086 28.0725 40.1918 28.3309C40.4274 28.546 40.7058 28.7582 40.9536 28.9471C41.01 28.9901 41.0648 29.0319 41.1171 29.0722C41.4226 29.3075 41.6622 29.5058 41.8264 29.6954C41.9904 29.8848 42.0073 29.9843 42.0073 30.0214C42.0073 30.0587 41.9904 30.158 41.8267 30.347C41.6629 30.5363 41.4236 30.7343 41.1182 30.9694C41.066 31.0096 41.0114 31.0513 40.9552 31.0941C40.7074 31.283 40.4289 31.4953 40.193 31.7106C39.9094 31.9695 39.5865 32.319 39.4416 32.7653L39.4414 32.7656C39.2957 33.2153 39.3448 33.6898 39.4201 34.0747C39.485 34.4058 39.5889 34.7566 39.6805 35.0661C39.6972 35.1225 39.7135 35.1775 39.7291 35.2308C39.838 35.6032 39.9161 35.9034 39.9393 36.1513C39.9627 36.4016 39.9176 36.4792 39.9064 36.4947L39.9062 36.4949C39.8927 36.5135 39.8298 36.5814 39.5845 36.6368C39.3409 36.6919 39.0307 36.7105 38.6432 36.7217C38.5848 36.7234 38.5244 36.7249 38.4624 36.7265C38.1424 36.7345 37.7806 36.7436 37.4504 36.7827C37.0634 36.8285 36.5965 36.9263 36.215 37.2037L36.2148 37.2039C35.8341 37.4809 35.5991 37.8957 35.4381 38.2483C35.3021 38.5461 35.1838 38.8834 35.0789 39.1824C35.0572 39.2444 35.036 39.3047 35.0154 39.3626C34.8857 39.7274 34.772 40.0168 34.6438 40.2316C34.5151 40.4472 34.4294 40.4887 34.4028 40.4974L34.4024 40.4975C34.3913 40.5011 34.3087 40.5219 34.0784 40.4212C33.851 40.3217 33.5907 40.1539 33.2695 39.9342C33.2278 39.9057 33.185 39.8763 33.1412 39.8461C32.8711 39.6602 32.5633 39.4485 32.2604 39.2812C31.9137 39.0896 31.4753 38.8982 30.9997 38.8982C30.5241 38.8982 30.0857 39.0896 29.739 39.2812C29.4361 39.4485 29.1283 39.6602 28.8582 39.8461C28.8144 39.8763 28.7716 39.9057 28.7299 39.9342C28.4087 40.1539 28.1484 40.3217 27.921 40.4212C27.6907 40.5219 27.6081 40.5011 27.597 40.4975L27.5967 40.4974C27.57 40.4887 27.4843 40.4472 27.3556 40.2316C27.2274 40.0168 27.1137 39.7274 26.984 39.3626C26.9634 39.3047 26.9423 39.2444 26.9205 39.1825C26.8156 38.8834 26.6973 38.5462 26.5613 38.2483C26.4003 37.8957 26.1653 37.4809 25.7846 37.2039L25.7844 37.2037C25.4029 36.9263 24.936 36.8285 24.549 36.7827C24.2188 36.7436 23.857 36.7345 23.537 36.7265C23.475 36.7249 23.4146 36.7234 23.3562 36.7217C22.9687 36.7105 22.6585 36.6919 22.4149 36.6368C22.1696 36.5814 22.1067 36.5135 22.0932 36.4949L22.093 36.4947C22.0818 36.4792 22.0367 36.4016 22.0601 36.1513C22.0833 35.9034 22.1614 35.6032 22.2703 35.2308C22.2859 35.1775 22.3022 35.1225 22.3189 35.0662C22.4105 34.7566 22.5144 34.4058 22.5793 34.0747C22.6546 33.6898 22.7037 33.2153 22.558 32.7656L22.5579 32.7653C22.413 32.3192 22.0902 31.9695 21.8067 31.7104C21.5705 31.4947 21.2917 31.282 21.0436 31.0927C20.9877 31.05 20.9333 31.0086 20.8814 30.9685C20.576 30.7331 20.3365 30.5349 20.1725 30.3456C20.0086 30.1563 19.9921 30.0575 19.9921 30.0214C19.9921 29.9852 20.0086 29.8864 20.1725 29.6972C20.3365 29.5078 20.576 29.3096 20.8814 29.0742C20.9333 29.0342 20.9877 28.9927 21.0436 28.9501C21.2917 28.7608 21.5705 28.5481 21.8067 28.3323C22.0902 28.0732 22.413 27.7236 22.5579 27.2775L22.558 27.2771C22.7037 26.8275 22.6546 26.353 22.5793 25.9681C22.5144 25.637 22.4105 25.2861 22.3189 24.9766C22.3022 24.9202 22.2859 24.8652 22.2703 24.812C22.1614 24.4395 22.0833 24.1394 22.0601 23.8914C22.0367 23.6412 22.0818 23.5635 22.093 23.5481L22.0932 23.5479C22.1067 23.5292 22.1696 23.4614 22.4149 23.4059C22.6585 23.3509 22.9687 23.3322 23.3562 23.321C23.4146 23.3194 23.475 23.3178 23.537 23.3163C23.857 23.3083 24.2188 23.2992 24.549 23.2601C24.936 23.2143 25.4029 23.1164 25.7844 22.8391L25.7846 22.8389C26.1653 22.5619 26.4003 22.147 26.5613 21.7944C26.6973 21.4966 26.8156 21.1594 26.9205 20.8603C26.9423 20.7984 26.9634 20.7381 26.984 20.6801C27.1137 20.3154 27.2274 20.0259 27.3556 19.8112C27.4843 19.5956 27.57 19.554 27.5967 19.5454L27.597 19.5453C27.6081 19.5417 27.6907 19.5209 27.921 19.6216C28.1484 19.7211 28.4087 19.8888 28.7299 20.1085C28.7716 20.137 28.8144 20.1665 28.8582 20.1966C29.1284 20.3825 29.4361 20.5943 29.739 20.7616C30.0857 20.9532 30.5241 21.1446 30.9997 21.1446C31.4753 21.1446 31.9137 20.9532 32.2604 20.7616C32.5633 20.5943 32.871 20.3825 33.1412 20.1966C33.185 20.1665 33.2278 20.137 33.2695 20.1085C33.5907 19.8888 33.851 19.7211 34.0784 19.6216C34.3087 19.5209 34.3913 19.5417 34.4024 19.5453L34.4028 19.5454C34.4294 19.554 34.5151 19.5956 34.6438 19.8112C34.772 20.0259 34.8857 20.3154 35.0154 20.6801C35.036 20.7381 35.0571 20.7984 35.0789 20.8603C35.1838 21.1594 35.3021 21.4966 35.4381 21.7944C35.5991 22.147 35.8341 22.5619 36.2148 22.8389L36.215 22.8391C36.5965 23.1164 37.0634 23.2143 37.4504 23.2601C37.7806 23.2992 38.1424 23.3083 38.4624 23.3163C38.5244 23.3178 38.5848 23.3194 38.6432 23.321C39.0307 23.3322 39.3409 23.3509 39.5845 23.4059C39.8298 23.4614 39.8927 23.5292 39.9062 23.5479L39.9064 23.5481C39.9176 23.5635 39.9627 23.6412 39.9393 23.8914C39.9161 24.1394 39.838 24.4395 39.7291 24.812C39.7135 24.8652 39.6972 24.9202 39.6805 24.9766C39.5889 25.2861 39.485 25.637 39.4201 25.9681C39.3448 26.3529 39.2957 26.8272 39.4413 27.2767ZM39.4413 27.2767C39.4413 27.2766 39.4412 27.2764 39.4412 27.2763L40.1371 27.0516M39.4413 27.2767C39.4413 27.2768 39.4414 27.277 39.4414 27.2771L40.1371 27.0516M40.1371 27.0516C39.9763 26.5556 40.1783 25.8726 40.3794 25.1923C40.6151 24.3952 40.8497 23.602 40.498 23.1181H21.5014C21.1497 23.602 21.3843 24.3952 21.62 25.1923C21.8211 25.8726 22.0231 26.5556 21.8623 27.0516C21.7097 27.5213 21.1638 27.9381 20.6112 28.36C19.9409 28.8717 19.2607 29.391 19.2607 30.0214C19.2607 30.6517 19.9409 31.171 20.6112 31.6828C21.1638 32.1047 21.7097 32.5215 21.8623 32.9912C22.0231 33.4872 21.8211 34.1702 21.62 34.8504C21.3843 35.6475 21.1497 36.4408 21.5014 36.9247C21.8579 37.4154 22.6937 37.4366 23.5287 37.4579C24.2345 37.4758 24.9397 37.4938 25.3543 37.7952C25.7625 38.0922 25.9938 38.751 26.2265 39.4134C26.5046 40.2055 26.7846 41.0027 27.3709 41.193C27.9271 41.3738 28.5976 40.9129 29.2774 40.4455C29.8673 40.0399 30.4643 39.6295 30.9997 39.6295C31.5351 39.6295 32.1321 40.0399 32.722 40.4455C33.4018 40.9129 34.0723 41.3738 34.6285 41.193C35.2148 41.0027 35.4948 40.2055 35.7729 39.4134C36.0056 38.751 36.2369 38.0922 36.6451 37.7952C37.0597 37.4938 37.7649 37.4758 38.4707 37.4579C39.3057 37.4366 40.1416 37.4154 40.498 36.9247C40.8497 36.4408 40.6151 35.6475 40.3794 34.8504L40.3794 34.8504C40.1783 34.1702 39.9763 33.4872 40.1371 32.9912C40.2896 32.5217 40.8349 32.1058 41.3872 31.6845C42.0578 31.173 42.7387 30.6537 42.7387 30.0214C42.7387 29.389 42.0567 28.8687 41.3856 28.3567C40.8332 27.9353 40.2882 27.5196 40.1371 27.0516ZM30.962 34.8988C33.7893 34.8988 36.0813 32.6068 36.0813 29.7795C36.0813 26.9522 33.7893 24.6602 30.962 24.6602C28.1347 24.6602 25.8427 26.9522 25.8427 29.7795C25.8427 32.6068 28.1347 34.8988 30.962 34.8988ZM34.6186 29.7795C34.6186 31.799 32.9815 33.4361 30.962 33.4361C28.9425 33.4361 27.3053 31.799 27.3053 29.7795C27.3053 27.76 28.9425 26.1228 30.962 26.1228C32.9815 26.1228 34.6186 27.76 34.6186 29.7795Z" stroke="#E749EE" stroke-width="1.46265"/>
<defs>
<filter id="filter0_b_14_3248" x="1.70895" y="1.98898" width="58.5062" height="58.5062" filterUnits="userSpaceOnUse" color-interpolation-filters="sRGB">
<feFlood flood-opacity="0" result="BackgroundImageFix"/>
<feGaussianBlur in="BackgroundImageFix" stdDeviation="2.92531"/>
<feComposite in2="SourceAlpha" operator="in" result="effect1_backgroundBlur_14_3248"/>
<feBlend mode="normal" in="SourceGraphic" in2="effect1_backgroundBlur_14_3248" result="shape"/>
</filter>
<linearGradient id="paint0_linear_14_3248" x1="23.4025" y1="0" x2="23.4025" y2="46.8049" gradientUnits="userSpaceOnUse">
<stop stop-color="#E541ED"/>
<stop offset="1" stop-color="#FEEBFF"/>
</linearGradient>
</defs>
</svg>
