<svg width="81" height="83" viewBox="0 0 81 83" fill="none" xmlns="http://www.w3.org/2000/svg">
<rect x="0.241211" y="0.0610352" width="80.446" height="82.64" rx="14.6265" fill="#F6F6F6"/>
<path d="M39.6618 28.541C40.073 27.4711 41.5867 27.4711 41.9979 28.541C42.659 30.2611 44.8057 30.8363 46.2383 29.6772C47.1293 28.9562 48.4402 29.7131 48.2614 30.8452C47.9738 32.6655 49.5453 34.2369 51.3656 33.9494C52.4977 33.7706 53.2545 35.0814 52.5336 35.9725C51.3744 37.4051 51.9496 39.5517 53.6698 40.2129C54.7397 40.6241 54.7397 42.1377 53.6698 42.5489C51.9496 43.21 51.3744 45.3567 52.5336 46.7893C53.2545 47.6804 52.4977 48.9912 51.3656 48.8124C49.5453 48.5249 47.9738 50.0963 48.2614 51.9166C48.4402 53.0487 47.1293 53.8055 46.2383 53.0846C44.8057 51.9255 42.659 52.5006 41.9979 54.2208C41.5867 55.2907 40.073 55.2907 39.6618 54.2208C39.0007 52.5006 36.8541 51.9255 35.4214 53.0846C34.5304 53.8055 33.2195 53.0487 33.3984 51.9166C33.6859 50.0963 32.1145 48.5249 30.2942 48.8124C29.162 48.9912 28.4052 47.6804 29.1262 46.7893C30.2853 45.3567 29.7101 43.21 27.9899 42.5489C26.9201 42.1377 26.9201 40.6241 27.9899 40.2129C29.7101 39.5517 30.2853 37.4051 29.1262 35.9725C28.4052 35.0814 29.162 33.7706 30.2942 33.9494C32.1145 34.2369 33.6859 32.6655 33.3984 30.8452C33.2195 29.7131 34.5304 28.9562 35.4214 29.6772C36.8541 30.8363 39.0007 30.2611 39.6618 28.541Z" stroke="#5956E9" stroke-width="1.46265"/>
<circle cx="40.8298" cy="41.3808" r="8.41026" stroke="#5956E9" stroke-width="1.46265"/>
</svg>
